<?xml version="1.0" encoding="utf-8"?>
<!-- Generator: Adobe Illustrator 27.5.0, SVG Export Plug-In . SVG Version: 6.00 Build 0)  -->
<svg version="1.1" xmlns="http://www.w3.org/2000/svg" xmlns:xlink="http://www.w3.org/1999/xlink" x="0px" y="0px"
	 viewBox="0 0 500 500" style="enable-background:new 0 0 500 500;" xml:space="preserve">
<g id="BACKGROUND">
	<rect style="fill:#B3C0C6;" width="500" height="500"/>
</g>
<g id="OBJECTS">
	<g>
		<g>
			<g>
				<path style="fill:#011922;" d="M355.71,225.791c-0.001-0.136-0.133-0.293-0.355-0.421l-13.076-7.55
					c-0.624-0.36-1.674-0.361-2.292-0.001l-12.993,7.551c-0.217,0.126-0.346,0.282-0.346,0.416l-0.856,0.004
					c-0.002-0.452,0.279-0.874,0.772-1.16l12.993-7.551c0.88-0.512,2.264-0.512,3.151,0l13.077,7.55
					c0.501,0.29,0.779,0.7,0.782,1.157L355.71,225.791z"/>
			</g>
			<g>
				<g>
					<path style="fill:#011922;" d="M342.485,63.481l-0.001,157.388c0,0.199-0.131,0.398-0.391,0.549
						c-0.527,0.306-1.384,0.306-1.914,0c-0.267-0.154-0.4-0.356-0.399-0.558l0.001-157.388c-0.001,0.202,0.133,0.404,0.399,0.558
						c0.53,0.306,1.387,0.306,1.914,0C342.354,63.879,342.484,63.68,342.485,63.481z"/>
				</g>
				<g>
					<path style="fill:#012837;" d="M342.089,62.918c0.53,0.306,0.533,0.802,0.006,1.108c-0.527,0.306-1.384,0.306-1.914,0
						c-0.53-0.306-0.533-0.802-0.006-1.108C340.701,62.612,341.558,62.612,342.089,62.918z"/>
				</g>
			</g>
			<g>
				<g>
					<path style="fill:#012331;" d="M342.574,78.828l-0.001,157.388c-0.001,0.199-0.131,0.398-0.392,0.549
						c-0.527,0.306-1.383,0.306-1.914,0c-0.267-0.154-0.4-0.356-0.399-0.558l0.001-157.388c-0.001,0.202,0.133,0.404,0.399,0.558
						c0.53,0.306,1.387,0.306,1.914,0C342.443,79.226,342.574,79.027,342.574,78.828z"/>
				</g>
				<g>
					<path style="fill:#012837;" d="M342.175,78.27c0.53,0.306,0.533,0.802,0.008,1.107c-0.527,0.306-1.384,0.306-1.914,0
						c-0.53-0.306-0.533-0.802-0.006-1.108C340.788,77.964,341.645,77.964,342.175,78.27z"/>
				</g>
			</g>
			<g>
				<g>
					<path style="fill:#012331;" d="M329.279,71.153l-0.001,157.388c-0.001,0.199-0.131,0.397-0.392,0.549
						c-0.527,0.306-1.384,0.306-1.914,0c-0.267-0.154-0.4-0.356-0.399-0.558l0.001-157.388c-0.001,0.202,0.133,0.404,0.399,0.558
						c0.53,0.306,1.387,0.306,1.914,0C329.148,71.55,329.279,71.352,329.279,71.153z"/>
				</g>
				<g>
					<path style="fill:#012837;" d="M328.88,70.594c0.53,0.306,0.533,0.802,0.008,1.107c-0.527,0.306-1.383,0.306-1.914,0
						c-0.53-0.306-0.533-0.802-0.006-1.108C327.493,70.288,328.35,70.288,328.88,70.594z"/>
				</g>
			</g>
			<g>
				<g>
					<path style="fill:#012331;" d="M355.783,71.157l-0.001,157.388c0,0.199-0.131,0.398-0.391,0.549
						c-0.527,0.306-1.384,0.306-1.914,0c-0.267-0.154-0.4-0.356-0.399-0.558l0.001-157.388c-0.001,0.202,0.133,0.404,0.399,0.558
						c0.53,0.306,1.387,0.306,1.914,0C355.652,71.555,355.782,71.356,355.783,71.157z"/>
				</g>
				<g>
					<path style="fill:#012837;" d="M355.384,70.594c0.53,0.306,0.533,0.802,0.006,1.108c-0.527,0.306-1.384,0.306-1.914,0
						c-0.53-0.306-0.533-0.802-0.006-1.108C353.997,70.288,354.853,70.288,355.384,70.594z"/>
				</g>
			</g>
			<g>
				<path style="fill:#011922;" d="M341.227,234.881c-0.567,0-1.134-0.128-1.577-0.384l-13.076-7.55
					c-0.495-0.285-0.779-0.707-0.781-1.158l0.856-0.004c0.001,0.136,0.133,0.293,0.353,0.42l13.077,7.55
					c0.624,0.36,1.675,0.36,2.294,0.001l12.993-7.551c0.217-0.126,0.346-0.281,0.345-0.415l0.856-0.006
					c0.003,0.451-0.278,0.874-0.771,1.161l-12.993,7.551C342.361,234.753,341.794,234.881,341.227,234.881z"/>
			</g>
			<g>
				<path style="fill:#011922;" d="M355.71,193.834c-0.001-0.136-0.133-0.293-0.355-0.421l-13.076-7.55
					c-0.624-0.36-1.674-0.361-2.292-0.001l-12.993,7.551c-0.217,0.126-0.346,0.282-0.346,0.417l-0.856,0.004
					c-0.002-0.452,0.279-0.875,0.772-1.16l12.993-7.551c0.88-0.511,2.264-0.512,3.151,0l13.077,7.55
					c0.501,0.29,0.779,0.7,0.782,1.157L355.71,193.834z"/>
			</g>
			<g>
				<path style="fill:#011922;" d="M341.227,202.924c-0.567,0-1.134-0.128-1.577-0.384l-13.076-7.55
					c-0.495-0.285-0.779-0.707-0.781-1.158l0.856-0.004c0.001,0.136,0.133,0.293,0.353,0.42l13.077,7.55
					c0.624,0.36,1.675,0.36,2.294,0.001l12.993-7.551c0.217-0.126,0.346-0.281,0.345-0.415l0.856-0.005
					c0.003,0.451-0.278,0.874-0.771,1.161l-12.993,7.551C342.361,202.796,341.794,202.924,341.227,202.924z"/>
			</g>
			<g>
				<path style="fill:#011922;" d="M355.71,161.878c-0.001-0.136-0.133-0.293-0.355-0.421l-13.076-7.55
					c-0.624-0.36-1.674-0.361-2.292-0.001l-12.993,7.551c-0.217,0.126-0.346,0.282-0.346,0.417l-0.856,0.004
					c-0.002-0.452,0.279-0.875,0.772-1.16l12.993-7.551c0.88-0.511,2.264-0.512,3.151,0l13.077,7.55
					c0.501,0.29,0.779,0.701,0.782,1.156L355.71,161.878z"/>
			</g>
			<g>
				<path style="fill:#011922;" d="M341.227,170.968c-0.567,0-1.134-0.128-1.577-0.384l-13.076-7.55
					c-0.495-0.285-0.779-0.707-0.781-1.158l0.856-0.004c0.001,0.136,0.133,0.293,0.353,0.42l13.077,7.55
					c0.624,0.36,1.675,0.361,2.294,0.001l12.993-7.551c0.217-0.126,0.346-0.281,0.345-0.415l0.856-0.006
					c0.003,0.451-0.278,0.874-0.771,1.161l-12.993,7.551C342.361,170.84,341.794,170.968,341.227,170.968z"/>
			</g>
			<g>
				<path style="fill:#011922;" d="M355.71,129.921c-0.001-0.136-0.133-0.293-0.355-0.421l-13.076-7.55
					c-0.624-0.36-1.674-0.361-2.292-0.001l-12.993,7.551c-0.217,0.126-0.346,0.282-0.346,0.417l-0.856,0.004
					c-0.002-0.452,0.279-0.874,0.772-1.16l12.993-7.551c0.88-0.512,2.264-0.512,3.151,0l13.077,7.55
					c0.501,0.29,0.779,0.7,0.782,1.157L355.71,129.921z"/>
			</g>
			<g>
				<path style="fill:#011922;" d="M341.227,139.011c-0.567,0-1.134-0.128-1.577-0.384l-13.076-7.55
					c-0.495-0.285-0.779-0.707-0.781-1.158l0.856-0.004c0.001,0.136,0.133,0.293,0.353,0.42l13.077,7.55
					c0.624,0.36,1.675,0.361,2.294,0.001l12.993-7.551c0.217-0.126,0.346-0.281,0.345-0.415l0.856-0.006
					c0.003,0.451-0.278,0.874-0.771,1.161l-12.993,7.551C342.361,138.883,341.794,139.011,341.227,139.011z"/>
			</g>
			<g>
				<path style="fill:#011922;" d="M355.71,97.965c-0.001-0.136-0.133-0.293-0.355-0.421l-13.076-7.55
					c-0.624-0.36-1.674-0.361-2.292-0.001l-12.993,7.551c-0.217,0.126-0.346,0.282-0.346,0.416l-0.856,0.004
					c-0.002-0.452,0.279-0.874,0.772-1.16l12.993-7.551c0.88-0.512,2.264-0.512,3.151,0l13.077,7.55
					c0.501,0.29,0.779,0.7,0.782,1.157L355.71,97.965z"/>
			</g>
			<g>
				<path style="fill:#011922;" d="M341.227,107.055c-0.567,0-1.134-0.128-1.577-0.384l-13.076-7.55
					c-0.495-0.285-0.779-0.707-0.781-1.158l0.856-0.004c0.001,0.136,0.133,0.293,0.353,0.42l13.077,7.55
					c0.624,0.36,1.675,0.36,2.294,0.001l12.993-7.551c0.217-0.126,0.346-0.281,0.345-0.415l0.856-0.006
					c0.003,0.451-0.278,0.874-0.771,1.161l-12.993,7.551C342.361,106.927,341.794,107.055,341.227,107.055z"/>
			</g>
		</g>
		<g>
			<g>
				<path style="fill:#011922;" d="M402.486,225.791c-0.001-0.136-0.134-0.293-0.355-0.421l-13.076-7.55
					c-0.624-0.36-1.674-0.361-2.292-0.001l-12.993,7.551c-0.217,0.126-0.346,0.282-0.346,0.416l-0.856,0.004
					c-0.002-0.452,0.279-0.874,0.772-1.16l12.993-7.551c0.88-0.512,2.264-0.512,3.15,0l13.077,7.55
					c0.502,0.29,0.779,0.7,0.782,1.157L402.486,225.791z"/>
			</g>
			<g>
				<g>
					<path style="fill:#011922;" d="M389.261,63.481l-0.001,157.388c-0.001,0.199-0.131,0.398-0.392,0.549
						c-0.527,0.306-1.384,0.306-1.914,0c-0.267-0.154-0.4-0.356-0.399-0.558l0.001-157.388c0,0.202,0.133,0.404,0.399,0.558
						c0.53,0.306,1.387,0.306,1.914,0C389.13,63.879,389.26,63.68,389.261,63.481z"/>
				</g>
				<g>
					<path style="fill:#012837;" d="M388.865,62.918c0.53,0.306,0.533,0.802,0.006,1.108c-0.527,0.306-1.383,0.306-1.914,0
						c-0.53-0.306-0.533-0.802-0.006-1.108C387.478,62.612,388.335,62.612,388.865,62.918z"/>
				</g>
			</g>
			<g>
				<g>
					<path style="fill:#012331;" d="M389.351,78.828l-0.001,157.388c-0.001,0.199-0.131,0.398-0.392,0.549
						c-0.527,0.306-1.384,0.306-1.914,0c-0.267-0.154-0.4-0.356-0.399-0.558l0.001-157.388c-0.001,0.202,0.133,0.404,0.399,0.558
						c0.53,0.306,1.387,0.306,1.914,0C389.22,79.226,389.35,79.027,389.351,78.828z"/>
				</g>
				<g>
					<path style="fill:#012837;" d="M388.951,78.27c0.53,0.306,0.533,0.802,0.008,1.107c-0.527,0.306-1.384,0.306-1.914,0
						c-0.53-0.306-0.533-0.802-0.006-1.108C387.564,77.964,388.421,77.964,388.951,78.27z"/>
				</g>
			</g>
			<g>
				<g>
					<path style="fill:#012331;" d="M376.056,71.153l-0.001,157.388c-0.001,0.199-0.131,0.397-0.392,0.549
						c-0.527,0.306-1.383,0.306-1.914,0c-0.267-0.154-0.4-0.356-0.399-0.558l0.001-157.388c-0.001,0.202,0.133,0.404,0.399,0.558
						c0.53,0.306,1.387,0.306,1.914,0C375.924,71.55,376.055,71.352,376.056,71.153z"/>
				</g>
				<g>
					<path style="fill:#012837;" d="M375.656,70.594c0.53,0.306,0.533,0.802,0.008,1.107c-0.527,0.306-1.384,0.306-1.914,0
						c-0.53-0.306-0.533-0.802-0.006-1.108C374.269,70.288,375.126,70.288,375.656,70.594z"/>
				</g>
			</g>
			<g>
				<g>
					<path style="fill:#012331;" d="M402.559,71.157l-0.001,157.388c0,0.199-0.131,0.398-0.391,0.549
						c-0.527,0.306-1.384,0.306-1.914,0c-0.267-0.154-0.4-0.356-0.399-0.558l0.001-157.388c-0.001,0.202,0.133,0.404,0.399,0.558
						c0.53,0.306,1.387,0.306,1.914,0C402.428,71.555,402.559,71.356,402.559,71.157z"/>
				</g>
				<g>
					<path style="fill:#012837;" d="M402.16,70.594c0.53,0.306,0.533,0.802,0.006,1.108c-0.527,0.306-1.384,0.306-1.914,0
						c-0.53-0.306-0.533-0.802-0.006-1.108C400.773,70.288,401.63,70.288,402.16,70.594z"/>
				</g>
			</g>
			<g>
				<path style="fill:#011922;" d="M388.003,234.881c-0.567,0-1.135-0.128-1.577-0.384l-13.076-7.55
					c-0.495-0.285-0.779-0.707-0.781-1.158l0.856-0.004c0.001,0.136,0.133,0.293,0.353,0.42l13.077,7.55
					c0.624,0.36,1.675,0.36,2.294,0.001l12.993-7.551c0.217-0.126,0.346-0.281,0.345-0.415l0.856-0.006
					c0.003,0.451-0.278,0.874-0.771,1.161l-12.993,7.551C389.137,234.753,388.57,234.881,388.003,234.881z"/>
			</g>
			<g>
				<path style="fill:#011922;" d="M402.486,193.834c-0.001-0.136-0.134-0.293-0.355-0.421l-13.076-7.55
					c-0.624-0.36-1.674-0.361-2.292-0.001l-12.993,7.551c-0.217,0.126-0.346,0.282-0.346,0.417l-0.856,0.004
					c-0.002-0.452,0.279-0.875,0.772-1.16l12.993-7.551c0.88-0.511,2.264-0.512,3.15,0l13.077,7.55
					c0.502,0.29,0.779,0.7,0.782,1.157L402.486,193.834z"/>
			</g>
			<g>
				<path style="fill:#011922;" d="M388.003,202.924c-0.567,0-1.135-0.128-1.577-0.384l-13.076-7.55
					c-0.495-0.285-0.779-0.707-0.781-1.158l0.856-0.004c0.001,0.136,0.133,0.293,0.353,0.42l13.077,7.55
					c0.624,0.36,1.675,0.36,2.294,0.001l12.993-7.551c0.217-0.126,0.346-0.281,0.345-0.415l0.856-0.005
					c0.003,0.451-0.278,0.874-0.771,1.161l-12.993,7.551C389.137,202.796,388.57,202.924,388.003,202.924z"/>
			</g>
			<g>
				<path style="fill:#011922;" d="M402.486,161.878c-0.001-0.136-0.134-0.293-0.355-0.421l-13.076-7.55
					c-0.624-0.36-1.674-0.361-2.292-0.001l-12.993,7.551c-0.217,0.126-0.346,0.282-0.346,0.417l-0.856,0.004
					c-0.002-0.452,0.279-0.875,0.772-1.16l12.993-7.551c0.88-0.511,2.264-0.512,3.15,0l13.077,7.55
					c0.502,0.29,0.779,0.701,0.782,1.156L402.486,161.878z"/>
			</g>
			<g>
				<path style="fill:#011922;" d="M388.003,170.968c-0.567,0-1.135-0.128-1.577-0.384l-13.076-7.55
					c-0.495-0.285-0.779-0.707-0.781-1.158l0.856-0.004c0.001,0.136,0.133,0.293,0.353,0.42l13.077,7.55
					c0.624,0.36,1.675,0.361,2.294,0.001l12.993-7.551c0.217-0.126,0.346-0.281,0.345-0.415l0.856-0.006
					c0.003,0.451-0.278,0.874-0.771,1.161l-12.993,7.551C389.137,170.84,388.57,170.968,388.003,170.968z"/>
			</g>
			<g>
				<path style="fill:#011922;" d="M402.486,129.921c-0.001-0.136-0.134-0.293-0.355-0.421l-13.076-7.55
					c-0.624-0.36-1.674-0.361-2.292-0.001l-12.993,7.551c-0.217,0.126-0.346,0.282-0.346,0.417l-0.856,0.004
					c-0.002-0.452,0.279-0.874,0.772-1.16l12.993-7.551c0.88-0.512,2.264-0.512,3.15,0l13.077,7.55
					c0.502,0.29,0.779,0.7,0.782,1.157L402.486,129.921z"/>
			</g>
			<g>
				<path style="fill:#011922;" d="M388.003,139.011c-0.567,0-1.135-0.128-1.577-0.384l-13.076-7.55
					c-0.495-0.285-0.779-0.707-0.781-1.158l0.856-0.004c0.001,0.136,0.133,0.293,0.353,0.42l13.077,7.55
					c0.624,0.36,1.675,0.361,2.294,0.001l12.993-7.551c0.217-0.126,0.346-0.281,0.345-0.415l0.856-0.006
					c0.003,0.451-0.278,0.874-0.771,1.161l-12.993,7.551C389.137,138.883,388.57,139.011,388.003,139.011z"/>
			</g>
			<g>
				<path style="fill:#011922;" d="M402.486,97.965c-0.001-0.136-0.134-0.293-0.355-0.421l-13.076-7.55
					c-0.624-0.36-1.674-0.361-2.292-0.001l-12.993,7.551c-0.217,0.126-0.346,0.282-0.346,0.416l-0.856,0.004
					c-0.002-0.452,0.279-0.874,0.772-1.16l12.993-7.551c0.88-0.512,2.264-0.512,3.15,0l13.077,7.55
					c0.502,0.29,0.779,0.7,0.782,1.157L402.486,97.965z"/>
			</g>
			<g>
				<path style="fill:#011922;" d="M388.003,107.055c-0.567,0-1.135-0.128-1.577-0.384l-13.076-7.55
					c-0.495-0.285-0.779-0.707-0.781-1.158l0.856-0.004c0.001,0.136,0.133,0.293,0.353,0.42l13.077,7.55
					c0.624,0.36,1.675,0.36,2.294,0.001l12.993-7.551c0.217-0.126,0.346-0.281,0.345-0.415l0.856-0.006
					c0.003,0.451-0.278,0.874-0.771,1.161l-12.993,7.551C389.137,106.927,388.57,107.055,388.003,107.055z"/>
			</g>
		</g>
		<g>
			<g>
				<g style="enable-background:new    ;">
					<g>
						<polygon style="fill:#012837;" points="246.161,138.293 84.154,232.441 71.015,224.856 233.022,130.707 						"/>
					</g>
					<g>
						<polygon style="fill:#012331;" points="246.161,138.293 246.115,154.731 84.107,248.88 84.154,232.441 						"/>
					</g>
					<g>
						<polygon style="fill:#011922;" points="84.154,232.441 84.107,248.88 70.968,241.294 71.015,224.856 						"/>
					</g>
				</g>
			</g>
			<g>
				<g style="enable-background:new    ;">
					<g>
						<polygon style="fill:#012837;" points="261.103,147.268 99.095,241.416 85.956,233.831 247.964,139.682 						"/>
					</g>
					<g>
						<polygon style="fill:#012331;" points="261.103,147.268 261.056,163.706 99.049,257.854 99.095,241.416 						"/>
					</g>
					<g>
						<polygon style="fill:#011922;" points="99.095,241.416 99.049,257.854 85.91,250.269 85.956,233.831 						"/>
					</g>
				</g>
			</g>
			<g>
				<g style="enable-background:new    ;">
					<g>
						<polygon style="fill:#012837;" points="278.17,155.487 116.162,249.635 103.023,242.05 265.031,147.901 						"/>
					</g>
					<g>
						<polygon style="fill:#012331;" points="278.17,155.487 278.123,171.925 116.116,266.073 116.162,249.635 						"/>
					</g>
					<g>
						<polygon style="fill:#011922;" points="116.162,249.635 116.116,266.073 102.977,258.488 103.023,242.05 						"/>
					</g>
				</g>
			</g>
			<g>
				<g style="enable-background:new    ;">
					<g>
						<polygon style="fill:#012837;" points="251.382,125.868 89.374,220.016 76.235,212.431 238.243,118.282 						"/>
					</g>
					<g>
						<polygon style="fill:#012331;" points="251.382,125.868 251.335,142.306 89.327,236.455 89.374,220.016 						"/>
					</g>
					<g>
						<polygon style="fill:#011922;" points="89.374,220.016 89.327,236.455 76.189,228.869 76.235,212.431 						"/>
					</g>
				</g>
			</g>
			<g>
				<g style="enable-background:new    ;">
					<g>
						<polygon style="fill:#012837;" points="268.95,137.129 106.942,231.278 93.803,223.692 255.811,129.544 						"/>
					</g>
					<g>
						<polygon style="fill:#012331;" points="268.95,137.129 268.903,153.568 106.896,247.716 106.942,231.278 						"/>
					</g>
					<g>
						<polygon style="fill:#011922;" points="106.942,231.278 106.896,247.716 93.757,240.13 93.803,223.692 						"/>
					</g>
				</g>
			</g>
			<g>
				<g style="enable-background:new    ;">
					<g>
						<polygon style="fill:#012837;" points="262.845,115.36 100.838,209.508 87.699,201.923 249.707,107.774 						"/>
					</g>
					<g>
						<polygon style="fill:#012331;" points="262.845,115.36 262.799,131.798 100.791,225.947 100.838,209.508 						"/>
					</g>
					<g>
						<polygon style="fill:#011922;" points="100.838,209.508 100.791,225.947 87.653,218.361 87.699,201.923 						"/>
					</g>
				</g>
			</g>
		</g>
		<g>
			<g>
				<g>
					<path style="fill:#B14518;" d="M256.556,174.478c0.215-0.126,0.419-0.274,0.602-0.446
						C256.974,174.205,256.773,174.353,256.556,174.478z"/>
					<path style="fill:#B14518;" d="M257.158,174.032c0.176-0.216,0.362-0.444,0.556-0.682
						C257.56,173.606,257.371,173.832,257.158,174.032z"/>
					<path style="fill:#F5BCAA;" d="M251.794,170.796l5.498-31.523c1.824,0.951,2.959,9.8,1.433,20.627
						c-0.799,5.669-1.504,10.588-2.93,14.905c0.248-0.068,0.484-0.169,0.706-0.294c-0.719,0.396-1.582,0.531-2.436,0.295
						C252.33,174.326,251.313,172.531,251.794,170.796z"/>
					<polygon style="fill:#8C4731;" points="257.158,174.032 257.158,174.032 257.158,174.032 					"/>
					<path style="fill:#8C4731;" d="M256.5,174.512c0.019-0.01,0.036-0.023,0.055-0.033
						C256.537,174.489,256.519,174.501,256.5,174.512z"/>
					<path style="fill:#8C4731;" d="M257.715,173.35L257.715,173.35c0.084-0.138,0.164-0.279,0.228-0.432
						C257.879,173.071,257.798,173.212,257.715,173.35z"/>
					<path style="fill:#ED8768;" d="M258.725,159.9c1.519-10.872,0.391-19.675-1.433-20.627l1.471-7.368l10.645,3.775
						l-11.465,37.237c-0.063,0.153-0.144,0.294-0.228,0.432c-0.194,0.238-0.38,0.466-0.556,0.682c0,0,0,0,0,0
						c-0.184,0.172-0.387,0.32-0.602,0.446c-0.019,0.011-0.036,0.023-0.055,0.033c-0.222,0.125-0.458,0.226-0.706,0.294
						C257.221,170.488,257.933,165.571,258.725,159.9z"/>
					<path style="fill:#F29F05;" d="M262.548,112.956c0.022-0.192,0.054-0.396,0.095-0.59c0.731-3.521,4.178-5.783,7.699-5.051
						c3.521,0.731,5.783,4.178,5.051,7.7l-5.986,20.666l-10.645-3.775L262.548,112.956z"/>
				</g>
				<path style="fill:#F5BCAA;" d="M252.454,177.308c1.809,0.744,4.317-1.183,5.6-4.304c1.284-3.121,0.857-6.254-0.952-6.998
					c-1.809-0.744-4.317,1.183-5.6,4.304S250.645,176.564,252.454,177.308z"/>
			</g>
			<g>
				<g>
					<g>
						<path style="fill:#EDC6BC;" d="M294.95,261.094l-5.517-6.293l-6.263,6.39l7.077,7.442
							C290.247,268.633,299.438,265.676,294.95,261.094z"/>
						<path style="fill:#021E73;" d="M295.672,260.872c2.118,1.691,4.997,2.839,5.637,5.049c0.373,2.246-2.484,4.497-3.501,7.182
							c-1.645,4.343-2.186,10.16-7.024,11.909c-3.767,1.362-5.745-0.902-5.986-2.797c-0.221-1.741,0.968-3.541,2.575-5.847
							c1.553-2.229,0.693-3.984,0.993-5.775c0.32-1.909,0.519-2.593-0.334-3.696c-1.54-1.992,2.721-4.623,5.316-1.927
							c2.506,0.092,3.461-1.7,1.491-3.71C294.916,260.762,295.672,260.872,295.672,260.872z"/>
					</g>
					<path style="fill:#0528F2;" d="M262.883,165.673c-0.305,6.937-2.37,16.293-2.37,16.293c-3.885,17.796-9.51,48.21-7.021,53.291
						c2.974,5.372,7.037,7.272,10.102,9.504c7.942,5.783,18.683,17.355,24.771,25.833c3.088,2.853,10.183-8.303,7.819-10.561
						c-12.741-12.168-9.508-15.929-15.959-22.421c-5.072-5.105-9.675-5.941-9.675-8.736c0-5.493,15.381-39.348,15.381-39.348
						s-10.658-20.822-14.748-21.232C264.172,167.593,262.883,165.673,262.883,165.673z"/>
					<path style="fill:#021E73;" d="M269.742,185.275h13.918c1.373,2.497,2.273,4.254,2.273,4.254s-15.381,33.855-15.381,39.348
						c0,2.795,4.603,3.631,9.675,8.736c6.45,6.492,3.218,10.253,15.959,22.421c2.364,2.258-4.731,13.414-7.819,10.561
						c-3.486-4.855-8.5-10.722-13.639-15.938c-0.407-8.195-4.037-10.787-7.09-14.978c-3.24-4.447-3.847-6.67-2.457-13.201
						C266.569,219.947,271.433,193.962,269.742,185.275z"/>
				</g>
				<g>
					<g>
						<path style="fill:#EDC6BC;" d="M285.679,293.076l0.967-5.313l-8.373-0.549l-0.363,5.533
							C277.91,292.747,284.638,296.351,285.679,293.076z"/>
						<path style="fill:#021E73;" d="M286.587,293.244c-0.052,0.721,0.257,3.29,0.364,4.31c0.22,2.09-1.388,3.459-4.42,4.699
							c-3.432,1.404-4.911,3.045-6.934,4.588c-2.346,1.789-5.659,2.182-8.263,1.434c-3.181-0.914-3.582-4.03-2.713-5.333
							c1.484-2.225,5.304-3.592,7.824-5.731c1.753-1.488,2.187-1.953,3.883-3.643c0.852-1.518,0.669-2.258,1.533-2.83
							c0.787-0.52,3.842-0.112,5.809,3.08c0.263,0.708,2.177,0.109,2.419-0.693l0.155-0.546
							C286.418,292.624,286.619,292.801,286.587,293.244z"/>
					</g>
					<path style="fill:#0528F2;" d="M294.553,163.34c5.18,9.805,5.618,16.801,3.327,28.279c-1.826,9.149-11.234,31.999-8.084,48.475
						c0.586,3.577,4.964,8.817,0.88,27.535c-2.819,12.922-2.674,18.132-2.674,24.24c0,5.491-14.079,6.319-14.079,2.583
						c0.245-4.348,4.082-41.78,2.755-47.415c-4.39-18.642-1.645-43.317-2.863-57.706c0,0-0.03-2.076-4.073-4.055
						c0,0-1.601-1.191,1.398-16.987C271.14,168.288,293.627,169.681,294.553,163.34"/>
				</g>
			</g>
			<path style="fill:#941B80;" d="M296.055,189.831"/>
			<g>
				<g>
					<g>
						<g>
							<path style="fill:#012E40;" d="M178.45,333.78c3.858-3.647,5.303-8.947,5.901-12.332c4.252-2.953,8.943-1.257,8.81,4.6
								c0.014,5.348-3.741,11.855-8.397,14.544c-4.37,2.602-7.909,0.547-8.37-3.559c-0.074-0.554-0.098-1.188-0.072-1.776
								C177.132,334.848,178.225,333.999,178.45,333.78z"/>
							<g>
								<g style="enable-background:new    ;">
									<path style="fill:#021E73;" d="M177.958,328.174c0.572-0.33,1.032-1.13,1.031-1.785c-0.001-0.327-0.116-0.556-0.301-0.664
										l5.065,2.944c0.186,0.108,0.3,0.337,0.301,0.664c0.002,0.656-0.458,1.455-1.031,1.785
										c-0.287,0.166-0.547,0.181-0.735,0.072l-5.065-2.944C177.411,328.355,177.671,328.339,177.958,328.174z"/>
									<g>
										<path style="fill:#0528F2;" d="M190.467,325.629c0.013,4.726-3.31,10.48-7.423,12.855
											c-4.113,2.374-7.458,0.47-7.471-4.256c-0.013-4.726,3.31-10.482,7.423-12.857
											C187.109,318.997,190.454,320.904,190.467,325.629z M183.024,331.117c0.572-0.33,1.032-1.129,1.031-1.785
											c-0.002-0.657-0.465-0.921-1.037-0.591c-0.571,0.329-1.032,1.128-1.031,1.785
											C181.988,331.181,182.453,331.447,183.024,331.117"/>
									</g>
									<path style="fill:#021E73;" d="M177.931,318.428c2.07-1.195,3.945-1.306,5.299-0.519l5.065,2.943
										c-1.354-0.787-3.229-0.676-5.299,0.519c-4.113,2.375-7.436,8.131-7.423,12.857c0.007,2.347,0.835,3.999,2.172,4.775
										l-5.065-2.943c-1.336-0.777-2.165-2.428-2.172-4.775C170.495,326.559,173.818,320.803,177.931,318.428z"/>
								</g>
							</g>
							<g>
								<g style="enable-background:new    ;">
									<g>
										<path style="fill:#012E40;" d="M198.811,322.785c0.027,8.928-6.257,19.81-14.028,24.296
											c-7.77,4.487-14.096,0.884-14.12-8.045c-0.026-8.929,6.258-19.813,14.028-24.298
											C192.462,310.251,198.786,313.855,198.811,322.785z M184.764,340.591c4.656-2.689,8.411-9.196,8.397-14.544
											c-0.016-5.349-3.797-7.503-8.452-4.816c-4.654,2.688-8.411,9.194-8.397,14.544
											C176.328,341.122,180.11,343.277,184.764,340.591"/>
									</g>
									<path style="fill:#1A4353;" d="M168.874,347.251c9.703,5.974,20.403-0.672,26.036-10.702
										c5.401-9.084,7.226-22.799-4.242-28.035c0.188,0.089,0.371,0.186,0.55,0.29c-14.496-8.007-28.35,10.936-29.316,24.239
										C161.34,338.68,163.955,344.223,168.874,347.251z M170.663,338.88c-0.026-8.929,6.26-19.654,14.028-24.142
										c7.448-4.302,14.096-1.04,14.12,7.89c0.027,8.927-6.257,19.81-14.028,24.296
										C177.012,351.413,170.687,347.809,170.663,338.88z"/>
									<g>
										<path style="fill:#063244;" d="M198.811,322.785c0.027,8.928-6.257,19.81-14.028,24.296
											c-7.77,4.487-14.096,0.884-14.12-8.045c-0.026-8.929,6.258-19.813,14.028-24.298
											C192.462,310.251,198.786,313.855,198.811,322.785z M184.764,340.591c4.656-2.689,8.411-9.196,8.397-14.544
											c-0.016-5.349-3.797-7.503-8.452-4.816c-4.654,2.688-8.411,9.194-8.397,14.544
											C176.328,341.122,180.11,343.277,184.764,340.591"/>
									</g>
								</g>
							</g>
							<g>
								<path style="fill:#063244;" d="M198.811,322.785c0.027,8.928-6.257,19.81-14.028,24.296
									c-7.77,4.487-14.096,0.884-14.12-8.045c-0.026-8.929,6.258-19.813,14.028-24.298
									C192.462,310.251,198.786,313.855,198.811,322.785z M184.764,340.591c4.656-2.689,8.411-9.196,8.397-14.544
									c-0.016-5.349-3.797-7.503-8.452-4.816c-4.654,2.688-8.411,9.194-8.397,14.544
									C176.328,341.122,180.11,343.277,184.764,340.591"/>
							</g>
						</g>
						<path style="fill:#825503;" d="M162.363,316.639l4.305,2.503c-0.354,0.584-0.691,1.178-1.011,1.778l-4.041-2.35
							L162.363,316.639z"/>
						<g>
							<path style="fill:#825503;" d="M183.017,328.741c0.029-0.017,0.058-0.029,0.087-0.043l16.257,9.452l-0.747,1.932
								l-16.618-9.663C182.038,329.785,182.476,329.053,183.017,328.741z"/>
						</g>
					</g>
					<g>
						<path style="fill:#825503;" d="M153.736,334.239c-0.312-2.065,0.326-4.126,1.751-5.654l9.045-9.699
							c3.311-3.55,5.954-7.616,7.854-12.084l6.705-15.761c1.596-3.751,3.768-7.209,6.454-10.276l21.803-24.888
							c3.049-3.48,5.48-7.417,7.228-11.702l12.691-31.128c1.432-3.513,3.372-6.787,5.766-9.73l34.674-42.648
							c0.552-0.679,0.449-1.677-0.23-2.229c-0.68-0.552-1.678-0.449-2.229,0.23l-34.674,42.647
							c-2.591,3.187-4.691,6.73-6.241,10.533l-12.691,31.128c-1.614,3.958-3.86,7.595-6.677,10.81l-21.803,24.888
							c-2.908,3.32-5.259,7.063-6.986,11.124l-6.705,15.761c-1.756,4.127-4.197,7.883-7.256,11.163l-9.045,9.699
							c-2.089,2.24-3.024,5.261-2.567,8.289c0.457,3.028,2.243,5.638,4.9,7.161l0,0l1.576-2.749
							C155.266,338.085,154.048,336.304,153.736,334.239z"/>
						<path style="fill:#825503;" d="M184.816,281.372c0.965,0.398,21.216,13.763,22.42,14.077c1.51,0.409,3.233-0.251,4.8-1.902
							c3.128-3.296,4.619-9.501,3.323-13.833l-7.061-23.606l-0.949-0.231c-0.346,0.353-1.017,1.087-1.339,1.463l7.049,23.566
							c0.125,0.422,0.214,0.855,0.272,1.293c0.373,3.91-0.995,8.987-4.899,10.647c-1.632,1.114-20.435-13.546-22.076-13.22
							L184.816,281.372z"/>
					</g>
					<path style="fill:#825503;" d="M217.363,299.622c0.965,0.398,21.216,13.763,22.419,14.077c1.51,0.409,3.233-0.251,4.8-1.902
						c3.128-3.296,4.619-9.501,3.323-13.833l-7.061-23.606l-0.949-0.231c-0.346,0.353-1.017,1.087-1.339,1.464l7.049,23.566
						c0.125,0.422,0.214,0.855,0.272,1.293c0.373,3.91-0.995,8.987-4.899,10.647c-1.632,1.114-20.435-13.546-22.076-13.22
						L217.363,299.622z"/>
					<g>
						<path style="fill:#825503;" d="M303.358,179.008c-0.681-0.553-1.677-0.45-2.229,0.23l-34.674,42.648
							c-2.591,3.186-4.69,6.73-6.241,10.533l-12.691,31.128c-1.614,3.958-3.86,7.595-6.677,10.81l-21.803,24.887
							c-2.909,3.32-5.259,7.063-6.987,11.125l-6.705,15.761c-1.756,4.128-4.197,7.883-7.255,11.163l-8.113,8.699
							c-4.292,4.601-11.101,5.63-16.559,2.5l-16.344-9.369l0,0l-1.576,2.749l16.344,9.369c2.608,1.496,5.466,2.222,8.297,2.222
							c4.486,0,8.906-1.826,12.156-5.31l8.113-8.699c3.311-3.55,5.954-7.616,7.854-12.084l6.705-15.762
							c1.596-3.752,3.768-7.21,6.455-10.276l21.803-24.888c3.049-3.48,5.48-7.417,7.228-11.702l12.691-31.128
							c1.433-3.513,3.372-6.787,5.766-9.73l34.674-42.648C304.139,180.558,304.036,179.56,303.358,179.008z"/>
					</g>
				</g>
				<g>
					<g>
						<g>
							<g style="enable-background:new    ;">
								<g>
									<path style="fill:#E08C05;" d="M256.297,250.962l-68.75,81.621l16.339-2.494c2.287-0.349,4.68-1.248,7.067-2.626
										c3.038-1.754,6.065-4.283,8.851-7.442l39.605-48.568c2.819-3.198,3.991-7.78,2.618-10.236L256.297,250.962z"/>
								</g>
								<g>
									<polygon style="fill:#825503;" points="256.297,250.962 210.877,224.566 142.127,306.187 187.547,332.583 									"/>
								</g>
							</g>
						</g>
						<g>
							<g>
								<path style="fill:#F29F05;" d="M186.8,333.868l-45.421-26.396c-0.385-0.224-0.649-0.608-0.72-1.048
									c-0.072-0.44,0.058-0.888,0.352-1.222l68.75-81.621c0.469-0.532,1.249-0.659,1.863-0.302l45.421,26.396
									c0.385,0.224,0.649,0.608,0.72,1.048c0.072,0.44-0.058,0.888-0.352,1.222l-68.75,81.621c-0.29,0.33-0.701,0.503-1.116,0.503
									C187.291,334.07,187.034,334.004,186.8,333.868z M211.185,226.465l-66.744,79.346l42.798,24.872l66.744-79.346
									L211.185,226.465z"/>
							</g>
						</g>
					</g>
					<g>
						<path style="fill:#FBE2B4;" d="M250.155,255.889c-6.931-7.774-34.565-4.927-51.976,3.691
							c-10.054,4.976-19.58,11.329-26.931,19.803c-7.351,8.474-12.433,19.178-12.948,30.384l31.27,18.145L250.155,255.889z"/>
						<path style="fill:#F9D38C;" d="M248.121,254.247c-2.338-1.022-4.686-1.856-6.87-2.321c-1.034-0.176-2.126-0.309-3.264-0.404
							c-9.946-0.146-5.079,5.816-5.456,12.35c-0.377,6.539-11.31,8.164-25.824,13.63c-14.514,5.466,2.124,26.966-12.108,29.789
							c-14.208,2.818-35.215-4.92-34.103-9.229c-1.239,3.787-2.011,7.713-2.195,11.705l31.27,18.145l60.585-72.023
							C249.606,255.273,248.914,254.731,248.121,254.247z"/>
					</g>
				</g>
			</g>
			<g>
				<g>
					<g>
						<path style="fill:#F2CB05;" d="M262.404,150.559c-0.139-7.915,0.349-10.345-1.435-19.454
							c-1.546-7.892-2.665-18.615,3.413-23.268c3.982-3.074,9.573-2.831,13.355-0.647c0,0,20.385,11.741,20.399,11.749
							c11.167,6.453-2.045,34.293-2.938,39.47c-0.709,4.11,1.823,10.306,1.823,10.306c0.927,2.503-11.089,6.333-22.028,5.004
							c-6.603-0.802-12.292-3.069-12.22-6.043C262.926,161.336,262.512,156.713,262.404,150.559z"/>
					</g>
					<path style="fill:#F29F05;" d="M288.463,133.952h13.741c-1.445,9.952-6.466,21.332-7.006,24.457
						c-0.709,4.11,1.823,10.306,1.823,10.306c0.824,2.224-8.574,5.494-18.354,5.262
						C290.079,161.882,290.397,138.304,288.463,133.952z"/>
				</g>
				<path style="fill:#0528F2;" d="M294.803,117.043c-2.254-1.298-10.69,5.344-12.352,23.955
					c-2.004,22.439,12.748,17.411,12.748,17.411l0.635,3.064c0,0,4.866,11.629,3.041,24.052c-0.311,2.12-38.554-1.939-37.694-6.877
					c0.704-4.04,0.48-25.602,0.48-36.202c0-5.081,2.813-34.087,12.241-35.268l1.629,0.816c0,0-8.802,6.877-10.395,36.78
					l11.119,5.173c0,0-0.022-16.633,7.143-28.186c2.437-3.93,6.893-7.33,8.481-6.403L294.803,117.043z"/>
			</g>
			<g>
				<path style="fill:#F5BCAA;" d="M289.931,186.586l-0.704-39.122l12.054-0.063l-5.137,41.57c-0.127,0.468-0.362,0.881-0.661,1.235
					C293.715,191.498,289.456,188.616,289.931,186.586z"/>
				<path style="fill:#F5BCAA;" d="M291.076,196.956c1.92,0.375,4.001-2.006,4.648-5.318c0.647-3.312-0.385-6.301-2.305-6.676
					c-1.92-0.375-4.001,2.006-4.648,5.318S289.156,196.581,291.076,196.956z"/>
				<path style="fill:#F2CB05;" d="M288.17,127.802c0.019-0.185,0.047-0.383,0.083-0.568c0.674-3.532,4.101-11.523,9.884-8.295
					c4.46,2.491,6.391,7.245,5.717,10.778l-2.572,17.684l-12.054,0.063L288.17,127.802z"/>
			</g>
			<g>
				<path style="fill:#ED8768;" d="M279.564,99.429c3.58,0,6.482,1.674,6.482,3.74v12.973c0,2.065-2.902,3.74-6.482,3.74
					c-3.58,0-6.482-1.674-6.482-3.74v-12.973C273.082,101.104,275.984,99.429,279.564,99.429z"/>
				<path style="fill:#F5BCAA;" d="M269.502,96.586c0.091,8.79-2.395,14.406,6.126,14.197c7.675-0.189,14.002-5.28,15.3-12.766
					c1.375-7.929-3.02-13.67-9.822-13.58C274.918,84.519,269.412,87.806,269.502,96.586z"/>
				<path style="fill:#012E40;" d="M286.046,111.41l0.4-2.984c0,0,9.939-6.348,5.824-16.876c-4.315-11.042-17.539-8.447-20.88-3.822
					c-2.419,3.349-1.656,5.741-1.656,5.741l0.48-1.94c0,0,1.255,4.006,9.991,1.507c3.055-0.874,3.954-0.176,3.956,1.126
					c0.003,1.855-2.541,4.545-1.817,6.448c1.276,3.352,3.235-1.181,4.763-1.181c1.91,0,1.515,3.222,0.208,4.866
					c-1.307,1.644-1.966,4.233-1.966,4.233L286.046,111.41z"/>
				<path style="fill:#ED8768;" d="M288.436,101.129c0,1.548-0.891,3.317-1.989,3.951c-1.099,0.634-1.989-0.106-1.989-1.654
					c0-1.548,0.891-3.317,1.989-3.951C287.545,98.84,288.436,99.581,288.436,101.129z"/>
			</g>
			<g>
				<path style="fill:#F29F05;" d="M293.268,92.901c4.703,1.843,4.037,7.013-10.923,7.709c-15.198,0.707-24.548-5.798-14.6-8.658
					L293.268,92.901z"/>
				<path style="fill:#F2CB05;" d="M294.986,94.318c0.011,0.98-0.508,1.894-1.371,2.358c-1.639,0.881-4.811,1.858-9.356,2.238
					c-6.156,0.515-17.51-1.331-16.899-4.568c0,0,1.099-15.662,15.167-14.017C293.697,81.636,294.945,90.658,294.986,94.318z"/>
				<path style="fill:#F2E205;" d="M270.305,97.163c-0.09-5.634,2.121-10.934,6.453-13.772c3.776-2.474,10.86-2.423,12.96-0.471
					l1.028,0.836c0,0-1.14-3.651-8.759-4.398c-7.619-0.747-14.776,3.909-15.238,15.611c0,0-0.172,1.186,3.579,2.519
					c0,0,0.2,0.107,0.491-0.137L270.305,97.163z"/>
			</g>
		</g>
		<g>
			<g>
				<g style="enable-background:new    ;">
					<g>
						<path style="fill:#BA4A2B;" d="M119.932,346.053c2.106,1.216,2.112,3.184,0.025,4.396l-8.824,5.128
							c-2.087,1.213-5.484,1.216-7.59,0l-23.787-13.733c-2.106-1.216-2.112-3.183-0.025-4.396l8.824-5.128
							c2.087-1.213,5.484-1.216,7.59,0L119.932,346.053z"/>
					</g>
					<path style="fill:#903B22;" d="M119.97,350.449l-8.824,5.128c-2.087,1.213-5.484,1.216-7.59,0l-23.787-13.733
						c-1.059-0.611-1.587-1.413-1.585-2.213l-0.027,9.556c-0.002,0.8,0.526,1.602,1.585,2.213l23.787,13.733
						c2.106,1.216,5.503,1.213,7.59,0l8.824-5.128c1.037-0.603,1.558-1.392,1.56-2.183l0.027-9.556
						C121.528,349.057,121.008,349.846,119.97,350.449z"/>
				</g>
			</g>
			<g>
				<g style="enable-background:new    ;">
					<g>
						<path style="fill:#BA4A2B;" d="M121.257,370.836c2.106,1.216,2.112,3.184,0.025,4.396l-8.824,5.128
							c-2.087,1.213-5.484,1.216-7.59,0L81.08,366.627c-2.106-1.216-2.112-3.184-0.025-4.396l8.824-5.128
							c2.087-1.213,5.484-1.216,7.59,0L121.257,370.836z"/>
					</g>
					<path style="fill:#903B22;" d="M121.295,375.232l-8.824,5.128c-2.087,1.213-5.484,1.216-7.59,0l-23.787-13.733
						c-1.059-0.612-1.587-1.413-1.585-2.213l-0.027,9.556c-0.002,0.8,0.526,1.602,1.585,2.213l23.787,13.733
						c2.106,1.216,5.503,1.213,7.59,0l8.824-5.128c1.037-0.603,1.558-1.392,1.56-2.183l0.027-9.556
						C122.853,373.84,122.332,374.629,121.295,375.232z"/>
				</g>
			</g>
			<g>
				<g style="enable-background:new    ;">
					<g>
						<path style="fill:#BA4A2B;" d="M115.744,392.993c2.106,1.216,2.112,3.183,0.025,4.396l-8.824,5.128
							c-2.087,1.213-5.484,1.216-7.59,0l-23.787-13.733c-2.106-1.216-2.112-3.183-0.025-4.396l8.824-5.128
							c2.087-1.213,5.484-1.216,7.59,0L115.744,392.993z"/>
					</g>
					<path style="fill:#903B22;" d="M115.783,397.389l-8.824,5.128c-2.087,1.213-5.484,1.216-7.59,0l-23.787-13.733
						c-1.059-0.611-1.587-1.413-1.585-2.213l-0.027,9.556c-0.002,0.8,0.526,1.602,1.585,2.213l23.787,13.733
						c2.106,1.216,5.503,1.213,7.59,0l8.824-5.128c1.037-0.603,1.558-1.392,1.56-2.183l0.027-9.556
						C117.34,395.997,116.82,396.787,115.783,397.389z"/>
				</g>
			</g>
			<g>
				<g style="enable-background:new    ;">
					<g>
						<path style="fill:#BA4A2B;" d="M164.616,396.809c2.106,1.216,2.112,3.183,0.025,4.396l-8.824,5.128
							c-2.087,1.213-5.484,1.216-7.59,0L124.44,392.6c-2.106-1.216-2.112-3.183-0.025-4.396l8.824-5.128
							c2.087-1.213,5.484-1.216,7.59,0L164.616,396.809z"/>
					</g>
					<path style="fill:#903B22;" d="M164.654,401.205l-8.824,5.128c-2.087,1.213-5.484,1.216-7.59,0L124.453,392.6
						c-1.059-0.611-1.587-1.413-1.585-2.213l-0.027,9.556c-0.002,0.8,0.526,1.602,1.585,2.213l23.787,13.733
						c2.106,1.216,5.503,1.213,7.59,0l8.824-5.128c1.038-0.603,1.558-1.392,1.56-2.183l0.027-9.556
						C166.212,399.813,165.692,400.602,164.654,401.205z"/>
				</g>
			</g>
			<g>
				<g style="enable-background:new    ;">
					<g>
						<path style="fill:#BA4A2B;" d="M145.693,376.922c2.106,1.216,2.112,3.184,0.025,4.396l-8.824,5.128
							c-2.087,1.213-5.484,1.216-7.59,0l-23.787-13.733c-2.106-1.216-2.112-3.184-0.025-4.396l8.824-5.128
							c2.087-1.213,5.484-1.216,7.59,0L145.693,376.922z"/>
					</g>
					<path style="fill:#903B22;" d="M145.731,381.319l-8.824,5.128c-2.087,1.213-5.484,1.216-7.59,0l-23.787-13.733
						c-1.059-0.611-1.587-1.413-1.585-2.213l-0.027,9.556c-0.002,0.8,0.526,1.602,1.585,2.213l23.787,13.733
						c2.106,1.216,5.503,1.213,7.59,0l8.824-5.128c1.037-0.603,1.558-1.392,1.56-2.183l0.027-9.556
						C147.289,379.926,146.769,380.716,145.731,381.319z"/>
				</g>
			</g>
		</g>
		<g>
			<g>
				<g>
					<g>
						<g>
							<path style="fill:#EDC6BC;" d="M418.194,321.337l-5.426-6.189l-6.16,6.285l6.96,7.319
								C413.569,328.752,422.608,325.843,418.194,321.337z"/>
							<path style="fill:#012E40;" d="M418.904,321.119c2.083,1.663,4.915,2.792,5.544,4.966c0.367,2.209-2.443,4.423-3.443,7.064
								c-1.618,4.271-2.15,9.993-6.908,11.712c-3.704,1.339-5.651-0.887-5.887-2.751c-0.217-1.712,0.952-3.483,2.533-5.75
								c1.528-2.192,0.681-3.918,0.977-5.679c0.315-1.878,0.51-2.55-0.328-3.635c-1.514-1.959,2.676-4.547,5.229-1.896
								c2.464,0.091,3.404-1.672,1.466-3.648C418.16,321.01,418.904,321.119,418.904,321.119z"/>
						</g>
						<path style="fill:#012E40;" d="M386.656,227.49c-0.3,6.822-2.331,16.024-2.331,16.024
							c-3.821,17.502-9.353,47.415-6.905,52.412c2.925,5.283,6.921,7.152,9.936,9.347c7.811,5.687,18.375,17.069,24.362,25.407
							c3.037,2.806,10.015-8.166,7.69-10.387c-12.53-11.967-9.351-15.666-15.695-22.051c-4.988-5.021-9.516-5.843-9.516-8.592
							c0-5.402,15.128-38.698,15.128-38.698s-10.482-20.479-14.505-20.882C387.923,229.378,386.656,227.49,386.656,227.49z"/>
						<path style="fill:#012E40;" d="M393.402,246.768h13.688c1.35,2.456,2.235,4.183,2.235,4.183s-15.128,33.296-15.128,38.698
							c0,2.749,4.527,3.571,9.516,8.592c6.344,6.385,3.165,10.084,15.695,22.051c2.325,2.221-4.653,13.193-7.69,10.387
							c-3.429-4.775-8.359-10.545-13.414-15.675c-0.401-8.06-3.97-10.609-6.973-14.731c-3.186-4.373-3.784-6.56-2.417-12.983
							C390.281,280.868,395.065,255.312,393.402,246.768z"/>
					</g>
					<g>
						<g>
							<path style="fill:#EDC6BC;" d="M409.076,352.792l0.951-5.225l-8.235-0.54l-0.357,5.442
								C401.435,352.468,408.052,356.012,409.076,352.792z"/>
							<path style="fill:#012E40;" d="M409.969,352.956c-0.051,0.709,0.253,3.236,0.358,4.239c0.216,2.055-1.366,3.402-4.347,4.621
								c-3.375,1.38-4.83,2.995-6.82,4.513c-2.307,1.76-5.566,2.146-8.126,1.41c-3.129-0.899-3.523-3.963-2.668-5.245
								c1.459-2.189,5.216-3.533,7.695-5.637c1.725-1.463,2.151-1.921,3.819-3.583c0.838-1.493,0.658-2.221,1.508-2.783
								c0.774-0.511,3.779-0.11,5.713,3.029c0.259,0.696,2.142,0.107,2.379-0.682l0.152-0.537
								C409.802,352.347,410.001,352.52,409.969,352.956z"/>
						</g>
						<path style="fill:#012E40;" d="M417.803,225.195c5.095,9.643,5.525,16.524,3.273,27.812
							c-1.796,8.998-11.049,31.471-7.951,47.675c0.576,3.518,4.696,8.633,0.865,27.081c-3.686,17.751-2.869,19.961-3.477,25.557
							c-0.35,3.222-10.993,1.781-11.045-0.625c0.241-4.276,2.061-39.643,0.756-45.185c-4.318-18.334-1.618-42.602-2.816-56.754
							c0,0-0.029-2.042-4.005-3.988c0,0-1.575-1.171,1.375-16.707C394.777,230.062,416.893,231.431,417.803,225.195"/>
					</g>
				</g>
				<path style="fill:#941B80;" d="M419.28,251.25"/>
				<g>
					<g>
						<path style="fill:#1A4353;" d="M366.554,220.185l14.603-18.659l5.169-25.883c0.022-0.189,0.053-0.39,0.093-0.58
							c0.719-3.463,4.109-5.687,7.573-4.968c3.463,0.719,5.687,4.11,4.968,7.573l-8.27,28.555l-0.109,0.533
							c-0.38,1.812-1.85,3.282-3.788,3.571l-15.628,14.295c-1.174,1.079-2.995,1.14-4.241,0.082
							C365.573,223.557,365.408,221.534,366.554,220.185z"/>
						<path style="fill:#012E40;" d="M368.467,225.417c3.058-3.264,6.072-7.348,9.677-11.674c4.394-5.274,4.807-11.282,3.013-12.218
							l5.169-25.883c0.022-0.189,0.053-0.39,0.093-0.58c0.719-3.463,4.109-5.687,7.573-4.968c3.463,0.719,5.687,4.11,4.968,7.573
							l-8.27,28.555l-0.109,0.533c-0.38,1.812-1.85,3.282-3.788,3.571l-15.628,14.295c-0.12,0.11-0.25,0.202-0.382,0.291
							c-0.272,0.132-0.532,0.259-0.779,0.379C369.508,225.454,368.982,225.503,368.467,225.417z"/>
						<path style="fill:#F5BCAA;" d="M364.451,226.269c1.307,1.412,4.341,0.729,6.777-1.526c2.436-2.255,3.35-5.227,2.043-6.639
							c-1.307-1.412-4.341-0.729-6.777,1.526C364.059,221.885,363.144,224.857,364.451,226.269z"/>
					</g>
					<g>
						<path style="fill:#FFFFFF;" d="M386.185,212.626c-0.137-7.784,0.343-10.174-1.411-19.133
							c-1.52-7.762-2.621-18.308,3.357-22.885c3.916-3.023,9.415-2.784,13.135-0.636c0,0,20.049,11.547,20.063,11.555
							c10.983,6.346-2.011,33.728-2.89,38.819c-0.698,4.042,1.793,10.136,1.793,10.136c0.912,2.461-10.906,6.229-21.664,4.922
							c-6.495-0.789-12.089-3.019-12.019-5.943C386.698,223.224,386.291,218.678,386.185,212.626z"/>
					</g>
					<g>
						<path style="fill:#1A4353;" d="M396.687,174.625c-5.716,4.54-6.642,13.114-5.333,25.363
							c0.959,8.973,1.092,10.324,1.092,10.324s0,38.074,0,40.846c0,2.773-8.665,1.957-10.472-3.408c0,0,4.021-16.834,3.868-23.877
							c-0.153-7.043,0.775-20.018-0.381-26.5c-1.156-6.482-2.549-10.4-1.887-16.983c0.661-6.584,2.81-10.15,8.741-12.042h4.373
							V174.625z"/>
						<path style="fill:#1A4353;" d="M409.437,175.843c3.428,3.317,1.196,10.499-6.375,16.464
							c-7.571,5.965-10.45,10.192-10.748,20.477c-0.298,10.285-0.449,37.27,0,40.078c1.088,6.8,24.754,6.462,29.835-0.338
							c0,0,0.919-2.578,1.74-7.004c1.826-9.847-4.498-22.006-4.349-24.853c0.15-2.846,7.49-20.597,6.741-29.061
							c-0.749-8.464-3.036-8.974-6.932-11.218c-3.896-2.244-9.912-5.762-9.912-5.762V175.843z"/>
						<path style="fill:#012E40;" d="M407.678,244.487c4.704-10.047,8.851-37.583,4.674-46.983h13.544
							c-1.481,8.981-6.236,20.876-6.356,23.162c-0.15,2.846,5.752,14.115,4.348,24.852c-0.583,4.463-1.74,7.004-1.74,7.004
							c-2.864,3.833-11.633,5.612-18.935,5.218C403.718,254.512,404.977,250.256,407.678,244.487z"/>
					</g>
					<g>
						<path style="fill:#1A4353;" d="M400.844,236.936l20.292-17.43l-8.976-25.959c-0.032-0.18-0.059-0.374-0.076-0.56
							c-0.32-3.522,1.616-9.719,8.084-10.491c3.512-0.419,6.637,2.275,6.957,5.797l4.402,32.462l0.048,0.52
							c0.14,1.585-0.566,3.195-1.982,4.14l-24.881,16.615c-1.329,0.889-3.143,0.666-4.21-0.577
							C399.348,240.112,399.501,238.089,400.844,236.936z"/>
						<path style="fill:#F5BCAA;" d="M395.276,243.693c1.027,1.627,4.135,1.509,6.941-0.264c2.806-1.773,4.248-4.528,3.22-6.155
							c-1.027-1.627-4.135-1.509-6.941,0.264C395.69,239.311,394.248,242.066,395.276,243.693z"/>
					</g>
				</g>
				<g>
					<path style="fill:#D9E0E2;" d="M371.035,177.192c0.256,1.562-1.729,3.186-4.432,3.629c-2.704,0.443-5.103-0.464-5.359-2.026
						c-0.256-1.562,1.729-3.186,4.433-3.629C368.381,174.724,370.78,175.631,371.035,177.192z"/>
					<path style="fill:#F2F5F5;" d="M361.244,178.796c0.256,1.561,2.655,2.469,5.359,2.026c2.704-0.443,4.688-2.068,4.432-3.629
						l12.516,76.432c0.256,1.562-1.729,3.186-4.432,3.629c-2.704,0.443-5.103-0.464-5.359-2.026L361.244,178.796z"/>
				</g>
				<g>
					<path style="fill:#ED8768;" d="M403.062,162.339c3.521,0,6.375,1.647,6.375,3.678v12.759c0,2.031-2.854,3.678-6.375,3.678
						c-3.521,0-6.375-1.646-6.375-3.678v-12.759C396.687,163.986,399.541,162.339,403.062,162.339z"/>
					<path style="fill:#F5BCAA;" d="M389.436,165.332c2.776,8.188,2.173,14.198,10.072,11.393
						c7.115-2.526,11.47-9.222,10.391-16.616c-1.142-7.832-7.008-11.852-13.338-9.684
						C390.803,152.396,386.663,157.154,389.436,165.332z"/>
					<path style="fill:#012E40;" d="M409.437,174.122v-2.953c0,0,4.845-7.759,0.134-16.234c0,0-2.679-7.089-8.019-6.146
						c-1.43,0.252-6.398,2.141-9.737,3.19c-3.429,1.077-6.634,6.792-3.24,9.176l-0.021-0.766c0,0,3.875,0.9,10.235-2.326
						c0,0,2.649,0.271,3.542,5.627c0.893,5.356,2.54,0.53,3.817-0.687c1.277-1.217,3.36,1.703,1.451,6.323
						C407.598,169.326,406.722,172.265,409.437,174.122z"/>
					<path style="fill:#ED8768;" d="M408.522,163.781c0.474,1.447,0.183,3.373-0.65,4.302c-0.833,0.929-1.892,0.51-2.366-0.937
						c-0.474-1.447-0.183-3.373,0.65-4.302C406.989,161.915,408.048,162.335,408.522,163.781z"/>
				</g>
			</g>
			<g>
				<path style="fill:#F29F05;" d="M411.453,155.34c4.892,0.864,5.254,5.978-9.035,9.554c-14.516,3.633-24.794-0.824-15.758-5.513
					L411.453,155.34z"/>
				<path style="fill:#F2CB05;" d="M413.384,156.374c0.201,0.943-0.122,1.924-0.864,2.54c-1.409,1.168-4.278,2.725-8.586,3.974
					c-5.835,1.692-17.14,2.116-17.18-1.123c0,0-1.981-15.314,11.902-16.459C409.679,144.396,412.634,152.852,413.384,156.374z"/>
				<path style="fill:#F2E205;" d="M390.14,163.909c-1.18-5.414-0.078-10.954,3.548-14.532c3.161-3.119,10.001-4.444,12.404-2.97
					l1.153,0.606c0,0-1.808-3.299-9.299-2.54c-7.491,0.759-13.487,6.637-11.66,18.01c0,0,0.064,1.177,3.94,1.734
					c0,0,0.214,0.064,0.446-0.227L390.14,163.909z"/>
			</g>
		</g>
		<g>
			<g>
				<g>
					<g>
						<polygon style="fill:#69848E;" points="339.516,247.282 339.516,333.22 334.588,336.065 334.588,250.127 						"/>
						<polygon style="fill:#D9E0E2;" points="329.659,247.282 329.659,333.22 334.588,336.065 334.588,250.127 						"/>
					</g>
				</g>
				<g>
					<polygon style="fill:#69848E;" points="407.786,286.398 407.786,372.336 402.858,375.181 402.858,289.243 					"/>
					<polygon style="fill:#D9E0E2;" points="397.929,286.398 397.929,372.336 402.858,375.181 402.858,289.243 					"/>
				</g>
				<g>
					<polygon style="fill:#69848E;" points="236.65,306.554 236.65,392.492 231.721,395.337 231.721,309.399 					"/>
					<polygon style="fill:#D9E0E2;" points="226.793,306.554 226.793,392.492 231.721,395.337 231.721,309.399 					"/>
				</g>
				<g>
					<g>
						<polygon style="fill:#D9E0E2;" points="226.793,317.79 299.991,359.752 299.991,348.515 226.793,306.554 						"/>
						<polygon style="fill:#69848E;" points="299.991,348.515 299.991,359.752 407.786,297.634 407.786,286.398 						"/>
						<polygon style="fill:#F2F5F5;" points="226.793,306.554 299.991,348.515 407.786,286.398 334.588,244.436 						"/>
						<polygon style="fill:#FFFFFF;" points="245.505,304.47 303.568,337.755 389.074,288.482 331.011,255.197 						"/>
					</g>
				</g>
				<g>
					<polygon style="fill:#69848E;" points="304.92,345.67 304.92,431.608 299.991,434.453 299.991,348.515 					"/>
					<polygon style="fill:#D9E0E2;" points="295.063,345.67 295.063,431.608 299.991,434.453 299.991,348.515 					"/>
				</g>
			</g>
			<g>
				<g>
					<g>
						<path style="fill:#012E40;" d="M399.684,414.89c1.784,0.828,1.636,6.172,0.972,7.931c-0.794,2.101-5.999,2.27-7.716,0.577
							c-2.947-2.906-4.008-3.112-7.921-4.526c-4.381-1.583-4.429-7.75-2.91-9.052c2.263-1.94,8.516,0.164,10.911,2.101
							C394.044,412.749,399.684,414.89,399.684,414.89z"/>
						<path style="fill:#EDC6BC;" d="M392.464,408.142c0,1.336,0.055,6.102,0.055,7.411c0,1.094,1.4,2.124,2.505,1.924
							c0.876-0.22,1.686-0.536,2.34-1.246c0.575-0.625,1.963-0.976,2.472-0.65c0.173-2.659,0.391-5.373,0.635-8.101
							C398.074,409.439,394.582,409.327,392.464,408.142z"/>
					</g>
					<g>
						<path style="fill:#012E40;" d="M382.958,423.45c1.835,0.852,1.683,6.349,1,8.158c-0.817,2.162-6.171,2.335-7.937,0.594
							c-3.032-2.989-5.229-3.579-9.255-5.033c-4.507-1.628-4.556-7.972-2.993-9.312c2.328-1.995,9.867,0.546,12.331,2.539
							C377.157,421.247,382.958,423.45,382.958,423.45z"/>
						<path style="fill:#EDC6BC;" d="M375.779,416.979c0,1.336,0.055,6.102,0.055,7.411c0,1.094,1.4,2.124,2.505,1.924
							c0.876-0.22,1.686-0.536,2.34-1.246c0.575-0.625,1.963-0.976,2.472-0.65c0.173-2.659,0.391-5.373,0.635-8.101
							C381.39,418.276,377.898,418.164,375.779,416.979z"/>
					</g>
					<g>
						<path style="fill:#1A4353;" d="M378.996,294.083c-1.717,18.949,0.206,31.19,7.145,67.138c1.43,7.411,5.369,47.82,5.369,52.841
							s9.812,4.924,9.812,0.506s0-12.754,0-22.866s3.83-19.327-2.062-30.872c-4.948-9.696,3.18-40.956,4.98-51.417
							c1.526-8.867-0.366-16.546-6.139-22.316C398.101,287.098,393.89,293.125,378.996,294.083z"/>
						<path style="fill:#012E40;" d="M392.467,354.773c-1.306-11.046-1.358-27.768-0.031-39.386l-12.906,0.544
							c1.45,10.988,2.495,23.969,6.611,45.291c1.43,7.411,5.369,47.82,5.369,52.841c0,1.767,1.217,2.898,2.792,3.432
							c-0.098-28.311-3.684-36.372-4.38-46.804C389.216,360.114,393.096,360.096,392.467,354.773z"/>
						<path style="fill:#1A4353;" d="M366.901,294.083c-2.848,27.017-4.669,38.806,2.029,77.117c1.3,7.435,5.369,47.82,5.369,52.841
							s9.812,4.924,9.812,0.506c0-4.419,0-12.754,0-22.866c0-10.112,3.83-19.328-2.061-30.872
							c-4.948-9.696,9.089-47.468,10.889-57.929c1.526-8.867-0.603-13.883-3.191-20.579
							C389.748,292.3,377.934,295.796,366.901,294.083z"/>
					</g>
				</g>
				<g>
					<path style="fill:#012E40;" d="M381.608,282.435l-0.06-0.499l-3.894-32.434c-0.022-0.18-0.053-0.374-0.091-0.555
						c-0.735-3.515-4.18-5.769-7.695-5.035c-3.515,0.735-5.769,4.18-5.035,7.695l4.982,23.84l-22.983-6.89
						c-1.566-0.471-3.27,0.3-3.927,1.84c-0.705,1.653,0.063,3.564,1.716,4.269l30.181,12.874c0.761,0.322,1.634,0.465,2.513,0.359
						C380.009,287.576,381.931,285.129,381.608,282.435z"/>
					<path style="fill:#ED8768;" d="M346.878,272.071c-0.698,1.825-3.816,2.328-6.964,1.123c-3.148-1.205-5.133-3.66-4.435-5.485
						c0.698-1.825,3.816-2.328,6.964-1.123C345.591,267.79,347.576,270.246,346.878,272.071z"/>
				</g>
				<g>
					<g>
						<path style="fill:#1A4353;" d="M397.93,285.432c-10.595-10.362-11.691-32.745-21.704-40.103
							c-3.548-2.607-8.991-1.873-14.446,1.732c0,0-17.127,11.079-17.141,11.088c-9.21,6,3.983,27.977,17.109,43.902
							c2.194,2.662,2.587,6.556,2.102,12.762c0.2,2.452,1.855,2.968,2.523,3.345c4.247,2.147,2.363-6.547,2.363-6.547
							c1.967,4.587,8.118,13.942,27.865,1.366c6.879-4.381,9.329-7.305,9.401-9.289C406.239,297.116,402.679,290.077,397.93,285.432
							z"/>
					</g>
					<path style="fill:#012E40;" d="M352.58,276.751h-7.585c3.813,8.148,10.288,17.457,16.753,25.3
						c2.194,2.662,2.587,6.556,2.102,12.762c0.2,2.452,1.855,2.968,2.523,3.345c2.96,1.496,2.941-2.273,2.658-4.695
						c-0.025-0.204-0.233-1.555-0.296-1.852c-1.158-5.488-0.843-7.402-3.901-12.318C361.704,294.26,353.068,282.468,352.58,276.751z
						"/>
				</g>
				<g>
					<path style="fill:#1A4353;" d="M349.169,258.003c-3.63-0.893-7.297,1.326-8.19,4.956l-16.704,64.394
						c-0.667,1.496,5.868,4.478,6.774,2.927c0,0,17.415-38.484,23.499-59.901C356.171,264.662,352.799,258.896,349.169,258.003z"/>
					<path style="fill:#F5BCAA;" d="M331.311,326.852c1.098,1.616-0.273,4.462-3.061,6.355c-2.788,1.894-5.938,2.118-7.036,0.502
						c-1.098-1.617,0.273-4.462,3.061-6.355C327.063,325.46,330.213,325.235,331.311,326.852z"/>
				</g>
				<g>
					<path style="fill:#ED8768;" d="M353.514,240.267c-3.173,1.647-3.394,7.329-2.443,9.16l1.427,3.793
						c0.685,1.946,3.975,2.56,7.347,1.372c3.372-1.188,5.55-3.728,4.865-5.674l-3.728-8.318
						C360.03,238.769,356.687,238.62,353.514,240.267z"/>
					<path style="fill:#F5BCAA;" d="M361.843,232.616c1.774,7.378-2.873,15.368-8.539,17.835c-5.666,2.468-8.303-0.455-11.98-8.899
						c-3.03-6.957-2.361-12.727,5.008-16.527C351.825,222.193,359.859,224.361,361.843,232.616z"/>
					<path style="fill:#ED8768;" d="M347.046,243.197c0.617,1.417,2.138,2.682,3.397,2.825s1.779-0.891,1.162-2.308
						c-0.617-1.417-2.138-2.682-3.397-2.825S346.428,241.78,347.046,243.197z"/>
					<path style="fill:#012E40;" d="M340.267,229.553c-3.108,6.393,1.48,10.902,6,10.813c4.52-0.089,6.53,3.408,5.673,6.794
						c-0.596,2.353,1.936,5.751,9.055,1.401c6.853-4.186,1.321-3.539,1.231-7.122c-0.083-3.306,2.608-10.386-3.285-15.698
						C352.813,220.217,342.422,225.121,340.267,229.553z"/>
					<g>
						<path style="fill:#F29F05;" d="M336.247,232.069c-4.907,1.198-4.938,6.41,9.795,9.101c14.967,2.733,25.103-2.464,15.627-6.629
							L336.247,232.069z"/>
						<path style="fill:#F2CB05;" d="M336.083,233.477c-0.142,0.97,0.25,1.945,1.044,2.52c1.507,1.093,4.519,2.484,8.973,3.469
							c6.032,1.333,17.53,1.022,17.358-2.268c0,0,1.005-15.668-13.156-15.919C339.056,221.081,336.612,229.855,336.083,233.477z"/>
						<path style="fill:#F2E205;" d="M360.162,239.597c0.842-5.571-0.64-11.119-4.553-14.512
							c-3.412-2.957-10.439-3.853-12.781-2.199l-1.13,0.691c0,0,1.618-3.466,9.268-3.188c7.65,0.279,14.12,5.849,13.013,17.509
							c0,0,0.012,1.199-3.884,2.018c0,0-0.213,0.079-0.468-0.201L360.162,239.597z"/>
					</g>
				</g>
			</g>
			<g>
				<g>
					<g>
						<path style="fill:#0528F2;" d="M241.941,304.76c-0.576,0-1.081-0.368-1.258-0.916l-7.391-22.961
							c-0.27-0.84,0.088-1.77,0.852-2.211l29.074-16.786c0.201-0.116,0.429-0.177,0.659-0.177c0.576,0,1.081,0.368,1.258,0.916
							l7.391,22.961c0.27,0.84-0.088,1.77-0.852,2.211L242.6,304.583C242.399,304.699,242.171,304.76,241.941,304.76z"/>
						<path style="fill:#021E73;" d="M241.043,303.728l-7.391-22.961c-0.218-0.676,0.066-1.413,0.682-1.769l29.074-16.786
							c0.52-0.3,1.185-0.044,1.369,0.528l7.391,22.961c0.218,0.677-0.066,1.413-0.682,1.769l-29.074,16.786
							C241.891,304.556,241.227,304.3,241.043,303.728z"/>
						<g>
							<polygon style="fill:#2B2634;" points="242.113,302.805 234.873,280.31 263.706,263.663 270.947,286.158 							"/>
							<polygon style="fill:#E6EAEC;" points="270.833,286.108 242.164,302.66 234.986,280.361 263.655,263.809 							"/>
						</g>
					</g>
				</g>
				<path style="fill:#0528F2;" d="M294.026,299.803l-29.665,17.127c-0.798,0.461-1.782,0.461-2.58,0l-20.003-11.549
					c-0.497-0.287-0.497-1.004,0-1.291l29.666-17.127c0.798-0.461,1.782-0.461,2.58,0l20.003,11.549
					C294.523,298.799,294.523,299.516,294.026,299.803z"/>
				<g>
					<g>
						<path style="fill:#021E73;" d="M262.956,306.719c1.79-1.127,3.59-2.234,5.406-3.316l5.465-3.214l1.377-0.784l0.689-0.392
							c0.207-0.117,0.49-0.312,0.822-0.312c0.317-0.029,0.646,0.151,0.844,0.28l0.684,0.401l1.362,0.811
							c1.815,1.082,3.616,2.189,5.406,3.317c-1.871-0.986-3.73-1.992-5.575-3.023l-1.383-0.774l-0.689-0.392
							c-0.245-0.148-0.407-0.231-0.632-0.218c-0.214,0-0.387,0.124-0.632,0.267l-0.684,0.4l-1.368,0.801l-5.516,3.125
							C266.686,304.727,264.827,305.732,262.956,306.719z"/>
					</g>
					<g>
						<path style="fill:#5068F6;" d="M285.009,304.197c-1.79,1.127-3.591,2.234-5.406,3.316l-5.465,3.214l-1.377,0.784l-0.689,0.392
							c-0.207,0.117-0.49,0.312-0.822,0.312c-0.317,0.029-0.646-0.151-0.844-0.28l-0.684-0.401l-1.362-0.811
							c-1.815-1.082-3.616-2.189-5.406-3.317c1.871,0.986,3.73,1.992,5.575,3.023l1.383,0.774l0.689,0.392
							c0.245,0.148,0.407,0.231,0.631,0.218c0.214,0,0.387-0.124,0.632-0.267l0.684-0.401l1.368-0.801l5.516-3.125
							C281.279,306.189,283.139,305.183,285.009,304.197z"/>
					</g>
				</g>
				<g>
					<path style="fill:#021E73;" d="M294.399,299.16c-0.001,0.25-0.125,0.5-0.372,0.643l-29.665,17.127
						c-0.798,0.461-1.782,0.461-2.58,0l-20.003-11.549c-0.235-0.136-0.358-0.368-0.37-0.605h-0.003l0.001,1.108
						c0.005,0.245,0.129,0.488,0.372,0.629l20.003,11.549c0.798,0.461,1.782,0.461,2.58,0l29.665-17.127
						c0.268-0.155,0.39-0.434,0.369-0.703L294.399,299.16z"/>
					<path style="fill:#021E73;" d="M281.024,306.872l-4.591,2.651c-0.181,0.105-0.158,0.288,0.051,0.408
						c0,0.252,0.273,0.41,0.492,0.284l4.305-2.485c0.279-0.161,0.452-0.46,0.452-0.782v-0.046
						C281.522,306.781,281.205,306.767,281.024,306.872z"/>
					<linearGradient id="SVGID_1_" gradientUnits="userSpaceOnUse" x1="259.8431" y1="333.694" x2="296.9996" y2="296.5376">
						<stop  offset="0" style="stop-color:#7C8BC5"/>
						<stop  offset="0.0091" style="stop-color:#7C8AC4"/>
						<stop  offset="0.28" style="stop-color:#6E70A4"/>
						<stop  offset="0.5413" style="stop-color:#655D8D"/>
						<stop  offset="0.7867" style="stop-color:#5F527F"/>
						<stop  offset="1" style="stop-color:#5D4E7A"/>
					</linearGradient>
					<path style="fill:url(#SVGID_1_);" d="M294.399,299.156l0-0.033h-0.002C294.397,299.134,294.399,299.145,294.399,299.156z"/>
				</g>
				<g>
					<g>
						<path style="fill:#021E73;" d="M247.319,304.904l-1.372,0.792c-0.113,0.065-0.31,0.057-0.44-0.018l-1.217-0.703
							c-0.13-0.075-0.145-0.189-0.032-0.254l1.372-0.792c0.113-0.065,0.31-0.057,0.44,0.018l1.217,0.703
							C247.417,304.725,247.431,304.839,247.319,304.904z M249.254,303.514l-1.217-0.703c-0.13-0.075-0.327-0.083-0.44-0.018
							l-1.372,0.792c-0.113,0.065-0.099,0.179,0.032,0.254l1.217,0.703c0.13,0.075,0.327,0.083,0.44,0.018l1.372-0.792
							C249.398,303.703,249.384,303.59,249.254,303.514z M251.221,302.379l-1.217-0.703c-0.13-0.075-0.327-0.083-0.44-0.018
							l-1.372,0.792c-0.113,0.065-0.099,0.179,0.032,0.254l1.217,0.703c0.13,0.075,0.327,0.083,0.44,0.018l1.372-0.792
							C251.365,302.568,251.351,302.454,251.221,302.379z M253.188,301.243l-1.217-0.703c-0.13-0.075-0.327-0.083-0.44-0.018
							l-1.372,0.792c-0.113,0.065-0.099,0.179,0.032,0.254l1.217,0.703c0.13,0.075,0.327,0.083,0.44,0.018l1.372-0.792
							C253.332,301.432,253.318,301.318,253.188,301.243z M255.154,300.108l-1.217-0.703c-0.13-0.075-0.327-0.083-0.44-0.018
							l-1.372,0.792c-0.113,0.065-0.099,0.179,0.032,0.254l1.217,0.703c0.13,0.075,0.327,0.083,0.44,0.018l1.372-0.792
							C255.299,300.297,255.285,300.183,255.154,300.108z M257.121,298.972l-1.217-0.703c-0.13-0.075-0.327-0.083-0.44-0.018
							l-1.372,0.792c-0.113,0.065-0.099,0.179,0.032,0.254L255.34,300c0.13,0.075,0.327,0.083,0.44,0.018l1.372-0.792
							C257.266,299.161,257.251,299.047,257.121,298.972z M259.088,297.836l-1.217-0.703c-0.13-0.075-0.327-0.083-0.44-0.018
							l-1.372,0.792c-0.113,0.065-0.099,0.179,0.032,0.254l1.217,0.703c0.13,0.075,0.327,0.083,0.44,0.018l1.372-0.792
							C259.232,298.026,259.218,297.912,259.088,297.836z M261.055,296.701l-1.217-0.703c-0.13-0.075-0.327-0.083-0.44-0.018
							l-1.372,0.792c-0.113,0.065-0.099,0.179,0.032,0.254l1.217,0.703c0.13,0.075,0.327,0.083,0.44,0.018l1.372-0.792
							C261.199,296.89,261.185,296.776,261.055,296.701z M263.022,295.565l-1.217-0.703c-0.13-0.075-0.327-0.083-0.44-0.018
							l-1.372,0.792c-0.113,0.065-0.099,0.179,0.032,0.254l1.217,0.703c0.13,0.075,0.327,0.083,0.44,0.018l1.372-0.792
							C263.166,295.754,263.152,295.641,263.022,295.565z M264.989,294.43l-1.217-0.703c-0.13-0.075-0.327-0.083-0.44-0.018
							l-1.372,0.792c-0.113,0.065-0.099,0.179,0.032,0.254l1.217,0.703c0.13,0.075,0.327,0.083,0.44,0.018l1.372-0.792
							C265.133,294.619,265.119,294.505,264.989,294.43z M266.955,293.294l-1.217-0.703c-0.13-0.075-0.327-0.083-0.44-0.018
							l-1.372,0.792c-0.113,0.065-0.099,0.179,0.032,0.254l1.217,0.703c0.13,0.075,0.327,0.083,0.44,0.018l1.372-0.792
							C267.1,293.483,267.086,293.37,266.955,293.294z M268.922,292.159l-1.217-0.703c-0.13-0.075-0.327-0.083-0.44-0.018
							l-1.372,0.792c-0.113,0.065-0.099,0.179,0.032,0.254l1.217,0.703c0.13,0.075,0.327,0.083,0.44,0.018l1.372-0.792
							C269.067,292.348,269.053,292.234,268.922,292.159z M270.889,291.023l-1.217-0.703c-0.13-0.075-0.327-0.083-0.44-0.018
							l-1.372,0.792c-0.113,0.065-0.099,0.179,0.032,0.254l1.217,0.703c0.13,0.075,0.327,0.083,0.44,0.018l1.372-0.792
							C271.034,291.212,271.019,291.098,270.889,291.023z M273.932,289.266l-1.217-0.703c-0.13-0.075-0.327-0.083-0.44-0.018
							l-2.449,1.414c-0.113,0.065-0.099,0.179,0.032,0.254l1.217,0.703c0.13,0.075,0.327,0.083,0.44,0.018l2.449-1.414
							C274.077,289.455,274.063,289.341,273.932,289.266z M272.857,290.702l1.217,0.703c0.13,0.075,0.327,0.083,0.44,0.018
							l1.372-0.792c0.113-0.065,0.099-0.179-0.032-0.254l-1.217-0.703c-0.13-0.075-0.327-0.083-0.44-0.018l-1.372,0.792
							C272.712,290.513,272.727,290.627,272.857,290.702z M270.89,291.837l1.217,0.703c0.13,0.075,0.327,0.083,0.44,0.018
							l1.372-0.792c0.113-0.065,0.099-0.179-0.032-0.254l-1.217-0.703c-0.13-0.075-0.327-0.083-0.44-0.018l-1.372,0.792
							C270.746,291.648,270.76,291.762,270.89,291.837z M268.923,292.973l1.217,0.703c0.13,0.075,0.327,0.083,0.44,0.018
							l1.372-0.792c0.113-0.065,0.099-0.179-0.032-0.254l-1.217-0.703c-0.13-0.075-0.327-0.083-0.44-0.018l-1.372,0.792
							C268.779,292.784,268.793,292.898,268.923,292.973z M266.956,294.109l1.217,0.703c0.13,0.075,0.327,0.083,0.44,0.018
							l1.372-0.792c0.113-0.065,0.099-0.179-0.032-0.254l-1.217-0.703c-0.13-0.075-0.327-0.083-0.44-0.018l-1.372,0.792
							C266.812,293.919,266.826,294.033,266.956,294.109z M264.99,295.244l1.217,0.703c0.13,0.075,0.327,0.083,0.44,0.018
							l1.372-0.792c0.113-0.065,0.099-0.179-0.032-0.254l-1.217-0.703c-0.13-0.075-0.327-0.084-0.44-0.018l-1.372,0.792
							C264.845,295.055,264.859,295.169,264.99,295.244z M263.023,296.38l1.217,0.703c0.13,0.075,0.327,0.083,0.44,0.018
							l1.372-0.792c0.113-0.065,0.099-0.179-0.032-0.254l-1.217-0.703c-0.13-0.075-0.327-0.083-0.44-0.018l-1.372,0.792
							C262.878,296.191,262.892,296.305,263.023,296.38z M261.056,297.515l1.217,0.703c0.13,0.075,0.327,0.083,0.44,0.018
							l1.372-0.792c0.113-0.065,0.099-0.179-0.032-0.254l-1.217-0.703c-0.13-0.075-0.327-0.083-0.44-0.018l-1.372,0.792
							C260.911,297.326,260.926,297.44,261.056,297.515z M259.089,298.651l1.217,0.703c0.13,0.075,0.327,0.083,0.44,0.018
							l1.372-0.792c0.113-0.065,0.099-0.179-0.032-0.254l-1.217-0.703c-0.13-0.075-0.327-0.083-0.44-0.018l-1.372,0.792
							C258.945,298.462,258.959,298.576,259.089,298.651z M257.122,299.786l1.217,0.703c0.13,0.075,0.327,0.083,0.44,0.018
							l1.372-0.792c0.113-0.065,0.099-0.179-0.032-0.254l-1.217-0.703c-0.13-0.075-0.327-0.083-0.44-0.018l-1.372,0.792
							C256.978,299.597,256.992,299.711,257.122,299.786z M255.155,300.922l1.217,0.703c0.13,0.075,0.327,0.083,0.44,0.018
							l1.372-0.792c0.113-0.065,0.099-0.179-0.032-0.254l-1.217-0.703c-0.13-0.075-0.327-0.083-0.44-0.018l-1.372,0.792
							C255.011,300.733,255.025,300.847,255.155,300.922z M253.188,302.057l1.217,0.703c0.13,0.075,0.327,0.083,0.44,0.018
							l1.372-0.792c0.113-0.065,0.099-0.179-0.032-0.254l-1.217-0.703c-0.13-0.075-0.327-0.083-0.44-0.018l-1.372,0.792
							C253.044,301.868,253.058,301.982,253.188,302.057z M251.222,303.193l1.217,0.703c0.13,0.075,0.327,0.083,0.44,0.018
							l1.372-0.792c0.113-0.065,0.099-0.179-0.032-0.254l-1.217-0.703c-0.13-0.075-0.327-0.083-0.44-0.018l-1.372,0.792
							C251.077,303.004,251.091,303.118,251.222,303.193z M249.255,304.329l1.217,0.703c0.13,0.075,0.327,0.083,0.44,0.018
							l1.372-0.792c0.113-0.065,0.099-0.179-0.032-0.254l-1.217-0.703c-0.13-0.075-0.327-0.083-0.44-0.018l-1.372,0.792
							C249.11,304.139,249.125,304.253,249.255,304.329z M246.212,306.086l1.217,0.703c0.13,0.075,0.327,0.083,0.44,0.018
							l2.449-1.414c0.113-0.065,0.099-0.179-0.032-0.254l-1.217-0.703c-0.13-0.075-0.327-0.083-0.44-0.018l-2.449,1.414
							C246.067,305.897,246.081,306.01,246.212,306.086z M271.291,293.826l1.217,0.703c0.13,0.075,0.328,0.083,0.44,0.018
							l1.372-0.792c0.113-0.065,0.099-0.179-0.032-0.254l-1.217-0.703c-0.13-0.075-0.327-0.083-0.44-0.018l-1.372,0.792
							C271.147,293.637,271.161,293.751,271.291,293.826z M269.324,294.962l1.217,0.703c0.13,0.075,0.327,0.083,0.44,0.018
							l1.372-0.792c0.113-0.065,0.099-0.179-0.032-0.254l-1.217-0.703c-0.13-0.075-0.327-0.083-0.44-0.018l-1.372,0.792
							C269.18,294.773,269.194,294.886,269.324,294.962z M267.358,296.097l1.217,0.703c0.13,0.075,0.327,0.083,0.44,0.018
							l1.372-0.792c0.113-0.065,0.099-0.179-0.032-0.254l-1.217-0.703c-0.13-0.075-0.327-0.083-0.44-0.018l-1.372,0.792
							C267.213,295.908,267.227,296.022,267.358,296.097z M265.391,297.233l1.217,0.703c0.13,0.075,0.327,0.083,0.44,0.018
							l1.372-0.792c0.113-0.065,0.099-0.179-0.032-0.254l-1.217-0.703c-0.13-0.075-0.327-0.083-0.44-0.018l-1.372,0.792
							C265.246,297.044,265.26,297.158,265.391,297.233z M263.424,298.368l1.217,0.703c0.13,0.075,0.327,0.083,0.44,0.018
							l1.372-0.792c0.113-0.065,0.099-0.179-0.032-0.254l-1.217-0.703c-0.13-0.075-0.327-0.083-0.44-0.018l-1.372,0.792
							C263.279,298.179,263.294,298.293,263.424,298.368z M261.457,299.504l1.217,0.703c0.13,0.075,0.327,0.083,0.44,0.018
							l1.372-0.792c0.113-0.065,0.099-0.179-0.032-0.254l-1.217-0.703c-0.13-0.075-0.327-0.083-0.44-0.018l-1.372,0.792
							C261.313,299.315,261.327,299.429,261.457,299.504z M259.49,300.639l1.217,0.703c0.13,0.075,0.327,0.083,0.44,0.018
							l1.372-0.792c0.113-0.065,0.099-0.179-0.032-0.254l-1.217-0.703c-0.13-0.075-0.327-0.083-0.44-0.018l-1.372,0.792
							C259.346,300.45,259.36,300.564,259.49,300.639z M257.523,301.775l1.217,0.703c0.13,0.075,0.327,0.083,0.44,0.018l1.372-0.792
							c0.113-0.065,0.099-0.179-0.032-0.254l-1.217-0.703c-0.13-0.075-0.327-0.083-0.44-0.018l-1.372,0.792
							C257.379,301.586,257.393,301.7,257.523,301.775z M255.557,302.91l1.217,0.703c0.13,0.075,0.328,0.083,0.44,0.018l1.372-0.792
							c0.113-0.065,0.099-0.179-0.032-0.254l-1.217-0.703c-0.13-0.075-0.327-0.083-0.44-0.018l-1.372,0.792
							C255.412,302.721,255.426,302.835,255.557,302.91z M253.59,304.046l1.217,0.703c0.13,0.075,0.327,0.083,0.44,0.018
							l1.372-0.792c0.113-0.065,0.099-0.179-0.032-0.254l-1.217-0.703c-0.13-0.075-0.327-0.083-0.44-0.018l-1.372,0.792
							C253.445,303.857,253.459,303.971,253.59,304.046z M251.623,305.182l1.217,0.703c0.13,0.075,0.327,0.083,0.44,0.018
							l1.372-0.792c0.113-0.065,0.099-0.179-0.032-0.254l-1.217-0.703c-0.13-0.075-0.327-0.083-0.44-0.018l-1.372,0.792
							C251.479,304.993,251.493,305.106,251.623,305.182z M248.135,307.196l1.217,0.703c0.13,0.075,0.327,0.083,0.44,0.018
							l2.894-1.671c0.113-0.065,0.099-0.179-0.032-0.254l-1.217-0.703c-0.13-0.075-0.327-0.083-0.44-0.018l-2.894,1.671
							C247.99,307.007,248.004,307.12,248.135,307.196z M273.258,292.69l1.217,0.703c0.13,0.075,0.327,0.083,0.44,0.018l2.894-1.671
							c0.113-0.065,0.099-0.179-0.032-0.254l-1.217-0.703c-0.13-0.075-0.327-0.083-0.44-0.018l-2.894,1.671
							C273.114,292.501,273.128,292.615,273.258,292.69z M272.231,295.504l1.217,0.703c0.13,0.075,0.327,0.083,0.44,0.018
							l1.372-0.792c0.113-0.065,0.099-0.179-0.032-0.254l-1.217-0.703c-0.13-0.075-0.327-0.083-0.44-0.018l-1.372,0.792
							C272.086,295.315,272.1,295.429,272.231,295.504z M270.264,296.64l1.217,0.703c0.13,0.075,0.327,0.083,0.44,0.018l1.372-0.792
							c0.113-0.065,0.099-0.179-0.032-0.254l-1.217-0.703c-0.13-0.075-0.327-0.083-0.44-0.018l-1.372,0.792
							C270.12,296.451,270.134,296.564,270.264,296.64z M268.297,297.775l1.217,0.703c0.13,0.075,0.327,0.083,0.44,0.018
							l1.372-0.792c0.113-0.065,0.099-0.179-0.032-0.254l-1.217-0.703c-0.13-0.075-0.327-0.083-0.44-0.018l-1.372,0.792
							C268.153,297.586,268.167,297.7,268.297,297.775z M266.33,298.911l1.217,0.703c0.13,0.075,0.327,0.083,0.44,0.018l1.372-0.792
							c0.113-0.065,0.099-0.179-0.032-0.254l-1.217-0.703c-0.13-0.075-0.327-0.083-0.44-0.018l-1.372,0.792
							C266.186,298.722,266.2,298.836,266.33,298.911z M264.363,300.046l1.217,0.703c0.13,0.075,0.327,0.083,0.44,0.018l1.372-0.792
							c0.113-0.065,0.099-0.179-0.032-0.254l-1.217-0.703c-0.13-0.075-0.328-0.083-0.44-0.018l-1.372,0.792
							C264.219,299.857,264.233,299.971,264.363,300.046z M262.397,301.182l1.217,0.703c0.13,0.075,0.327,0.083,0.44,0.018
							l1.372-0.792c0.113-0.065,0.099-0.179-0.032-0.254l-1.217-0.703c-0.13-0.075-0.327-0.083-0.44-0.018l-1.372,0.792
							C262.252,300.993,262.266,301.107,262.397,301.182z M260.43,302.317l1.217,0.703c0.13,0.075,0.327,0.083,0.44,0.018
							l1.372-0.792c0.113-0.065,0.099-0.179-0.032-0.254l-1.217-0.703c-0.13-0.075-0.327-0.083-0.44-0.018l-1.372,0.792
							C260.285,302.128,260.299,302.242,260.43,302.317z M258.463,303.453l1.217,0.703c0.13,0.075,0.327,0.083,0.44,0.018
							l1.373-0.792c0.113-0.065,0.099-0.179-0.032-0.254l-1.217-0.703c-0.13-0.075-0.327-0.083-0.44-0.018l-1.372,0.792
							C258.318,303.264,258.333,303.378,258.463,303.453z M256.496,304.589l1.217,0.703c0.13,0.075,0.327,0.083,0.44,0.018
							l1.372-0.792c0.113-0.065,0.099-0.179-0.032-0.254l-1.217-0.703c-0.13-0.075-0.327-0.083-0.44-0.018l-1.372,0.792
							C256.352,304.399,256.366,304.513,256.496,304.589z M254.529,305.724l1.217,0.703c0.13,0.075,0.327,0.083,0.44,0.018
							l1.372-0.792c0.113-0.065,0.099-0.179-0.032-0.254l-1.217-0.703c-0.13-0.075-0.327-0.083-0.44-0.018l-1.372,0.792
							C254.385,305.535,254.399,305.649,254.529,305.724z M250.057,308.306l1.217,0.703c0.13,0.075,0.327,0.083,0.44,0.018
							l3.877-2.239c0.113-0.065,0.099-0.179-0.032-0.254l-1.217-0.703c-0.13-0.075-0.327-0.083-0.44-0.018l-3.877,2.239
							C249.913,308.117,249.927,308.231,250.057,308.306z M274.198,294.368l1.217,0.703c0.13,0.075,0.327,0.083,0.44,0.018
							l3.877-2.239c0.113-0.065,0.099-0.179-0.032-0.254l-1.217-0.703c-0.13-0.075-0.327-0.083-0.44-0.018l-3.877,2.239
							C274.053,294.179,274.067,294.293,274.198,294.368z M254.978,309.09l-1.217-0.703c-0.13-0.075-0.327-0.083-0.44-0.018
							l-1.372,0.792c-0.113,0.065-0.099,0.179,0.032,0.254l1.217,0.703c0.13,0.075,0.327,0.083,0.44,0.018l1.372-0.792
							C255.123,309.279,255.109,309.166,254.978,309.09z M256.945,307.955l-1.217-0.703c-0.13-0.075-0.327-0.083-0.44-0.018
							l-1.372,0.792c-0.113,0.065-0.099,0.179,0.032,0.254l1.217,0.703c0.13,0.075,0.327,0.083,0.44,0.018l1.372-0.792
							C257.09,308.144,257.076,308.03,256.945,307.955z M258.912,306.819l-1.217-0.703c-0.13-0.075-0.328-0.083-0.44-0.018
							l-1.372,0.792c-0.113,0.065-0.099,0.179,0.032,0.254l1.217,0.703c0.13,0.075,0.327,0.083,0.44,0.018l1.372-0.792
							C259.056,307.008,259.042,306.895,258.912,306.819z M260.879,305.684l-1.217-0.703c-0.13-0.075-0.327-0.083-0.44-0.018
							l-1.372,0.792c-0.113,0.065-0.099,0.179,0.032,0.254l1.217,0.703c0.13,0.075,0.327,0.083,0.44,0.018l1.372-0.792
							C261.023,305.873,261.009,305.759,260.879,305.684z M273.756,298.249l-1.217-0.703c-0.13-0.075-0.327-0.083-0.44-0.018
							l-1.372,0.792c-0.113,0.065-0.099,0.179,0.032,0.254l1.217,0.703c0.13,0.075,0.327,0.083,0.44,0.018l1.372-0.792
							C273.901,298.438,273.887,298.324,273.756,298.249z M275.723,297.113l-1.217-0.703c-0.13-0.075-0.327-0.083-0.44-0.018
							l-1.372,0.792c-0.113,0.065-0.099,0.179,0.032,0.254l1.217,0.703c0.13,0.075,0.327,0.083,0.44,0.018l1.372-0.792
							C275.867,297.302,275.853,297.189,275.723,297.113z M277.69,295.978l-1.217-0.703c-0.13-0.075-0.327-0.083-0.44-0.018
							l-1.372,0.792c-0.113,0.065-0.099,0.179,0.032,0.254l1.217,0.703c0.13,0.075,0.327,0.083,0.44,0.018l1.372-0.792
							C277.834,296.167,277.82,296.053,277.69,295.978z M278.98,294.56l-1.592,0.919c-0.052,0.03-0.046,0.083,0.015,0.117
							l0.474,0.273c0.13,0.075,0.327,0.083,0.44,0.018l1.372-0.792c0.113-0.065,0.099-0.179-0.032-0.254l-0.474-0.273
							C279.123,294.534,279.032,294.53,278.98,294.56z M281.624,293.707l-1.217-0.703c-0.13-0.075-0.327-0.083-0.44-0.018
							l-1.372,0.792c-0.113,0.065-0.099,0.179,0.032,0.254l1.217,0.703c0.13,0.075,0.327,0.084,0.44,0.018l1.372-0.792
							C281.768,293.896,281.754,293.782,281.624,293.707z M277.335,295.45l1.592-0.919c0.052-0.03,0.046-0.083-0.015-0.117
							l-0.473-0.273c-0.13-0.075-0.327-0.083-0.44-0.018l-1.372,0.792c-0.113,0.065-0.099,0.179,0.032,0.254l0.473,0.273
							C277.192,295.476,277.283,295.48,277.335,295.45z M271.789,299.384l-1.217-0.703c-0.13-0.075-0.327-0.083-0.44-0.018
							l-10.316,5.956c-0.113,0.065-0.099,0.179,0.032,0.254l1.217,0.703c0.13,0.075,0.327,0.083,0.44,0.018l10.316-5.956
							C271.934,299.574,271.92,299.46,271.789,299.384z"/>
					</g>
					<g>
						<path style="fill:#0528F2;" d="M247.319,304.504l-1.372,0.792c-0.113,0.065-0.31,0.057-0.44-0.018l-1.217-0.703
							c-0.13-0.075-0.145-0.189-0.032-0.254l1.372-0.792c0.113-0.065,0.31-0.057,0.44,0.018l1.217,0.703
							C247.417,304.325,247.431,304.439,247.319,304.504z M249.254,303.114l-1.217-0.703c-0.13-0.075-0.327-0.083-0.44-0.018
							l-1.372,0.792c-0.113,0.065-0.099,0.179,0.032,0.254l1.217,0.703c0.13,0.075,0.327,0.083,0.44,0.018l1.372-0.792
							C249.398,303.303,249.384,303.19,249.254,303.114z M251.221,301.979l-1.217-0.703c-0.13-0.075-0.327-0.083-0.44-0.018
							l-1.372,0.792c-0.113,0.065-0.099,0.179,0.032,0.254l1.217,0.703c0.13,0.075,0.327,0.083,0.44,0.018l1.372-0.792
							C251.365,302.168,251.351,302.054,251.221,301.979z M253.188,300.843l-1.217-0.703c-0.13-0.075-0.327-0.083-0.44-0.018
							l-1.372,0.792c-0.113,0.065-0.099,0.179,0.032,0.254l1.217,0.703c0.13,0.075,0.327,0.083,0.44,0.018l1.372-0.792
							C253.332,301.032,253.318,300.918,253.188,300.843z M255.154,299.708l-1.217-0.703c-0.13-0.075-0.327-0.083-0.44-0.018
							l-1.372,0.792c-0.113,0.065-0.099,0.179,0.032,0.254l1.217,0.703c0.13,0.075,0.327,0.083,0.44,0.018l1.372-0.792
							C255.299,299.897,255.285,299.783,255.154,299.708z M257.121,298.572l-1.217-0.703c-0.13-0.075-0.327-0.083-0.44-0.018
							l-1.372,0.792c-0.113,0.065-0.099,0.179,0.032,0.254l1.217,0.703c0.13,0.075,0.327,0.083,0.44,0.018l1.372-0.792
							C257.266,298.761,257.251,298.647,257.121,298.572z M259.088,297.436l-1.217-0.703c-0.13-0.075-0.327-0.083-0.44-0.018
							l-1.372,0.792c-0.113,0.065-0.099,0.179,0.032,0.254l1.217,0.703c0.13,0.075,0.327,0.083,0.44,0.018l1.372-0.792
							C259.232,297.625,259.218,297.512,259.088,297.436z M261.055,296.301l-1.217-0.703c-0.13-0.075-0.327-0.083-0.44-0.018
							l-1.372,0.792c-0.113,0.065-0.099,0.179,0.032,0.254l1.217,0.703c0.13,0.075,0.327,0.083,0.44,0.018l1.372-0.792
							C261.199,296.49,261.185,296.376,261.055,296.301z M263.022,295.165l-1.217-0.703c-0.13-0.075-0.327-0.083-0.44-0.018
							l-1.372,0.792c-0.113,0.065-0.099,0.179,0.032,0.254l1.217,0.703c0.13,0.075,0.327,0.083,0.44,0.018l1.372-0.792
							C263.166,295.354,263.152,295.241,263.022,295.165z M264.989,294.03l-1.217-0.703c-0.13-0.075-0.327-0.083-0.44-0.018
							l-1.372,0.792c-0.113,0.065-0.099,0.179,0.032,0.254l1.217,0.703c0.13,0.075,0.327,0.083,0.44,0.018l1.372-0.792
							C265.133,294.219,265.119,294.105,264.989,294.03z M266.955,292.894l-1.217-0.703c-0.13-0.075-0.327-0.083-0.44-0.018
							l-1.372,0.792c-0.113,0.065-0.099,0.179,0.032,0.254l1.217,0.703c0.13,0.075,0.327,0.083,0.44,0.018l1.372-0.792
							C267.1,293.083,267.086,292.97,266.955,292.894z M268.922,291.759l-1.217-0.703c-0.13-0.075-0.327-0.083-0.44-0.018
							l-1.372,0.792c-0.113,0.065-0.099,0.179,0.032,0.254l1.217,0.703c0.13,0.075,0.327,0.083,0.44,0.018l1.372-0.792
							C269.067,291.948,269.053,291.834,268.922,291.759z M270.889,290.623l-1.217-0.703c-0.13-0.075-0.327-0.083-0.44-0.018
							l-1.372,0.792c-0.113,0.065-0.099,0.179,0.032,0.254l1.217,0.703c0.13,0.075,0.327,0.083,0.44,0.018l1.372-0.792
							C271.034,290.812,271.019,290.698,270.889,290.623z M273.932,288.866l-1.217-0.703c-0.13-0.075-0.327-0.083-0.44-0.018
							l-2.449,1.414c-0.113,0.065-0.099,0.179,0.032,0.254l1.217,0.703c0.13,0.075,0.327,0.083,0.44,0.018l2.449-1.414
							C274.077,289.055,274.063,288.941,273.932,288.866z M272.857,290.302l1.217,0.703c0.13,0.075,0.327,0.083,0.44,0.018
							l1.372-0.792c0.113-0.065,0.099-0.179-0.032-0.254l-1.217-0.703c-0.13-0.075-0.327-0.083-0.44-0.018l-1.372,0.792
							C272.712,290.113,272.727,290.227,272.857,290.302z M270.89,291.438l1.217,0.703c0.13,0.075,0.327,0.083,0.44,0.018
							l1.372-0.792c0.113-0.065,0.099-0.179-0.032-0.254l-1.217-0.703c-0.13-0.075-0.327-0.083-0.44-0.018l-1.372,0.792
							C270.746,291.248,270.76,291.362,270.89,291.438z M268.923,292.573l1.217,0.703c0.13,0.075,0.327,0.083,0.44,0.018
							l1.372-0.792c0.113-0.065,0.099-0.179-0.032-0.254l-1.217-0.703c-0.13-0.075-0.327-0.083-0.44-0.018l-1.372,0.792
							C268.779,292.384,268.793,292.498,268.923,292.573z M266.956,293.709l1.217,0.703c0.13,0.075,0.327,0.083,0.44,0.018
							l1.372-0.792c0.113-0.065,0.099-0.179-0.032-0.254l-1.217-0.703c-0.13-0.075-0.327-0.083-0.44-0.018l-1.372,0.792
							C266.812,293.52,266.826,293.633,266.956,293.709z M264.99,294.844l1.217,0.703c0.13,0.075,0.327,0.083,0.44,0.018
							l1.372-0.792c0.113-0.065,0.099-0.179-0.032-0.254l-1.217-0.703c-0.13-0.075-0.327-0.083-0.44-0.018l-1.372,0.792
							C264.845,294.655,264.859,294.769,264.99,294.844z M263.023,295.98l1.217,0.703c0.13,0.075,0.327,0.083,0.44,0.018
							l1.372-0.792c0.113-0.065,0.099-0.179-0.032-0.254l-1.217-0.703c-0.13-0.075-0.327-0.083-0.44-0.018l-1.372,0.792
							C262.878,295.791,262.892,295.905,263.023,295.98z M261.056,297.115l1.217,0.703c0.13,0.075,0.327,0.083,0.44,0.018
							l1.372-0.792c0.113-0.065,0.099-0.179-0.032-0.254l-1.217-0.703c-0.13-0.075-0.327-0.083-0.44-0.018l-1.372,0.792
							C260.911,296.926,260.926,297.04,261.056,297.115z M259.089,298.251l1.217,0.703c0.13,0.075,0.327,0.083,0.44,0.018
							l1.372-0.792c0.113-0.065,0.099-0.179-0.032-0.254l-1.217-0.703c-0.13-0.075-0.327-0.083-0.44-0.018l-1.372,0.792
							C258.945,298.062,258.959,298.176,259.089,298.251z M257.122,299.386l1.217,0.703c0.13,0.075,0.327,0.083,0.44,0.018
							l1.372-0.792c0.113-0.065,0.099-0.179-0.032-0.254l-1.217-0.703c-0.13-0.075-0.327-0.083-0.44-0.018l-1.372,0.792
							C256.978,299.197,256.992,299.311,257.122,299.386z M255.155,300.522l1.217,0.703c0.13,0.075,0.327,0.083,0.44,0.018
							l1.372-0.792c0.113-0.065,0.099-0.179-0.032-0.254l-1.217-0.703c-0.13-0.075-0.327-0.083-0.44-0.018l-1.372,0.792
							C255.011,300.333,255.025,300.447,255.155,300.522z M253.188,301.658l1.217,0.703c0.13,0.075,0.327,0.083,0.44,0.018
							l1.372-0.792c0.113-0.065,0.099-0.179-0.032-0.254l-1.217-0.703c-0.13-0.075-0.327-0.083-0.44-0.018l-1.372,0.792
							C253.044,301.468,253.058,301.582,253.188,301.658z M251.222,302.793l1.217,0.703c0.13,0.075,0.327,0.083,0.44,0.018
							l1.372-0.792c0.113-0.065,0.099-0.179-0.032-0.254l-1.217-0.703c-0.13-0.075-0.327-0.083-0.44-0.018l-1.372,0.792
							C251.077,302.604,251.091,302.718,251.222,302.793z M249.255,303.929l1.217,0.703c0.13,0.075,0.327,0.083,0.44,0.018
							l1.372-0.792c0.113-0.065,0.099-0.179-0.032-0.254l-1.217-0.703c-0.13-0.075-0.327-0.083-0.44-0.018l-1.372,0.792
							C249.11,303.74,249.125,303.853,249.255,303.929z M246.212,305.685l1.217,0.703c0.13,0.075,0.327,0.083,0.44,0.018
							l2.449-1.414c0.113-0.065,0.099-0.179-0.032-0.254l-1.217-0.703c-0.13-0.075-0.327-0.083-0.44-0.018l-2.449,1.414
							C246.067,305.496,246.081,305.61,246.212,305.685z M271.291,293.426l1.217,0.703c0.13,0.075,0.328,0.083,0.44,0.018
							l1.372-0.792c0.113-0.065,0.099-0.179-0.032-0.254l-1.217-0.703c-0.13-0.075-0.327-0.083-0.44-0.018l-1.372,0.792
							C271.147,293.237,271.161,293.351,271.291,293.426z M269.324,294.562l1.217,0.703c0.13,0.075,0.327,0.083,0.44,0.018
							l1.372-0.792c0.113-0.065,0.099-0.179-0.032-0.254l-1.217-0.703c-0.13-0.075-0.327-0.083-0.44-0.018l-1.372,0.792
							C269.18,294.373,269.194,294.486,269.324,294.562z M267.358,295.697l1.217,0.703c0.13,0.075,0.327,0.083,0.44,0.018
							l1.372-0.792c0.113-0.065,0.099-0.179-0.032-0.254l-1.217-0.703c-0.13-0.075-0.327-0.083-0.44-0.018l-1.372,0.792
							C267.213,295.508,267.227,295.622,267.358,295.697z M265.391,296.833l1.217,0.703c0.13,0.075,0.327,0.083,0.44,0.018
							l1.372-0.792c0.113-0.065,0.099-0.179-0.032-0.254l-1.217-0.703c-0.13-0.075-0.327-0.083-0.44-0.018l-1.372,0.792
							C265.246,296.644,265.26,296.758,265.391,296.833z M263.424,297.968l1.217,0.703c0.13,0.075,0.327,0.083,0.44,0.018
							l1.372-0.792c0.113-0.065,0.099-0.179-0.032-0.254l-1.217-0.703c-0.13-0.075-0.327-0.083-0.44-0.018l-1.372,0.792
							C263.279,297.779,263.294,297.893,263.424,297.968z M261.457,299.104l1.217,0.703c0.13,0.075,0.327,0.083,0.44,0.018
							l1.372-0.792c0.113-0.065,0.099-0.179-0.032-0.254l-1.217-0.703c-0.13-0.075-0.327-0.083-0.44-0.018l-1.372,0.792
							C261.313,298.915,261.327,299.029,261.457,299.104z M259.49,300.239l1.217,0.703c0.13,0.075,0.327,0.083,0.44,0.018
							l1.372-0.792c0.113-0.065,0.099-0.179-0.032-0.254l-1.217-0.703c-0.13-0.075-0.327-0.083-0.44-0.018l-1.372,0.792
							C259.346,300.05,259.36,300.164,259.49,300.239z M257.523,301.375l1.217,0.703c0.13,0.075,0.327,0.083,0.44,0.018l1.372-0.792
							c0.113-0.065,0.099-0.179-0.032-0.254l-1.217-0.703c-0.13-0.075-0.327-0.083-0.44-0.018l-1.372,0.792
							C257.379,301.186,257.393,301.3,257.523,301.375z M255.557,302.51l1.217,0.703c0.13,0.075,0.328,0.083,0.44,0.018l1.372-0.792
							c0.113-0.065,0.099-0.179-0.032-0.254l-1.217-0.703c-0.13-0.075-0.327-0.083-0.44-0.018l-1.372,0.792
							C255.412,302.322,255.426,302.435,255.557,302.51z M253.59,303.646l1.217,0.703c0.13,0.075,0.327,0.083,0.44,0.018
							l1.372-0.792c0.113-0.065,0.099-0.179-0.032-0.254l-1.217-0.703c-0.13-0.075-0.327-0.083-0.44-0.018l-1.372,0.792
							C253.445,303.457,253.459,303.571,253.59,303.646z M251.623,304.782l1.217,0.703c0.13,0.075,0.327,0.083,0.44,0.018
							l1.372-0.792c0.113-0.065,0.099-0.179-0.032-0.254l-1.217-0.703c-0.13-0.075-0.327-0.083-0.44-0.018l-1.372,0.792
							C251.479,304.593,251.493,304.706,251.623,304.782z M248.135,306.796l1.217,0.703c0.13,0.075,0.327,0.083,0.44,0.018
							l2.894-1.671c0.113-0.065,0.099-0.179-0.032-0.254l-1.217-0.703c-0.13-0.075-0.327-0.083-0.44-0.018l-2.894,1.671
							C247.99,306.607,248.004,306.72,248.135,306.796z M273.258,292.29l1.217,0.703c0.13,0.075,0.327,0.083,0.44,0.018l2.894-1.671
							c0.113-0.065,0.099-0.179-0.032-0.254l-1.217-0.703c-0.13-0.075-0.327-0.083-0.44-0.018l-2.894,1.671
							C273.114,292.102,273.128,292.215,273.258,292.29z M272.231,295.104l1.217,0.703c0.13,0.075,0.327,0.083,0.44,0.018
							l1.372-0.792c0.113-0.065,0.099-0.179-0.032-0.254l-1.217-0.703c-0.13-0.075-0.327-0.083-0.44-0.018l-1.372,0.792
							C272.086,294.915,272.1,295.029,272.231,295.104z M270.264,296.24l1.217,0.703c0.13,0.075,0.327,0.083,0.44,0.018l1.372-0.792
							c0.113-0.065,0.099-0.179-0.032-0.254l-1.217-0.703c-0.13-0.075-0.327-0.083-0.44-0.018l-1.372,0.792
							C270.12,296.051,270.134,296.164,270.264,296.24z M268.297,297.375l1.217,0.703c0.13,0.075,0.327,0.083,0.44,0.018
							l1.372-0.792c0.113-0.065,0.099-0.179-0.032-0.254l-1.217-0.703c-0.13-0.075-0.327-0.083-0.44-0.018l-1.372,0.792
							C268.153,297.186,268.167,297.3,268.297,297.375z M266.33,298.511l1.217,0.703c0.13,0.075,0.327,0.083,0.44,0.018l1.372-0.792
							c0.113-0.065,0.099-0.179-0.032-0.254l-1.217-0.703c-0.13-0.075-0.327-0.083-0.44-0.018l-1.372,0.792
							C266.186,298.322,266.2,298.435,266.33,298.511z M264.363,299.646l1.217,0.703c0.13,0.075,0.327,0.083,0.44,0.018l1.372-0.792
							c0.113-0.065,0.099-0.179-0.032-0.254l-1.217-0.703c-0.13-0.075-0.328-0.084-0.44-0.018l-1.372,0.792
							C264.219,299.457,264.233,299.571,264.363,299.646z M262.397,300.782l1.217,0.703c0.13,0.075,0.327,0.083,0.44,0.018
							l1.372-0.792c0.113-0.065,0.099-0.179-0.032-0.254l-1.217-0.703c-0.13-0.075-0.327-0.083-0.44-0.018l-1.372,0.792
							C262.252,300.593,262.266,300.707,262.397,300.782z M260.43,301.917l1.217,0.703c0.13,0.075,0.327,0.083,0.44,0.018
							l1.372-0.792c0.113-0.065,0.099-0.179-0.032-0.254l-1.217-0.703c-0.13-0.075-0.327-0.083-0.44-0.018l-1.372,0.792
							C260.285,301.728,260.299,301.842,260.43,301.917z M258.463,303.053l1.217,0.703c0.13,0.075,0.327,0.083,0.44,0.018
							l1.373-0.792c0.113-0.065,0.099-0.179-0.032-0.254l-1.217-0.703c-0.13-0.075-0.327-0.083-0.44-0.018l-1.372,0.792
							C258.318,302.864,258.333,302.978,258.463,303.053z M256.496,304.189l1.217,0.703c0.13,0.075,0.327,0.083,0.44,0.018
							l1.372-0.792c0.113-0.065,0.099-0.179-0.032-0.254l-1.217-0.703c-0.13-0.075-0.327-0.083-0.44-0.018l-1.372,0.792
							C256.352,303.999,256.366,304.113,256.496,304.189z M254.529,305.324l1.217,0.703c0.13,0.075,0.327,0.083,0.44,0.018
							l1.372-0.792c0.113-0.065,0.099-0.179-0.032-0.254l-1.217-0.703c-0.13-0.075-0.327-0.083-0.44-0.018l-1.372,0.792
							C254.385,305.135,254.399,305.249,254.529,305.324z M250.057,307.906l1.217,0.703c0.13,0.075,0.327,0.083,0.44,0.018
							l3.877-2.239c0.113-0.065,0.099-0.179-0.032-0.254l-1.217-0.703c-0.13-0.075-0.327-0.083-0.44-0.018l-3.877,2.239
							C249.913,307.717,249.927,307.831,250.057,307.906z M274.198,293.969l1.217,0.703c0.13,0.075,0.327,0.083,0.44,0.018
							l3.877-2.239c0.113-0.065,0.099-0.179-0.032-0.254l-1.217-0.703c-0.13-0.075-0.327-0.083-0.44-0.018l-3.877,2.239
							C274.053,293.779,274.067,293.893,274.198,293.969z M254.978,308.69l-1.217-0.703c-0.13-0.075-0.327-0.083-0.44-0.018
							l-1.372,0.792c-0.113,0.065-0.099,0.179,0.032,0.254l1.217,0.703c0.13,0.075,0.327,0.083,0.44,0.018l1.372-0.792
							C255.123,308.879,255.109,308.766,254.978,308.69z M256.945,307.555l-1.217-0.703c-0.13-0.075-0.327-0.083-0.44-0.018
							l-1.372,0.792c-0.113,0.065-0.099,0.179,0.032,0.254l1.217,0.703c0.13,0.075,0.327,0.083,0.44,0.018l1.372-0.792
							C257.09,307.744,257.076,307.63,256.945,307.555z M258.912,306.419l-1.217-0.703c-0.13-0.075-0.328-0.083-0.44-0.018
							l-1.372,0.792c-0.113,0.065-0.099,0.179,0.032,0.254l1.217,0.703c0.13,0.075,0.327,0.083,0.44,0.018l1.372-0.792
							C259.056,306.608,259.042,306.495,258.912,306.419z M260.879,305.284l-1.217-0.703c-0.13-0.075-0.327-0.083-0.44-0.018
							l-1.372,0.792c-0.113,0.065-0.099,0.179,0.032,0.254l1.217,0.703c0.13,0.075,0.327,0.083,0.44,0.018l1.372-0.792
							C261.023,305.473,261.009,305.359,260.879,305.284z M273.756,297.849l-1.217-0.703c-0.13-0.075-0.327-0.083-0.44-0.018
							l-1.372,0.792c-0.113,0.065-0.099,0.179,0.032,0.254l1.217,0.703c0.13,0.075,0.327,0.083,0.44,0.018l1.372-0.792
							C273.901,298.038,273.887,297.924,273.756,297.849z M275.723,296.713l-1.217-0.703c-0.13-0.075-0.327-0.083-0.44-0.018
							l-1.372,0.792c-0.113,0.065-0.099,0.179,0.032,0.254l1.217,0.703c0.13,0.075,0.327,0.083,0.44,0.018l1.372-0.792
							C275.867,296.902,275.853,296.789,275.723,296.713z M277.69,295.578l-1.217-0.703c-0.13-0.075-0.327-0.083-0.44-0.018
							l-1.372,0.792c-0.113,0.065-0.099,0.179,0.032,0.254l1.217,0.703c0.13,0.075,0.327,0.083,0.44,0.018l1.372-0.792
							C277.834,295.767,277.82,295.653,277.69,295.578z M278.98,294.16l-1.592,0.919c-0.052,0.03-0.046,0.083,0.015,0.117
							l0.474,0.273c0.13,0.075,0.327,0.083,0.44,0.018l1.372-0.792c0.113-0.065,0.099-0.179-0.032-0.254l-0.474-0.273
							C279.123,294.134,279.032,294.13,278.98,294.16z M281.624,293.307l-1.217-0.703c-0.13-0.075-0.327-0.083-0.44-0.018
							l-1.372,0.792c-0.113,0.065-0.099,0.179,0.032,0.254l1.217,0.703c0.13,0.075,0.327,0.083,0.44,0.018l1.372-0.792
							C281.768,293.496,281.754,293.382,281.624,293.307z M277.335,295.05l1.592-0.919c0.052-0.03,0.046-0.083-0.015-0.117
							l-0.473-0.273c-0.13-0.075-0.327-0.083-0.44-0.018l-1.372,0.792c-0.113,0.065-0.099,0.179,0.032,0.254l0.473,0.273
							C277.192,295.076,277.283,295.08,277.335,295.05z M271.789,298.984l-1.217-0.703c-0.13-0.075-0.327-0.083-0.44-0.018
							l-10.316,5.956c-0.113,0.065-0.099,0.179,0.032,0.254l1.217,0.703c0.13,0.075,0.327,0.083,0.44,0.018l10.316-5.956
							C271.934,299.174,271.92,299.06,271.789,298.984z"/>
					</g>
				</g>
			</g>
		</g>
		<g>
			<polygon style="fill:#BF4018;" points="257.086,413.892 218.726,436.039 180.605,414.03 218.965,391.883 			"/>
			<g>
				<path style="fill:#9C3616;" d="M179.359,416.787c0,0-0.529-1.731,1.247-2.757l38.12,22.009l-0.004,3.474L179.359,416.787z"/>
				<path style="fill:#9C3616;" d="M258.333,416.648c0,0,0.53-1.731-1.247-2.757l-38.36,22.147l0.004,3.474L258.333,416.648z"/>
			</g>
			<path style="fill:#E45D35;" d="M224.785,355.567c0,1.895-2.659,3.43-5.939,3.43c-3.28,0-5.939-1.536-5.939-3.43
				c0-1.894,2.659-3.43,5.939-3.43C222.126,352.137,224.785,353.673,224.785,355.567z"/>
			<path style="fill:#E45D35;" d="M239.79,412.141l-15.06-57.036h-11.769l-15.06,57.036c-0.153,0.594-0.235,1.202-0.235,1.82
				c0,6.756,9.482,12.232,21.179,12.232s21.179-5.476,21.179-12.232C240.025,413.342,239.944,412.735,239.79,412.141z"/>
			<path style="fill:#492D18;" d="M222.312,355.567c0,1.106-1.552,2.002-3.466,2.002c-1.914,0-3.466-0.896-3.466-2.002
				c0-1.106,1.552-2.002,3.466-2.002C220.76,353.565,222.312,354.462,222.312,355.567z"/>
			<path style="fill:#F4F9F7;" d="M203.519,390.898c0,4.889,6.862,8.852,15.327,8.852c8.465,0,15.327-3.963,15.327-8.852
				l2.711,10.241c0,5.753-8.076,10.417-18.037,10.417c-9.962,0-18.037-4.664-18.037-10.417L203.519,390.898z"/>
			<path style="fill:#F4F9F7;" d="M209.383,368.64c0,3.018,4.237,5.465,9.462,5.465c5.226,0,9.463-2.447,9.463-5.465l1.673,6.322
				c0,3.552-4.986,6.432-11.136,6.432c-6.15,0-11.136-2.88-11.136-6.432L209.383,368.64z"/>
		</g>
	</g>
</g>
</svg>
