<?xml version="1.0" encoding="utf-8"?>
<!-- Generator: Adobe Illustrator 27.5.0, SVG Export Plug-In . SVG Version: 6.00 Build 0)  -->
<svg version="1.1" xmlns="http://www.w3.org/2000/svg" xmlns:xlink="http://www.w3.org/1999/xlink" x="0px" y="0px"
	 viewBox="0 0 500 500" style="enable-background:new 0 0 500 500;" xml:space="preserve">
<g id="BACKGROUND_1_">
	<g>
		<rect style="fill:#D5E7F5;" width="500" height="500"/>
		
			<linearGradient id="SVGID_00000035519210061485844240000009283553776405020331_" gradientUnits="userSpaceOnUse" x1="552.4747" y1="199.1833" x2="552.4747" y2="75.3167" gradientTransform="matrix(-1 0 0 1 674.6917 0)">
			<stop  offset="0.0093" style="stop-color:#89C4EC;stop-opacity:0"/>
			<stop  offset="1" style="stop-color:#89C4EC"/>
		</linearGradient>
		<polygon style="fill:url(#SVGID_00000035519210061485844240000009283553776405020331_);" points="46.376,89.945 46.376,87.021 
			55.169,87.021 55.169,75.317 56.069,75.317 56.069,87.021 59.497,87.021 59.497,89.945 68.645,89.945 68.645,145.447 
			75.003,145.447 75.003,141.96 84.487,141.96 84.487,145.447 95.59,145.447 95.59,125.212 103.769,125.212 103.769,115.317 
			104.669,115.317 104.669,125.212 110.969,125.212 110.969,117.063 135.182,117.063 135.182,125.212 140.57,135.212 
			140.57,146.909 146.069,146.909 146.069,139.345 163.169,139.345 163.169,174.972 175.789,174.972 175.789,163.977 
			181.997,163.977 181.997,160.351 187.919,160.351 187.919,140.433 188.819,140.433 188.819,160.351 195.119,160.351 
			195.119,163.977 204.266,163.977 204.266,199.183 40.167,199.183 40.167,89.945 		"/>
		
			<linearGradient id="SVGID_00000037666876067180098160000000233493105282759326_" gradientUnits="userSpaceOnUse" x1="381.7375" y1="233.7312" x2="381.7375" y2="154.9811" gradientTransform="matrix(-1 0 0 1 674.6917 0)">
			<stop  offset="0.0093" style="stop-color:#89C4EC;stop-opacity:0"/>
			<stop  offset="1" style="stop-color:#89C4EC"/>
		</linearGradient>
		<polygon style="fill:url(#SVGID_00000037666876067180098160000000233493105282759326_);" points="217.113,174.493 
			217.113,171.569 225.906,171.569 225.906,159.865 226.806,159.865 226.806,171.569 230.234,171.569 230.234,174.493 
			239.382,174.493 239.382,189.995 245.74,189.995 245.74,186.508 255.224,186.508 255.224,189.995 266.327,189.995 266.327,169.76 
			274.506,169.76 274.506,159.865 275.406,159.865 275.406,169.76 281.706,169.76 281.706,161.61 305.919,161.61 305.919,169.76 
			311.307,169.76 311.307,181.457 316.806,181.457 316.806,173.893 333.906,173.893 333.906,209.52 346.526,209.52 346.526,178.525 
			352.735,178.525 352.735,174.899 358.656,174.899 358.656,154.981 359.556,154.981 359.556,174.899 365.856,174.899 
			365.856,178.525 375.004,178.525 375.004,233.731 210.905,233.731 210.905,174.493 		"/>
		
			<linearGradient id="SVGID_00000060729015792351484230000006979349986189344386_" gradientUnits="userSpaceOnUse" x1="137.7004" y1="381.0015" x2="137.7004" y2="376.0421">
			<stop  offset="0.0093" style="stop-color:#89C4EC"/>
			<stop  offset="1" style="stop-color:#89C4EC"/>
		</linearGradient>
		<path style="fill:url(#SVGID_00000060729015792351484230000006979349986189344386_);" d="M50.152,376.042
			c32.2,0.019,60.017,0,73.474,0c13.457,0,50.425,0,50.425,0s32.13,0.635,48.94,0.668c16.811,0.033,33.514,0.768,21.494,1.628
			c-12.02,0.86-62.098,0.685-65.674,1.035c-3.576,0.351-69.895,1.928-81.858,1.578c-11.964-0.351-34.671-0.526-39.825-0.877
			C51.973,379.724-3.762,377.62,50.152,376.042z"/>
		<polygon style="opacity:0.5;fill:#89C4EC;" points="18.968,257.021 37.851,257.021 37.851,293.083 99.45,293.083 99.45,278.452 
			127.043,278.452 127.043,335.548 18.968,335.548 		"/>
		<polygon style="fill:#89C4EC;" points="219.344,258.021 238.227,258.021 238.227,294.083 299.826,294.083 299.826,279.452 
			327.419,279.452 327.419,336.548 219.344,336.548 		"/>
		<polygon style="opacity:0.5;fill:#89C4EC;" points="366.217,257.021 385.1,257.021 385.1,293.083 446.699,293.083 
			446.699,278.452 474.292,278.452 474.292,335.548 366.217,335.548 		"/>
		<g>
			<g>
				<rect x="296.482" y="252.274" width="55.817" height="18.79"/>
				<rect x="314.714" y="147.271" style="fill:none;stroke:#000000;stroke-miterlimit:10;" width="10.5" height="105.003"/>
				
					<rect x="316.251" y="148.808" transform="matrix(0.7071 0.7071 -0.7071 0.7071 201.5606 -181.575)" style="fill:none;stroke:#000000;stroke-miterlimit:10;" width="7.425" height="7.425"/>
				<polygon style="fill:none;stroke:#000000;stroke-miterlimit:10;" points="319.964,147.271 314.714,142.021 319.964,112.362 
					325.214,142.02 				"/>
				
					<rect x="316.251" y="159.309" transform="matrix(0.7071 0.7071 -0.7071 0.7071 208.9821 -178.4986)" style="fill:none;stroke:#000000;stroke-miterlimit:10;" width="7.425" height="7.425"/>
				
					<rect x="316.251" y="169.809" transform="matrix(0.7071 0.7071 -0.7071 0.7071 216.4068 -175.4232)" style="fill:none;stroke:#000000;stroke-miterlimit:10;" width="7.425" height="7.425"/>
				
					<rect x="316.251" y="180.309" transform="matrix(0.7071 0.7071 -0.7071 0.7071 223.8315 -172.3479)" style="fill:none;stroke:#000000;stroke-miterlimit:10;" width="7.425" height="7.425"/>
				
					<rect x="316.251" y="190.81" transform="matrix(0.7071 0.7071 -0.7071 0.7071 231.2562 -169.2726)" style="fill:none;stroke:#000000;stroke-miterlimit:10;" width="7.425" height="7.425"/>
				
					<rect x="316.251" y="201.31" transform="matrix(0.7071 0.7071 -0.7071 0.7071 238.6845 -166.198)" style="fill:none;stroke:#000000;stroke-miterlimit:10;" width="7.425" height="7.425"/>
				
					<rect x="316.251" y="211.81" transform="matrix(0.7071 0.7071 -0.7071 0.7071 246.1057 -163.1219)" style="fill:none;stroke:#000000;stroke-miterlimit:10;" width="7.425" height="7.425"/>
				
					<rect x="316.251" y="222.311" transform="matrix(0.7071 0.7071 -0.7071 0.7071 253.5303 -160.0466)" style="fill:none;stroke:#000000;stroke-miterlimit:10;" width="7.425" height="7.425"/>
				
					<rect x="316.251" y="232.811" transform="matrix(0.7071 0.7071 -0.7071 0.7071 260.955 -156.9712)" style="fill:none;stroke:#000000;stroke-miterlimit:10;" width="7.425" height="7.425"/>
				
					<rect x="316.251" y="243.311" transform="matrix(0.7071 0.7071 -0.7071 0.7071 268.3836 -153.8964)" style="fill:none;stroke:#000000;stroke-miterlimit:10;" width="7.425" height="7.425"/>
				<rect x="311.306" y="141.56" width="17.316" height="5.711"/>
				<rect x="287.358" y="141.56" width="13.171" height="14.553"/>
				
					<line style="fill:none;stroke:#000000;stroke-width:2;stroke-miterlimit:10;" x1="285.7" y1="144.415" x2="392.636" y2="144.415"/>
				<line style="fill:none;stroke:#000000;stroke-miterlimit:10;" x1="315.471" y1="137.738" x2="324.456" y2="137.738"/>
				<line style="fill:none;stroke:#000000;stroke-miterlimit:10;" x1="316.685" y1="130.882" x2="323.331" y2="130.882"/>
				<polyline style="fill:none;stroke:#000000;stroke-width:0.5;stroke-miterlimit:10;" points="298.318,142.481 319.964,112.362 
					289.752,142.481 				"/>
				
					<line style="fill:none;stroke:#000000;stroke-width:0.5;stroke-miterlimit:10;" x1="319.964" y1="112.362" x2="389.412" y2="144.415"/>
				<rect x="385.129" y="140.132" width="8.52" height="8.336"/>
				
					<rect x="387.051" y="146.671" style="fill:none;stroke:#000000;stroke-width:0.5;stroke-miterlimit:10;" width="4.252" height="28.95"/>
				<g>
					<g>
						<path d="M386.291,193.392c0.382,1.766,2.032,2.721,3.444,2.363c0.695-0.17,1.316-0.668,1.621-1.315
							c0.319-0.636,0.313-1.414,0.002-2.047c-0.153-0.316-0.378-0.597-0.651-0.816c-0.323-0.244-0.734-0.612-1.023-0.988
							c-0.609-0.768-0.994-1.742-1.012-2.741c0.004-1.777,0.057-3.495,0.122-5.246h0.845c0.068,1.735,0.111,3.503,0.13,5.212
							c0.024,0.749,0.321,1.477,0.802,2.066c0.253,0.308,0.495,0.526,0.869,0.806c0.4,0.334,0.723,0.758,0.938,1.231
							c0.438,0.943,0.415,2.087-0.068,3.003c-0.466,0.92-1.348,1.598-2.352,1.82c-1.008,0.218-2.091-0.088-2.814-0.769
							C386.413,195.298,386.095,194.266,386.291,193.392z"/>
					</g>
					<path style="fill:#7D96BC;" d="M393.02,182.122c0,2.1-1.703,3.803-3.803,3.803c-2.101,0-3.803-1.703-3.803-3.803
						c0-2.101,1.703-3.804,3.803-3.804C391.318,178.318,393.02,180.021,393.02,182.122z"/>
					<path d="M391.067,183.878l2.778-2.495v-10h-9.336v10l2.778,2.495C388.362,184.844,389.992,184.844,391.067,183.878z"/>
					<path style="fill:#7D96BC;" d="M390.904,182.122c0,0.931-0.755,1.686-1.687,1.686c-0.931,0-1.687-0.755-1.687-1.686
						c0-0.932,0.755-1.687,1.687-1.687C390.148,180.435,390.904,181.19,390.904,182.122z"/>
				</g>
			</g>
			<g>
				<rect x="355.599" y="227.849" style="fill:#4DA4E4;stroke:#A9A1A5;stroke-miterlimit:10;" width="16.164" height="31.161"/>
				<rect x="371.763" y="227.849" style="fill:#89C4EC;stroke:#A9A1A5;stroke-miterlimit:10;" width="16.164" height="31.161"/>
				<rect x="387.927" y="227.849" style="fill:#89C4EC;stroke:#A9A1A5;stroke-miterlimit:10;" width="16.164" height="31.161"/>
				<rect x="404.09" y="227.849" style="fill:#89C4EC;stroke:#A9A1A5;stroke-miterlimit:10;" width="16.164" height="31.161"/>
				<rect x="420.254" y="227.849" style="fill:#89C4EC;stroke:#A9A1A5;stroke-miterlimit:10;" width="16.164" height="31.161"/>
				<rect x="436.418" y="227.849" style="fill:#89C4EC;stroke:#A9A1A5;stroke-miterlimit:10;" width="16.164" height="31.161"/>
				<rect x="355.599" y="259.01" style="fill:#89C4EC;stroke:#A9A1A5;stroke-miterlimit:10;" width="16.164" height="31.161"/>
				<rect x="371.763" y="259.01" style="fill:#4DA4E4;stroke:#A9A1A5;stroke-miterlimit:10;" width="16.164" height="31.161"/>
				<rect x="387.927" y="259.01" style="fill:#89C4EC;stroke:#A9A1A5;stroke-miterlimit:10;" width="16.164" height="31.161"/>
				<rect x="404.09" y="259.01" style="fill:#89C4EC;stroke:#A9A1A5;stroke-miterlimit:10;" width="16.164" height="31.161"/>
				<rect x="420.254" y="259.01" style="fill:#89C4EC;stroke:#A9A1A5;stroke-miterlimit:10;" width="16.164" height="31.161"/>
				<rect x="436.418" y="259.01" style="fill:#4DA4E4;stroke:#A9A1A5;stroke-miterlimit:10;" width="16.164" height="31.161"/>
				<rect x="355.599" y="290.172" style="fill:#89C4EC;stroke:#A9A1A5;stroke-miterlimit:10;" width="16.164" height="31.162"/>
				<rect x="371.763" y="290.172" style="fill:#89C4EC;stroke:#A9A1A5;stroke-miterlimit:10;" width="16.164" height="31.162"/>
				<rect x="387.927" y="290.172" style="fill:#89C4EC;stroke:#A9A1A5;stroke-miterlimit:10;" width="16.164" height="31.162"/>
				<rect x="404.09" y="290.172" style="fill:#89C4EC;stroke:#A9A1A5;stroke-miterlimit:10;" width="16.164" height="31.162"/>
				<rect x="420.254" y="290.172" style="fill:#4DA4E4;stroke:#A9A1A5;stroke-miterlimit:10;" width="16.164" height="31.162"/>
				<rect x="436.418" y="290.172" style="fill:#89C4EC;stroke:#A9A1A5;stroke-miterlimit:10;" width="16.164" height="31.162"/>
				<rect x="355.599" y="321.333" style="fill:#89C4EC;stroke:#A9A1A5;stroke-miterlimit:10;" width="16.164" height="31.161"/>
				<rect x="371.763" y="321.333" style="fill:#89C4EC;stroke:#A9A1A5;stroke-miterlimit:10;" width="16.164" height="31.161"/>
				<rect x="387.927" y="321.333" style="fill:#89C4EC;stroke:#A9A1A5;stroke-miterlimit:10;" width="16.164" height="31.161"/>
				<rect x="404.09" y="321.333" style="fill:#89C4EC;stroke:#A9A1A5;stroke-miterlimit:10;" width="16.164" height="31.161"/>
				<rect x="420.254" y="321.333" style="fill:#89C4EC;stroke:#A9A1A5;stroke-miterlimit:10;" width="16.164" height="31.161"/>
				<rect x="436.418" y="321.333" style="fill:#89C4EC;stroke:#A9A1A5;stroke-miterlimit:10;" width="16.164" height="31.161"/>
				<rect x="258.616" y="259.01" style="fill:#89C4EC;stroke:#A9A1A5;stroke-miterlimit:10;" width="16.164" height="31.161"/>
				<rect x="274.78" y="259.01" style="fill:#4DA4E4;stroke:#A9A1A5;stroke-miterlimit:10;" width="16.164" height="31.161"/>
				<rect x="290.943" y="259.01" style="fill:#89C4EC;stroke:#A9A1A5;stroke-miterlimit:10;" width="16.164" height="31.161"/>
				<rect x="307.107" y="259.01" style="fill:#4DA4E4;stroke:#A9A1A5;stroke-miterlimit:10;" width="16.164" height="31.161"/>
				<rect x="323.271" y="259.01" style="fill:#89C4EC;stroke:#A9A1A5;stroke-miterlimit:10;" width="16.164" height="31.161"/>
				<rect x="339.435" y="259.01" style="fill:#89C4EC;stroke:#A9A1A5;stroke-miterlimit:10;" width="16.164" height="31.161"/>
				<rect x="258.616" y="290.172" style="fill:#4DA4E4;stroke:#A9A1A5;stroke-miterlimit:10;" width="16.164" height="31.162"/>
				<rect x="274.78" y="290.172" style="fill:#89C4EC;stroke:#A9A1A5;stroke-miterlimit:10;" width="16.164" height="31.162"/>
				<rect x="290.943" y="290.172" style="fill:#89C4EC;stroke:#A9A1A5;stroke-miterlimit:10;" width="16.164" height="31.162"/>
				<rect x="307.107" y="290.172" style="fill:#89C4EC;stroke:#A9A1A5;stroke-miterlimit:10;" width="16.164" height="31.162"/>
				<rect x="323.271" y="290.172" style="fill:#89C4EC;stroke:#A9A1A5;stroke-miterlimit:10;" width="16.164" height="31.162"/>
				<rect x="339.435" y="290.172" style="fill:#89C4EC;stroke:#A9A1A5;stroke-miterlimit:10;" width="16.164" height="31.162"/>
				<rect x="258.616" y="321.333" style="fill:#89C4EC;stroke:#A9A1A5;stroke-miterlimit:10;" width="16.164" height="31.161"/>
				<rect x="274.78" y="321.333" style="fill:#89C4EC;stroke:#A9A1A5;stroke-miterlimit:10;" width="16.164" height="31.161"/>
				<rect x="290.943" y="321.333" style="fill:#89C4EC;stroke:#A9A1A5;stroke-miterlimit:10;" width="16.164" height="31.161"/>
				<rect x="307.107" y="321.333" style="fill:#89C4EC;stroke:#A9A1A5;stroke-miterlimit:10;" width="16.164" height="31.161"/>
				<rect x="323.271" y="321.333" style="fill:#89C4EC;stroke:#A9A1A5;stroke-miterlimit:10;" width="16.164" height="31.161"/>
				<rect x="339.435" y="321.333" style="fill:#89C4EC;stroke:#A9A1A5;stroke-miterlimit:10;" width="16.164" height="31.161"/>
				<line style="fill:none;stroke:#000000;stroke-miterlimit:10;" x1="356.638" y1="204.507" x2="356.638" y2="227.849"/>
				<line style="fill:none;stroke:#000000;stroke-miterlimit:10;" x1="359.64" y1="204.507" x2="359.64" y2="227.849"/>
				<line style="fill:none;stroke:#000000;stroke-miterlimit:10;" x1="362.642" y1="204.507" x2="362.642" y2="227.849"/>
				<line style="fill:none;stroke:#000000;stroke-miterlimit:10;" x1="365.644" y1="204.507" x2="365.644" y2="227.849"/>
				<line style="fill:none;stroke:#000000;stroke-miterlimit:10;" x1="368.645" y1="204.507" x2="368.645" y2="227.849"/>
				<line style="fill:none;stroke:#000000;stroke-miterlimit:10;" x1="355.137" y1="210.141" x2="370.262" y2="210.141"/>
				<line style="fill:none;stroke:#000000;stroke-miterlimit:10;" x1="355.137" y1="215.315" x2="370.262" y2="215.315"/>
				<line style="fill:none;stroke:#000000;stroke-miterlimit:10;" x1="355.137" y1="220.49" x2="370.262" y2="220.49"/>
				<line style="fill:none;stroke:#000000;stroke-miterlimit:10;" x1="355.137" y1="225.664" x2="370.262" y2="225.664"/>
				<line style="fill:none;stroke:#000000;stroke-miterlimit:10;" x1="438.16" y1="204.507" x2="438.16" y2="227.849"/>
				<line style="fill:none;stroke:#000000;stroke-miterlimit:10;" x1="441.162" y1="204.507" x2="441.162" y2="227.849"/>
				<line style="fill:none;stroke:#000000;stroke-miterlimit:10;" x1="444.164" y1="204.507" x2="444.164" y2="227.849"/>
				<line style="fill:none;stroke:#000000;stroke-miterlimit:10;" x1="447.166" y1="204.507" x2="447.166" y2="227.849"/>
				<line style="fill:none;stroke:#000000;stroke-miterlimit:10;" x1="450.168" y1="204.507" x2="450.168" y2="227.849"/>
				<line style="fill:none;stroke:#000000;stroke-miterlimit:10;" x1="436.659" y1="210.141" x2="451.784" y2="210.141"/>
				<line style="fill:none;stroke:#000000;stroke-miterlimit:10;" x1="436.659" y1="215.315" x2="451.784" y2="215.315"/>
				<line style="fill:none;stroke:#000000;stroke-miterlimit:10;" x1="436.659" y1="220.49" x2="451.784" y2="220.49"/>
				<line style="fill:none;stroke:#000000;stroke-miterlimit:10;" x1="436.659" y1="225.664" x2="451.784" y2="225.664"/>
				<line style="fill:none;stroke:#000000;stroke-miterlimit:10;" x1="397.163" y1="204.507" x2="397.163" y2="227.849"/>
				<line style="fill:none;stroke:#000000;stroke-miterlimit:10;" x1="380.537" y1="211.712" x2="380.537" y2="227.849"/>
				<line style="fill:none;stroke:#000000;stroke-miterlimit:10;" x1="406.63" y1="211.712" x2="406.63" y2="227.849"/>
				<line style="fill:none;stroke:#000000;stroke-miterlimit:10;" x1="400.165" y1="204.507" x2="400.165" y2="227.849"/>
				<line style="fill:none;stroke:#000000;stroke-miterlimit:10;" x1="395.316" y1="210.141" x2="401.781" y2="210.141"/>
				<line style="fill:none;stroke:#000000;stroke-miterlimit:10;" x1="395.316" y1="215.315" x2="401.781" y2="215.315"/>
				<line style="fill:none;stroke:#000000;stroke-miterlimit:10;" x1="395.316" y1="220.49" x2="401.781" y2="220.49"/>
				<line style="fill:none;stroke:#000000;stroke-miterlimit:10;" x1="395.316" y1="225.664" x2="401.781" y2="225.664"/>
				<rect x="54.301" y="227.849" style="fill:#89C4EC;stroke:#A9A1A5;stroke-miterlimit:10;" width="16.164" height="31.161"/>
				<rect x="70.465" y="227.849" style="fill:#89C4EC;stroke:#A9A1A5;stroke-miterlimit:10;" width="16.164" height="31.161"/>
				<rect x="86.629" y="227.849" style="fill:#89C4EC;stroke:#A9A1A5;stroke-miterlimit:10;" width="16.164" height="31.161"/>
				<rect x="102.793" y="227.849" style="fill:#4DA4E4;stroke:#A9A1A5;stroke-miterlimit:10;" width="16.164" height="31.161"/>
				<rect x="54.301" y="259.01" style="fill:#89C4EC;stroke:#A9A1A5;stroke-miterlimit:10;" width="16.164" height="31.161"/>
				<rect x="70.465" y="259.01" style="fill:#4DA4E4;stroke:#A9A1A5;stroke-miterlimit:10;" width="16.164" height="31.161"/>
				<rect x="86.629" y="259.01" style="fill:#89C4EC;stroke:#A9A1A5;stroke-miterlimit:10;" width="16.164" height="31.161"/>
				<rect x="102.793" y="259.01" style="fill:#89C4EC;stroke:#A9A1A5;stroke-miterlimit:10;" width="16.164" height="31.161"/>
				<rect x="54.301" y="290.172" style="fill:#4DA4E4;stroke:#A9A1A5;stroke-miterlimit:10;" width="16.164" height="31.162"/>
				<rect x="70.465" y="290.172" style="fill:#89C4EC;stroke:#A9A1A5;stroke-miterlimit:10;" width="16.164" height="31.162"/>
				<rect x="86.629" y="290.172" style="fill:#89C4EC;stroke:#A9A1A5;stroke-miterlimit:10;" width="16.164" height="31.162"/>
				<rect x="102.793" y="290.172" style="fill:#4DA4E4;stroke:#A9A1A5;stroke-miterlimit:10;" width="16.164" height="31.162"/>
				<rect x="54.301" y="321.333" style="fill:#89C4EC;stroke:#A9A1A5;stroke-miterlimit:10;" width="16.164" height="31.161"/>
				<rect x="70.465" y="321.333" style="fill:#89C4EC;stroke:#A9A1A5;stroke-miterlimit:10;" width="16.164" height="31.161"/>
				<rect x="86.629" y="321.333" style="fill:#89C4EC;stroke:#A9A1A5;stroke-miterlimit:10;" width="16.164" height="31.161"/>
				<rect x="102.793" y="321.333" style="fill:#89C4EC;stroke:#A9A1A5;stroke-miterlimit:10;" width="16.164" height="31.161"/>
				<line style="fill:none;stroke:#000000;stroke-miterlimit:10;" x1="104.535" y1="204.507" x2="104.535" y2="227.849"/>
				<line style="fill:none;stroke:#000000;stroke-miterlimit:10;" x1="107.537" y1="204.507" x2="107.537" y2="227.849"/>
				<line style="fill:none;stroke:#000000;stroke-miterlimit:10;" x1="110.539" y1="204.507" x2="110.539" y2="227.849"/>
				<line style="fill:none;stroke:#000000;stroke-miterlimit:10;" x1="113.541" y1="204.507" x2="113.541" y2="227.849"/>
				<line style="fill:none;stroke:#000000;stroke-miterlimit:10;" x1="116.542" y1="204.507" x2="116.542" y2="227.849"/>
				<line style="fill:none;stroke:#000000;stroke-miterlimit:10;" x1="103.034" y1="210.141" x2="118.159" y2="210.141"/>
				<line style="fill:none;stroke:#000000;stroke-miterlimit:10;" x1="103.034" y1="215.315" x2="118.159" y2="215.315"/>
				<line style="fill:none;stroke:#000000;stroke-miterlimit:10;" x1="103.034" y1="220.49" x2="118.159" y2="220.49"/>
				<line style="fill:none;stroke:#000000;stroke-miterlimit:10;" x1="103.034" y1="225.664" x2="118.159" y2="225.664"/>
				<line style="fill:none;stroke:#000000;stroke-miterlimit:10;" x1="63.538" y1="204.507" x2="63.538" y2="227.849"/>
				<line style="fill:none;stroke:#000000;stroke-miterlimit:10;" x1="73.005" y1="211.712" x2="73.005" y2="227.849"/>
				<line style="fill:none;stroke:#000000;stroke-miterlimit:10;" x1="66.54" y1="204.507" x2="66.54" y2="227.849"/>
				<line style="fill:none;stroke:#000000;stroke-miterlimit:10;" x1="61.691" y1="210.141" x2="68.156" y2="210.141"/>
				<line style="fill:none;stroke:#000000;stroke-miterlimit:10;" x1="61.691" y1="215.315" x2="68.156" y2="215.315"/>
				<line style="fill:none;stroke:#000000;stroke-miterlimit:10;" x1="61.691" y1="220.49" x2="68.156" y2="220.49"/>
				<line style="fill:none;stroke:#000000;stroke-miterlimit:10;" x1="61.691" y1="225.664" x2="68.156" y2="225.664"/>
			</g>
		</g>
		<g>
			<line style="fill:none;stroke:#000000;stroke-miterlimit:10;" x1="158.927" y1="98.178" x2="158.927" y2="126.603"/>
			<line style="fill:none;stroke:#000000;stroke-miterlimit:10;" x1="162.582" y1="98.178" x2="162.582" y2="126.603"/>
			<line style="fill:none;stroke:#000000;stroke-miterlimit:10;" x1="166.238" y1="98.178" x2="166.238" y2="126.603"/>
			<line style="fill:none;stroke:#000000;stroke-miterlimit:10;" x1="169.894" y1="98.178" x2="169.894" y2="126.603"/>
			<line style="fill:none;stroke:#000000;stroke-miterlimit:10;" x1="173.549" y1="98.178" x2="173.549" y2="126.603"/>
			<line style="fill:none;stroke:#000000;stroke-miterlimit:10;" x1="157.099" y1="105.039" x2="175.518" y2="105.039"/>
			<line style="fill:none;stroke:#000000;stroke-miterlimit:10;" x1="157.099" y1="111.34" x2="175.518" y2="111.34"/>
			<line style="fill:none;stroke:#000000;stroke-miterlimit:10;" x1="157.099" y1="117.641" x2="175.518" y2="117.641"/>
			<line style="fill:none;stroke:#000000;stroke-miterlimit:10;" x1="157.099" y1="123.943" x2="175.518" y2="123.943"/>
			<line style="fill:none;stroke:#000000;stroke-miterlimit:10;" x1="201.429" y1="98.178" x2="201.429" y2="126.603"/>
			<line style="fill:none;stroke:#000000;stroke-miterlimit:10;" x1="205.085" y1="98.178" x2="205.085" y2="126.603"/>
			<line style="fill:none;stroke:#000000;stroke-miterlimit:10;" x1="208.74" y1="98.178" x2="208.74" y2="126.603"/>
			<line style="fill:none;stroke:#000000;stroke-miterlimit:10;" x1="212.396" y1="98.178" x2="212.396" y2="126.603"/>
			<line style="fill:none;stroke:#000000;stroke-miterlimit:10;" x1="216.051" y1="98.178" x2="216.051" y2="126.603"/>
			<line style="fill:none;stroke:#000000;stroke-miterlimit:10;" x1="199.601" y1="105.039" x2="218.02" y2="105.039"/>
			<line style="fill:none;stroke:#000000;stroke-miterlimit:10;" x1="199.601" y1="111.34" x2="218.02" y2="111.34"/>
			<line style="fill:none;stroke:#000000;stroke-miterlimit:10;" x1="199.601" y1="117.641" x2="218.02" y2="117.641"/>
			<line style="fill:none;stroke:#000000;stroke-miterlimit:10;" x1="199.601" y1="123.943" x2="218.02" y2="123.943"/>
			<line style="fill:none;stroke:#000000;stroke-miterlimit:10;" x1="131.529" y1="82.08" x2="131.529" y2="137.505"/>
			<line style="fill:none;stroke:#000000;stroke-miterlimit:10;" x1="135.86" y1="82.08" x2="135.86" y2="137.505"/>
			<line style="fill:none;stroke:#000000;stroke-miterlimit:10;" x1="140.19" y1="82.08" x2="140.19" y2="137.505"/>
			<line style="fill:none;stroke:#000000;stroke-miterlimit:10;" x1="144.521" y1="82.08" x2="144.521" y2="137.505"/>
			<line style="fill:none;stroke:#000000;stroke-miterlimit:10;" x1="148.851" y1="82.08" x2="148.851" y2="128.505"/>
			<line style="fill:none;stroke:#000000;stroke-miterlimit:10;" x1="129.364" y1="88.941" x2="151.183" y2="88.941"/>
			<line style="fill:none;stroke:#000000;stroke-miterlimit:10;" x1="129.364" y1="95.242" x2="151.183" y2="95.242"/>
			<line style="fill:none;stroke:#000000;stroke-miterlimit:10;" x1="129.364" y1="101.543" x2="151.183" y2="101.543"/>
			<line style="fill:none;stroke:#000000;stroke-miterlimit:10;" x1="129.364" y1="107.844" x2="151.183" y2="107.844"/>
			<g>
				<rect x="163.793" y="124.935" style="fill:#C4C2C2;" width="56.982" height="232.559"/>
				<rect x="169.648" y="124.935" style="fill:#272532;" width="47.094" height="232.559"/>
				
					<rect x="169.287" y="213.957" transform="matrix(-1 -1.224647e-16 1.224647e-16 -1 386.029 571.4516)" style="fill:#A9A1A5;" width="47.454" height="143.538"/>
				
					<rect x="169.287" y="150.422" transform="matrix(-1 -1.224647e-16 1.224647e-16 -1 386.029 319.8082)" style="fill:#89C4EC;" width="47.454" height="18.965"/>
				
					<rect x="169.287" y="173.992" transform="matrix(-1 -1.224647e-16 1.224647e-16 -1 386.029 366.9488)" style="fill:#89C4EC;" width="47.454" height="18.965"/>
				
					<rect x="169.287" y="197.562" transform="matrix(-1 -1.224647e-16 1.224647e-16 -1 386.029 414.0892)" style="fill:#89C4EC;" width="47.454" height="18.965"/>
				<rect x="193.479" y="114.292" style="fill:#DCDFEA;" width="1.953" height="243.202"/>
				<rect x="191.526" y="114.292" style="fill:#C4C2C2;" width="1.953" height="243.202"/>
				<rect x="184.708" y="114.292" style="fill:#DCDFEA;" width="1.953" height="243.202"/>
				<rect x="182.755" y="114.292" style="fill:#C4C2C2;" width="1.953" height="243.202"/>
				<rect x="210.233" y="114.292" style="fill:#DCDFEA;" width="1.953" height="243.202"/>
				<rect x="208.281" y="114.292" style="fill:#C4C2C2;" width="1.953" height="243.202"/>
				<rect x="201.463" y="96.292" style="fill:#DCDFEA;" width="1.953" height="261.202"/>
				<rect x="199.51" y="96.292" style="fill:#C4C2C2;" width="1.953" height="261.202"/>
				<rect x="175.938" y="96.292" style="fill:#DCDFEA;" width="1.953" height="261.202"/>
				<rect x="173.985" y="96.292" style="fill:#C4C2C2;" width="1.953" height="261.202"/>
			</g>
			<g>
				<rect x="127.329" y="124.935" style="fill:#DCDFEA;" width="37.043" height="232.559"/>
				<rect x="131.136" y="124.935" style="fill:#272532;" width="30.615" height="232.559"/>
				
					<rect x="130.901" y="213.957" transform="matrix(-1 -1.224647e-16 1.224647e-16 -1 292.652 571.4516)" style="fill:#A9A1A5;" width="30.849" height="143.538"/>
				
					<rect x="130.901" y="150.422" transform="matrix(-1 -1.224647e-16 1.224647e-16 -1 292.652 319.8082)" style="fill:#89C4EC;" width="30.849" height="18.965"/>
				
					<rect x="140.19" y="150.422" transform="matrix(-1 -1.224647e-16 1.224647e-16 -1 286.8182 319.8082)" style="fill:#4DA4E4;" width="6.437" height="18.965"/>
				
					<rect x="130.901" y="173.992" transform="matrix(-1 -1.224647e-16 1.224647e-16 -1 292.652 366.9488)" style="fill:#89C4EC;" width="30.849" height="18.965"/>
				
					<rect x="130.901" y="173.992" transform="matrix(-1 -1.224647e-16 1.224647e-16 -1 272.4623 366.9488)" style="fill:#4DA4E4;" width="10.66" height="18.965"/>
				
					<rect x="130.901" y="197.562" transform="matrix(-1 -1.224647e-16 1.224647e-16 -1 292.652 414.0892)" style="fill:#89C4EC;" width="30.849" height="18.965"/>
				<rect x="146.628" y="96.292" style="fill:#DCDFEA;" width="1.269" height="261.202"/>
				<rect x="145.358" y="96.292" style="fill:#C4C2C2;" width="1.269" height="261.202"/>
				<rect x="140.926" y="114.292" style="fill:#DCDFEA;" width="1.269" height="243.202"/>
				<rect x="139.657" y="114.292" style="fill:#C4C2C2;" width="1.269" height="243.202"/>
				<rect x="157.52" y="96.292" style="fill:#DCDFEA;" width="1.269" height="261.202"/>
				<rect x="156.25" y="96.292" style="fill:#C4C2C2;" width="1.269" height="261.202"/>
				<rect x="151.818" y="96.292" style="fill:#DCDFEA;" width="1.269" height="261.202"/>
				<rect x="150.549" y="96.292" style="fill:#C4C2C2;" width="1.269" height="261.202"/>
				<rect x="135.225" y="114.292" style="fill:#DCDFEA;" width="1.269" height="243.202"/>
				<rect x="133.955" y="114.292" style="fill:#C4C2C2;" width="1.269" height="243.202"/>
			</g>
		</g>
		<path style="fill:#FFFFFF;" d="M71.768,62.586c3.476,2.317,12.476-1.089,17.793,0c7.322,1.5,13.914,0.465,25.356,0.826
			c18.121,0.572,23.206,0.451,23.878-1.67c0.522-1.648-1.762-4.041-3.608-5.171c-3.811-2.333-6.319,0.371-11.742-1.31
			c-4.771-1.479-4.76-4.17-8.187-4.094c-3.483,0.078-4.398,2.878-8.869,3.048c-0.674,0.026-2.962,0.21-5.232-1.055
			c-4.46-2.486-4.089-8.453-14.212-8.133c-7.627,0.241-9.14,6.818-12.875,8.847C70.335,55.904,60.929,59.452,71.768,62.586z"/>
		<path style="fill:#FFFFFF;" d="M371.737,95.597c6.005,4.002,21.552-1.882,30.738,0c9.186,1.882,28.124-1.234,39.854-0.382
			c11.73,0.851,9.829-8.335-8.653-6.922c-15.627,1.195-16.346-15.223-25.844-15.018c-5.842,0.126-4.873,3.783-14.14,6.104
			c-10.312,2.583-14.784-1.124-23.023,2.924c-1.444,0.709-8.156,4.007-7.653,7.798C363.356,92.673,366.943,94.882,371.737,95.597z"
			/>
		<path style="fill:#FFFFFF;" d="M315.08,71.288c8.495,2.34,13.573-1.276,23.418,0c29.351,3.805,41.365-0.469,31.007-2.575
			c-10.358-2.105-16.654-4.184-22.066-9.565c-5.413-5.382-11.189-6.45-17.526-0.665c-6.337,5.785-11.69,2.078-15.566,4.867
			C310.47,66.14,307.064,70.033,315.08,71.288z"/>
		<g>
			<path style="fill:#EBBC0E;" d="M31.871,377.886h211.943c0,0-30.803-37.096-53.42-24.787s-31.205-61.015-76.844-42.482
				c-45.639,18.533-29.674,37.564-54.767,37.066C33.69,347.186,31.871,377.886,31.871,377.886z"/>
			<g>
				<path style="fill:#F4CC5B;" d="M97.564,332.252c0,0.39-0.3,0.705-0.67,0.705c-0.37,0-0.67-0.316-0.67-0.705
					c0-0.39,0.3-0.706,0.67-0.706C97.264,331.546,97.564,331.862,97.564,332.252z"/>
				<path style="fill:#F4CC5B;" d="M109.222,332.252c0,0.39-0.3,0.705-0.67,0.705c-0.37,0-0.67-0.316-0.67-0.705
					c0-0.39,0.3-0.706,0.67-0.706C108.922,331.546,109.222,331.862,109.222,332.252z"/>
				<path style="fill:#F4CC5B;" d="M120.88,332.252c0,0.39-0.3,0.705-0.67,0.705c-0.37,0-0.67-0.316-0.67-0.705
					c0-0.39,0.3-0.706,0.67-0.706C120.58,331.546,120.88,331.862,120.88,332.252z"/>
				<path style="fill:#F4CC5B;" d="M132.538,332.252c0,0.39-0.3,0.705-0.67,0.705c-0.37,0-0.67-0.316-0.67-0.705
					c0-0.39,0.3-0.706,0.67-0.706C132.238,331.546,132.538,331.862,132.538,332.252z"/>
				<ellipse style="fill:#F4CC5B;" cx="108.552" cy="318.287" rx="0.67" ry="0.706"/>
				<ellipse style="fill:#F4CC5B;" cx="120.21" cy="318.287" rx="0.67" ry="0.706"/>
				<ellipse style="fill:#F4CC5B;" cx="131.868" cy="318.287" rx="0.67" ry="0.706"/>
				<path style="fill:#F4CC5B;" d="M144.196,332.252c0,0.39-0.3,0.705-0.67,0.705c-0.37,0-0.67-0.316-0.67-0.705
					c0-0.39,0.3-0.706,0.67-0.706C143.896,331.546,144.196,331.862,144.196,332.252z"/>
				<path style="fill:#F4CC5B;" d="M103.924,324.228c0,0.39-0.3,0.706-0.67,0.706c-0.37,0-0.67-0.316-0.67-0.706
					s0.3-0.706,0.67-0.706C103.624,323.522,103.924,323.838,103.924,324.228z"/>
				<path style="fill:#F4CC5B;" d="M115.582,324.228c0,0.39-0.3,0.706-0.67,0.706c-0.37,0-0.67-0.316-0.67-0.706
					s0.3-0.706,0.67-0.706C115.282,323.522,115.582,323.838,115.582,324.228z"/>
				<path style="fill:#F4CC5B;" d="M127.24,324.228c0,0.39-0.3,0.706-0.67,0.706c-0.37,0-0.67-0.316-0.67-0.706
					s0.3-0.706,0.67-0.706C126.94,323.522,127.24,323.838,127.24,324.228z"/>
				<path style="fill:#F4CC5B;" d="M138.898,324.228c0,0.39-0.3,0.706-0.67,0.706c-0.37,0-0.67-0.316-0.67-0.706
					s0.3-0.706,0.67-0.706C138.598,323.522,138.898,323.838,138.898,324.228z"/>
				<path style="fill:#F4CC5B;" d="M150.556,324.228c0,0.39-0.3,0.706-0.67,0.706c-0.37,0-0.67-0.316-0.67-0.706
					s0.3-0.706,0.67-0.706C150.256,323.522,150.556,323.838,150.556,324.228z"/>
				<path style="fill:#F4CC5B;" d="M97.564,347.469c0,0.39-0.3,0.705-0.67,0.705c-0.37,0-0.67-0.316-0.67-0.705
					s0.3-0.706,0.67-0.706C97.264,346.763,97.564,347.079,97.564,347.469z"/>
				<path style="fill:#F4CC5B;" d="M81.265,347.469c0,0.39-0.3,0.705-0.67,0.705c-0.37,0-0.67-0.316-0.67-0.705
					s0.3-0.706,0.67-0.706C80.965,346.763,81.265,347.079,81.265,347.469z"/>
				<path style="fill:#F4CC5B;" d="M109.222,347.469c0,0.39-0.3,0.705-0.67,0.705c-0.37,0-0.67-0.316-0.67-0.705
					s0.3-0.706,0.67-0.706C108.922,346.763,109.222,347.079,109.222,347.469z"/>
				<path style="fill:#F4CC5B;" d="M89.265,351.564c0,0.39-0.3,0.706-0.67,0.706c-0.37,0-0.67-0.316-0.67-0.706
					c0-0.39,0.3-0.706,0.67-0.706C88.965,350.859,89.265,351.175,89.265,351.564z"/>
				<path style="fill:#F4CC5B;" d="M120.88,347.469c0,0.39-0.3,0.705-0.67,0.705c-0.37,0-0.67-0.316-0.67-0.705
					s0.3-0.706,0.67-0.706C120.58,346.763,120.88,347.079,120.88,347.469z"/>
				<path style="fill:#F4CC5B;" d="M115.582,355.049c0,0.39-0.3,0.705-0.67,0.705c-0.37,0-0.67-0.316-0.67-0.705
					c0-0.39,0.3-0.706,0.67-0.706C115.282,354.343,115.582,354.659,115.582,355.049z"/>
				<path style="fill:#F4CC5B;" d="M103.924,352.984c0,0.39-0.3,0.706-0.67,0.706c-0.37,0-0.67-0.316-0.67-0.706
					c0-0.39,0.3-0.705,0.67-0.705C103.624,352.278,103.924,352.594,103.924,352.984z"/>
				<path style="fill:#F4CC5B;" d="M132.538,347.469c0,0.39-0.3,0.705-0.67,0.705c-0.37,0-0.67-0.316-0.67-0.705
					s0.3-0.706,0.67-0.706C132.238,346.763,132.538,347.079,132.538,347.469z"/>
				<path style="fill:#F4CC5B;" d="M144.196,347.469c0,0.39-0.3,0.705-0.67,0.705c-0.37,0-0.67-0.316-0.67-0.705
					s0.3-0.706,0.67-0.706C143.896,346.763,144.196,347.079,144.196,347.469z"/>
				<path style="fill:#F4CC5B;" d="M103.924,339.445c0,0.39-0.3,0.706-0.67,0.706c-0.37,0-0.67-0.316-0.67-0.706
					c0-0.39,0.3-0.705,0.67-0.705C103.624,338.739,103.924,339.055,103.924,339.445z"/>
				<path style="fill:#F4CC5B;" d="M88.131,339.445c0,0.39-0.3,0.706-0.67,0.706c-0.37,0-0.67-0.316-0.67-0.706
					c0-0.39,0.3-0.705,0.67-0.705C87.831,338.739,88.131,339.055,88.131,339.445z"/>
				<path style="fill:#F4CC5B;" d="M115.582,339.445c0,0.39-0.3,0.706-0.67,0.706c-0.37,0-0.67-0.316-0.67-0.706
					c0-0.39,0.3-0.705,0.67-0.705C115.282,338.739,115.582,339.055,115.582,339.445z"/>
				<path style="fill:#F4CC5B;" d="M127.24,339.445c0,0.39-0.3,0.706-0.67,0.706c-0.37,0-0.67-0.316-0.67-0.706
					c0-0.39,0.3-0.705,0.67-0.705C126.94,338.739,127.24,339.055,127.24,339.445z"/>
				<path style="fill:#F4CC5B;" d="M138.898,339.445c0,0.39-0.3,0.706-0.67,0.706c-0.37,0-0.67-0.316-0.67-0.706
					c0-0.39,0.3-0.705,0.67-0.705C138.598,338.739,138.898,339.055,138.898,339.445z"/>
				<path style="fill:#F4CC5B;" d="M150.556,339.445c0,0.39-0.3,0.706-0.67,0.706c-0.37,0-0.67-0.316-0.67-0.706
					c0-0.39,0.3-0.705,0.67-0.705C150.256,338.739,150.556,339.055,150.556,339.445z"/>
			</g>
		</g>
	</g>
</g>
<g id="OBJECTS_2_">
	
		<linearGradient id="SVGID_00000157295651923222764800000015779616729494751374_" gradientUnits="userSpaceOnUse" x1="204.8928" y1="466.9818" x2="204.8928" y2="455.9608">
		<stop  offset="0.0093" style="stop-color:#89C4EC"/>
		<stop  offset="1" style="stop-color:#89C4EC"/>
	</linearGradient>
	<path style="fill:url(#SVGID_00000157295651923222764800000015779616729494751374_);" d="M177.059,456.07
		c-16.2,1.832-30.036,7.206,2.452,8.911c32.488,1.705,41.597,2.469,51.408,1.705c9.81-0.764,23.4-1.485,17.754-5.134
		c-5.645-3.649-10.729-7.216-17.754-4.802C223.894,459.163,177.059,456.07,177.059,456.07z"/>
	
		<linearGradient id="SVGID_00000039123063469176219450000003748320761615273108_" gradientUnits="userSpaceOnUse" x1="344.7463" y1="401.2034" x2="344.7463" y2="396.2441">
		<stop  offset="0.0093" style="stop-color:#89C4EC"/>
		<stop  offset="1" style="stop-color:#89C4EC"/>
	</linearGradient>
	<path style="fill:url(#SVGID_00000039123063469176219450000003748320761615273108_);" d="M259.654,396.244
		c31.297,0.019,58.334,0,71.413,0c13.079,0,49.01,0,49.01,0s31.228,0.635,47.568,0.668c16.339,0.033,32.574,0.768,20.891,1.627
		c-11.683,0.86-60.356,0.685-63.831,1.035c-3.476,0.351-67.934,1.928-79.562,1.578c-11.628-0.351-33.698-0.526-38.708-0.876
		C261.424,399.926,207.251,397.822,259.654,396.244z"/>
	
		<linearGradient id="SVGID_00000167398381259210444900000016918547857942174095_" gradientUnits="userSpaceOnUse" x1="59.0327" y1="451.5836" x2="59.0327" y2="447.9135">
		<stop  offset="0.0093" style="stop-color:#89C4EC"/>
		<stop  offset="1" style="stop-color:#89C4EC"/>
	</linearGradient>
	<path style="fill:url(#SVGID_00000167398381259210444900000016918547857942174095_);" d="M88.44,449.749
		c0,1.013-13.166,1.835-29.408,1.835c-16.241,0-29.408-0.822-29.408-1.835c0-1.013,13.166-1.835,29.408-1.835
		C75.274,447.914,88.44,448.735,88.44,449.749z"/>
	
		<linearGradient id="SVGID_00000130628914042736330610000008250491020615168168_" gradientUnits="userSpaceOnUse" x1="112.4687" y1="451.5836" x2="112.4687" y2="447.9135">
		<stop  offset="0.0093" style="stop-color:#89C4EC"/>
		<stop  offset="1" style="stop-color:#89C4EC"/>
	</linearGradient>
	<path style="fill:url(#SVGID_00000130628914042736330610000008250491020615168168_);" d="M141.876,449.749
		c0,1.013-13.166,1.835-29.408,1.835c-16.241,0-29.408-0.822-29.408-1.835c0-1.013,13.166-1.835,29.408-1.835
		C128.71,447.914,141.876,448.735,141.876,449.749z"/>
	<g>
		<path style="fill:#474D4D;" d="M473.741,362.865h-77.733c0,0,13.251-32.448,39.993-29.669
			c15.214,1.581,13.661,14.577,25.279,14.324C472.899,347.267,473.741,362.865,473.741,362.865z"/>
		<g>
			<path style="fill:#706C9B;" d="M446.228,343.325c0,0.179,0.154,0.325,0.344,0.325c0.19,0,0.344-0.145,0.344-0.325
				c0-0.179-0.154-0.325-0.344-0.325C446.382,343.001,446.228,343.146,446.228,343.325z"/>
			<path style="fill:#706C9B;" d="M440.248,343.325c0,0.179,0.154,0.325,0.344,0.325c0.19,0,0.344-0.145,0.344-0.325
				c0-0.179-0.154-0.325-0.344-0.325C440.401,343.001,440.248,343.146,440.248,343.325z"/>
			<path style="fill:#706C9B;" d="M434.267,343.325c0,0.179,0.154,0.325,0.344,0.325c0.19,0,0.344-0.145,0.344-0.325
				c0-0.179-0.154-0.325-0.344-0.325C434.421,343.001,434.267,343.146,434.267,343.325z"/>
			<path style="fill:#706C9B;" d="M428.287,343.325c0,0.179,0.154,0.325,0.344,0.325c0.19,0,0.344-0.145,0.344-0.325
				c0-0.179-0.154-0.325-0.344-0.325C428.441,343.001,428.287,343.146,428.287,343.325z"/>
			<path style="fill:#706C9B;" d="M440.248,336.901c0,0.179,0.154,0.325,0.344,0.325c0.19,0,0.344-0.145,0.344-0.325
				c0-0.179-0.154-0.325-0.344-0.325C440.401,336.577,440.248,336.722,440.248,336.901z"/>
			<path style="fill:#706C9B;" d="M434.267,336.901c0,0.179,0.154,0.325,0.344,0.325c0.19,0,0.344-0.145,0.344-0.325
				c0-0.179-0.154-0.325-0.344-0.325C434.421,336.577,434.267,336.722,434.267,336.901z"/>
			<path style="fill:#706C9B;" d="M428.287,336.901c0,0.179,0.154,0.325,0.344,0.325c0.19,0,0.344-0.145,0.344-0.325
				c0-0.179-0.154-0.325-0.344-0.325C428.441,336.577,428.287,336.722,428.287,336.901z"/>
			<path style="fill:#706C9B;" d="M422.307,343.325c0,0.179,0.154,0.325,0.344,0.325s0.344-0.145,0.344-0.325
				c0-0.179-0.154-0.325-0.344-0.325S422.307,343.146,422.307,343.325z"/>
			<path style="fill:#706C9B;" d="M442.965,339.634c0,0.179,0.154,0.325,0.344,0.325c0.19,0,0.344-0.145,0.344-0.325
				c0-0.179-0.154-0.324-0.344-0.324C443.119,339.31,442.965,339.455,442.965,339.634z"/>
			<path style="fill:#706C9B;" d="M436.985,339.634c0,0.179,0.154,0.325,0.344,0.325c0.19,0,0.344-0.145,0.344-0.325
				c0-0.179-0.154-0.324-0.344-0.324C437.139,339.31,436.985,339.455,436.985,339.634z"/>
			<path style="fill:#706C9B;" d="M431.005,339.634c0,0.179,0.154,0.325,0.344,0.325s0.344-0.145,0.344-0.325
				c0-0.179-0.154-0.324-0.344-0.324S431.005,339.455,431.005,339.634z"/>
			<path style="fill:#706C9B;" d="M425.024,339.634c0,0.179,0.154,0.325,0.344,0.325c0.19,0,0.344-0.145,0.344-0.325
				c0-0.179-0.154-0.324-0.344-0.324C425.178,339.31,425.024,339.455,425.024,339.634z"/>
			<path style="fill:#706C9B;" d="M419.044,339.634c0,0.179,0.154,0.325,0.344,0.325c0.19,0,0.344-0.145,0.344-0.325
				c0-0.179-0.154-0.324-0.344-0.324C419.198,339.31,419.044,339.455,419.044,339.634z"/>
			<path style="fill:#706C9B;" d="M446.228,350.326c0,0.179,0.154,0.324,0.344,0.324c0.19,0,0.344-0.145,0.344-0.324
				s-0.154-0.324-0.344-0.324C446.382,350.001,446.228,350.146,446.228,350.326z"/>
			<path style="fill:#706C9B;" d="M454.589,350.326c0,0.179,0.154,0.324,0.344,0.324c0.19,0,0.344-0.145,0.344-0.324
				s-0.154-0.324-0.344-0.324C454.743,350.001,454.589,350.146,454.589,350.326z"/>
			<ellipse style="fill:#706C9B;" cx="440.591" cy="350.326" rx="0.344" ry="0.324"/>
			<path style="fill:#706C9B;" d="M450.485,352.21c0,0.179,0.154,0.325,0.344,0.325s0.344-0.145,0.344-0.325
				c0-0.179-0.154-0.324-0.344-0.324S450.485,352.03,450.485,352.21z"/>
			<ellipse style="fill:#706C9B;" cx="434.611" cy="350.326" rx="0.344" ry="0.324"/>
			<path style="fill:#706C9B;" d="M436.985,353.812c0,0.179,0.154,0.324,0.344,0.324c0.19,0,0.344-0.145,0.344-0.324
				c0-0.179-0.154-0.325-0.344-0.325C437.139,353.488,436.985,353.633,436.985,353.812z"/>
			<ellipse style="fill:#706C9B;" cx="443.309" cy="352.862" rx="0.344" ry="0.324"/>
			<ellipse style="fill:#706C9B;" cx="428.631" cy="350.326" rx="0.344" ry="0.324"/>
			<path style="fill:#706C9B;" d="M422.307,350.326c0,0.179,0.154,0.324,0.344,0.324s0.344-0.145,0.344-0.324
				s-0.154-0.324-0.344-0.324S422.307,350.146,422.307,350.326z"/>
			<path style="fill:#706C9B;" d="M442.965,346.634c0,0.179,0.154,0.324,0.344,0.324c0.19,0,0.344-0.145,0.344-0.324
				c0-0.179-0.154-0.325-0.344-0.325C443.119,346.31,442.965,346.455,442.965,346.634z"/>
			<path style="fill:#706C9B;" d="M451.067,346.634c0,0.179,0.154,0.324,0.344,0.324c0.19,0,0.344-0.145,0.344-0.324
				c0-0.179-0.154-0.325-0.344-0.325C451.221,346.31,451.067,346.455,451.067,346.634z"/>
			<path style="fill:#706C9B;" d="M436.985,346.634c0,0.179,0.154,0.324,0.344,0.324c0.19,0,0.344-0.145,0.344-0.324
				c0-0.179-0.154-0.325-0.344-0.325C437.139,346.31,436.985,346.455,436.985,346.634z"/>
			<path style="fill:#706C9B;" d="M431.005,346.634c0,0.179,0.154,0.324,0.344,0.324s0.344-0.145,0.344-0.324
				c0-0.179-0.154-0.325-0.344-0.325S431.005,346.455,431.005,346.634z"/>
			<path style="fill:#706C9B;" d="M425.024,346.634c0,0.179,0.154,0.324,0.344,0.324c0.19,0,0.344-0.145,0.344-0.324
				c0-0.179-0.154-0.325-0.344-0.325C425.178,346.31,425.024,346.455,425.024,346.634z"/>
			<path style="fill:#706C9B;" d="M419.044,346.634c0,0.179,0.154,0.324,0.344,0.324c0.19,0,0.344-0.145,0.344-0.324
				c0-0.179-0.154-0.325-0.344-0.325C419.198,346.31,419.044,346.455,419.044,346.634z"/>
		</g>
	</g>
	<g>
		<path style="fill:#5E1A1E;" d="M186.225,165.275c-10.288-3.425-18.557,8.57-12.098,18.199c6.459,9.629-4.864,8.85-7.889,8.287
			c2.479,28.623,43.59-1.207,23.882-20.239"/>
		<ellipse style="fill:#5E1A1E;" cx="200.41" cy="166.889" rx="15.155" ry="17.209"/>
		<path style="fill:#AC290E;" d="M231.401,330.138c-9.128,0.194-18.266,0.273-27.412,0.293l3.931,24.038
			c-0.753,6.294-1.334,12.847-1.694,19.644c-0.808,15.262,0.832,25.091,2.766,36.918c1.069,6.54,2.949,31.456,3.205,36.562
			c7.322,0,3.618-0.74,10.941-0.74c-0.026-1.495,6.442-73.964,6.128-92.134C230.607,347.467,231.265,339.224,231.401,330.138z"/>
		<g>
			<path style="fill:#272532;" d="M210.48,450.905c0.261-1.223,0.6-2.317,0.963-3.303c5.751-0.028,8.404,9.289,12.748,12.38
				c1.596-2.553,4.673-3.327,6.65-3.558c4.258,4.986,8.625,8.182,1.457,8.522c-10.77,0.021-19.056-7.53-19.056-7.53l0.128,2.792
				c-1.017,0-2.034,0-3.05,0C209.941,458.022,209.665,454.732,210.48,450.905z"/>
			<path style="fill:#AC290E;" d="M224.191,459.981c-4.344-3.091-6.996-12.408-12.748-12.38c0.216-0.585,0.438-1.141,0.663-1.638
				c0,0,3.173-0.977,11.018-0.977c0.316,3.679,5.36,8.677,7.717,11.437C228.864,456.654,225.788,457.428,224.191,459.981z"/>
		</g>
		<path style="fill:none;stroke:#3545C3;stroke-width:0.5;stroke-linecap:round;stroke-linejoin:round;stroke-miterlimit:10;" d="
			M236.047,462.606c-3.107,2.219-9.6,1.282-15.478-2.22c-5.878-3.502-6.417-7.245-10.241-7.297"/>
		<path style="fill:#AC290E;" d="M171.271,330.341l4.089,24.127c-0.753,6.294-1.334,12.847-1.694,19.644
			c-0.808,15.262,0.832,25.091,2.766,36.918c1.069,6.54,2.454,31.456,2.71,36.562c7.322,0,3.618-0.74,10.941-0.74
			c-0.026-1.495,6.442-73.964,6.128-92.134c1.325-7.171,1.983-15.314,2.128-24.282C189.321,330.433,180.297,330.385,171.271,330.341
			z"/>
		<g>
			<path style="fill:#272532;" d="M177.424,450.905c0.26-1.223,0.6-2.317,0.963-3.303c5.751-0.028,8.404,9.289,12.748,12.38
				c1.596-2.553,4.673-3.327,6.65-3.558c4.258,4.986,8.625,8.182,1.457,8.522c-10.77,0.021-19.056-7.53-19.056-7.53l0.128,2.792
				c-1.017,0-2.033,0-3.05,0C176.884,458.022,176.608,454.732,177.424,450.905z"/>
			<path style="fill:#AC290E;" d="M191.135,459.981c-4.344-3.091-6.997-12.408-12.748-12.38c0.215-0.585,0.438-1.141,0.663-1.638
				c0,0,3.173-0.977,11.018-0.977c0.316,3.679,5.36,8.677,7.717,11.437C195.807,456.654,192.731,457.428,191.135,459.981z"/>
		</g>
		<path style="fill:none;stroke:#3545C3;stroke-width:0.5;stroke-linecap:round;stroke-linejoin:round;stroke-miterlimit:10;" d="
			M202.725,462.606c-3.107,2.219-9.6,1.282-15.478-2.22c-5.878-3.502-6.417-7.245-10.241-7.297"/>
		<path style="fill:#272532;" d="M179.528,266.97c0,0-15.604,59.49-14.795,90.454c21.765,10.528,27.373-0.577,40.261,4.019
			c12.888,4.596,31.816-6.462,31.816-6.462s-10.542-75.557-17.377-89.506C199.078,267.612,179.528,266.97,179.528,266.97z"/>
		<path style="fill:#3545C3;" d="M174.534,274.701c6.048,7.158,16.962,9.307,26.647,9.3c0.71,0,3.675-10.837,4.385-10.846
			c0.699-0.009,2.216,10.863,2.915,10.846c8.574-0.208,10.602-1.681,16.819-6.363c-5.867-30.649,7.135-68.082,1.987-76.615
			c-4.244-7.034-11.127-8.705-12.118-8.801c-11.107-1.075-19.345-1.075-30.452,0c-1.159,0.112-9.331,3.187-13.398,10.162
			c-5.053,8.666,2.768,16.659,4.854,31.325C177.496,243.018,181.45,252.953,174.534,274.701z"/>
		<path style="fill:none;stroke:#3545C3;stroke-width:0.5;stroke-linecap:round;stroke-linejoin:round;stroke-miterlimit:10;" d="
			M165.616,354.697c0,0,8.481,4.375,20.881,3.977c12.4-0.398,14.713-4.962,19.989,0.026s25.183-4.283,29.765-7.624"/>
		<path style="fill:#FFFFFF;" d="M187.093,192.137l17.078,38.523c2.753-5.267,5.808-12.387,7.838-21.156
			c1.519-6.563,2.1-12.476,2.248-17.367C211.895,191.77,192.127,190.555,187.093,192.137z"/>
		<path style="fill:#AC290E;" d="M193.411,191.921c1.579,0.745,11.059,15.633,11.059,15.633s2.462-14.911,3.993-15.633
			c0-7.048,0-10.464,0-17.512h-15.052V191.921z"/>
		<path style="fill:#AC290E;" d="M193.066,171.904c0.507,10.11,4.623,16.341,11.852,15.62c11.852-1.182,11.852-5.496,11.852-15.62
			c0-16.657-4.58-18.331-11.852-18.331C197.647,153.573,192.339,157.398,193.066,171.904z"/>
		<path style="fill:none;stroke:#0E1F32;stroke-width:0.5;stroke-linecap:round;stroke-linejoin:round;stroke-miterlimit:10;" d="
			M209.153,186.872c-0.941,0.068-1.98,0.028-3.118-0.146"/>
		<path style="fill:#AC290E;" d="M189.215,174.444c0.871,2.692,2.75,4.494,4.198,4.026c1.447-0.468,1.914-3.03,1.043-5.722
			c-0.871-2.692-2.751-4.494-4.198-4.026C188.811,169.19,188.344,171.752,189.215,174.444z"/>
		<path style="fill:none;stroke:#0E1F32;stroke-width:0.5;stroke-linecap:round;stroke-linejoin:round;stroke-miterlimit:10;" d="
			M218.232,168.254"/>
		<path style="fill:none;stroke:#0E1F32;stroke-width:0.5;stroke-linecap:round;stroke-linejoin:round;stroke-miterlimit:10;" d="
			M215.043,177.699"/>
		
			<line style="fill:none;stroke:#0E1F32;stroke-width:0.5;stroke-linecap:round;stroke-linejoin:round;stroke-miterlimit:10;" x1="205.565" y1="273.155" x2="204.177" y2="230.153"/>
		
			<line style="fill:none;stroke:#0E1F32;stroke-width:0.5;stroke-linecap:round;stroke-linejoin:round;stroke-miterlimit:10;" x1="204.71" y1="208.012" x2="204.177" y2="230.153"/>
		<path style="fill:none;stroke:#0E1F32;stroke-width:0.5;stroke-linecap:round;stroke-linejoin:round;stroke-miterlimit:10;" d="
			M178.876,260.13l15.244,1.928C194.119,262.057,186.689,272.559,178.876,260.13z"/>
		<path style="fill:none;stroke:#0E1F32;stroke-width:0.5;stroke-linecap:round;stroke-linejoin:round;stroke-miterlimit:10;" d="
			M213.565,262.057l8.607-3.703C222.212,264.569,215.7,268.424,213.565,262.057z"/>
		<path style="fill:none;stroke:#0E1F32;stroke-width:0.5;stroke-linecap:round;stroke-linejoin:round;stroke-miterlimit:10;" d="
			M204.171,268.026c0,0.786-0.331,1.422-0.74,1.422c-0.409,0-0.74-0.637-0.74-1.422c0-0.786,0.331-1.422,0.74-1.422
			C203.84,266.604,204.171,267.241,204.171,268.026z"/>
		
			<ellipse style="fill:none;stroke:#0E1F32;stroke-width:0.5;stroke-linecap:round;stroke-linejoin:round;stroke-miterlimit:10;" cx="202.935" cy="252.193" rx="0.74" ry="1.423"/>
		
			<ellipse style="fill:none;stroke:#0E1F32;stroke-width:0.5;stroke-linecap:round;stroke-linejoin:round;stroke-miterlimit:10;" cx="202.935" cy="236.359" rx="0.74" ry="1.422"/>
		<path style="fill:none;stroke:#3545C3;stroke-width:0.5;stroke-linecap:round;stroke-linejoin:round;stroke-miterlimit:10;" d="
			M179.528,289.449c0,0,4.918,52.357,37.414,56.697"/>
		<path style="fill:none;stroke:#3545C3;stroke-width:0.5;stroke-linecap:round;stroke-linejoin:round;stroke-miterlimit:10;" d="
			M192.454,298.767c0,0,6.282,29.229,18.217,33.964"/>
		<path style="fill:none;stroke:#3545C3;stroke-width:0.5;stroke-linecap:round;stroke-linejoin:round;stroke-miterlimit:10;" d="
			M216.942,294.133c0,0,8.758,47.018-9.163,22.093"/>
		<path style="fill:#5E1A1E;" d="M190.766,165.897c0.617,7.972,1.363,9.815,2.267,9.988c0.904,0.173,1.376-7.938,1.376-7.938
			c2.638,0.525,14.06-3.372,16.922-8.744c1.468,4.734,5.241,7.271,5.241,7.271c3.044-8.754-1.593-17.302-12.095-16.868
			C194.869,149.867,190.417,153.593,190.766,165.897z"/>
		<path style="fill:none;stroke:#0E1F32;stroke-width:0.5;stroke-linecap:round;stroke-linejoin:round;stroke-miterlimit:10;" d="
			M191.883,160.092c0,0,12.146,2.253,18.768-4.159"/>
		<path style="fill:none;stroke:#0E1F32;stroke-width:0.5;stroke-linecap:round;stroke-linejoin:round;stroke-miterlimit:10;" d="
			M193.033,157.319c0,0,10.462,1.646,16.614-4.159"/>
		<path style="fill:none;stroke:#0E1F32;stroke-width:0.5;stroke-linecap:round;stroke-linejoin:round;stroke-miterlimit:10;" d="
			M195.754,154.633c0,0,6.668,2.283,10.281-2.195"/>
		<path style="fill:none;stroke:#0E1F32;stroke-width:0.5;stroke-linecap:round;stroke-linejoin:round;stroke-miterlimit:10;" d="
			M212.799,153.159c0,0,1.923,7.972,4.715,8.752"/>
		<g>
			<path style="fill:none;stroke:#0E1F32;stroke-width:0.5;stroke-linecap:round;stroke-linejoin:round;stroke-miterlimit:10;" d="
				M204.19,230.661c19.283-15.409,12.581-37.808,12.581-37.808"/>
			<path style="fill:none;stroke:#0E1F32;stroke-width:0.5;stroke-linecap:round;stroke-linejoin:round;stroke-miterlimit:10;" d="
				M182.765,192.853"/>
		</g>
		<g>
			<path style="fill:none;stroke:#0E1F32;stroke-width:0.5;stroke-linecap:round;stroke-linejoin:round;stroke-miterlimit:10;" d="
				M209.316,174.883c2.391-1.128,0.628-3.321-0.182-2.253"/>
			<path style="fill:none;stroke:#0E1F32;stroke-width:0.5;stroke-linecap:round;stroke-linejoin:round;stroke-miterlimit:10;" d="
				M210.262,178.101c-0.657,0.876-2.42,0.893-2.991-0.378"/>
			<path style="fill:#0E1F32;" d="M204.802,170.596c0.031,0.827-0.393,1.515-0.949,1.536c-0.555,0.021-1.031-0.632-1.062-1.46
				c-0.031-0.827,0.393-1.515,0.949-1.536C204.296,169.115,204.771,169.768,204.802,170.596z"/>
			<path style="fill:#0E1F32;" d="M214.479,170.229c0.031,0.827-0.393,1.515-0.948,1.536c-0.555,0.021-1.031-0.632-1.062-1.46
				c-0.031-0.827,0.393-1.515,0.948-1.536C213.972,168.748,214.448,169.402,214.479,170.229z"/>
			<path style="fill:none;stroke:#0E1F32;stroke-width:0.5;stroke-linecap:round;stroke-linejoin:round;stroke-miterlimit:10;" d="
				M212.21,166.902c0,0,1.648-0.629,2.529,0.08"/>
			<path style="fill:none;stroke:#0E1F32;stroke-width:0.5;stroke-linecap:round;stroke-linejoin:round;stroke-miterlimit:10;" d="
				M202.614,167.93c0,0,1.281-1.213,2.366-0.896"/>
		</g>
		<path style="fill:#AC290E;" d="M258.802,228.462c1.811-3.055,3.474-5.82,4.936-7.681c4.185-5.329-2.149-11.42-7.802-3.599
			c-1.418,1.962-3.069,3.875-4.805,5.733C253.782,224.666,256.406,226.443,258.802,228.462z"/>
		<path style="fill:#FFFFFF;" d="M261.838,225.721l-6.753-8.331l-6.667,6.787c3.336,4.031,4.964,8.566,8.3,12.598
			C259.024,231.022,261.838,225.721,261.838,225.721z"/>
		<path style="fill:#3545C3;" d="M252.508,220.013l-13.24,12.869l-11.541-30.329l-14.975,25.164c0,0,14.239,24.25,23.57,27.51
			c7.963,2.782,22.156-17.178,25.416-25.309C258.402,225.888,255.844,224.045,252.508,220.013z"/>
		
			<line style="fill:none;stroke:#0E1F32;stroke-width:0.5;stroke-linecap:round;stroke-linejoin:round;stroke-miterlimit:10;" x1="239.268" y1="232.883" x2="235.388" y2="235.963"/>
		
			<line style="fill:none;stroke:#0E1F32;stroke-width:0.5;stroke-linecap:round;stroke-linejoin:round;stroke-miterlimit:10;" x1="250.188" y1="222.374" x2="260.197" y2="233.445"/>
		<path style="fill:none;stroke:#0E1F32;stroke-width:0.5;stroke-linecap:round;stroke-linejoin:round;stroke-miterlimit:10;" d="
			M224.441,245.003c0.234-6.362,2.885-7.728,3.327-14.851c0.442-7.123-6.038-9.503-5.597-22.599"/>
		<g>
			<path style="fill:#AC290E;" d="M257.472,215.666l4.161-6.759c0,0,3.344-5.588,4.521-5.137c1.177,0.451-0.907,3.463-0.907,3.463
				s2.928-3.827,3.473-2.606s-1.503,3.923-1.503,3.923s2.207-2.754,3.029-2.439c0.822,0.315-1.541,4.021-1.541,4.021
				s1.692-2.839,2.771-2.425c1.079,0.413-2.107,9.316-7.667,13.259C258.25,224.909,257.472,215.666,257.472,215.666z"/>
			
				<line style="fill:none;stroke:#0E1F32;stroke-width:0.5;stroke-linecap:round;stroke-linejoin:round;stroke-miterlimit:10;" x1="264.057" y1="209.12" x2="266.12" y2="205.717"/>
			
				<line style="fill:none;stroke:#0E1F32;stroke-width:0.5;stroke-linecap:round;stroke-linejoin:round;stroke-miterlimit:10;" x1="266.663" y1="209.72" x2="268.202" y2="207.007"/>
			
				<line style="fill:none;stroke:#0E1F32;stroke-width:0.5;stroke-linecap:round;stroke-linejoin:round;stroke-miterlimit:10;" x1="268.355" y1="211.257" x2="269.585" y2="208.62"/>
			<g>
				<path style="fill:#9F95A1;" d="M286.184,174.501l-25.793,3.441c-0.907,0.121-1.545,0.955-1.424,1.862l4.782,35.844
					c0.121,0.907,0.955,1.545,1.862,1.424l25.792-3.441c0.907-0.121,1.545-0.955,1.424-1.862l-4.781-35.844
					C287.924,175.017,287.091,174.38,286.184,174.501z"/>
				
					<rect x="262.863" y="178.658" transform="matrix(0.9912 -0.1322 0.1322 0.9912 -23.4657 38.2003)" style="fill:#FFFFFF;" width="26.069" height="34.256"/>
			</g>
			<path style="fill:#AC290E;" d="M260.206,217.473c4.376-1.734,3.788-5.004,3.137-6.117c2.61-1.661,2.518-3.452,2.04-3.956
				c-0.478-0.504-3.561,1.222-4.592,2.898"/>
			<path style="fill:none;stroke:#0E1F32;stroke-width:0.5;stroke-linecap:round;stroke-linejoin:round;stroke-miterlimit:10;" d="
				M263.343,211.357c0,0,1.096,3.349-0.913,5.859"/>
			
				<polygon style="fill:none;stroke:#0E1F32;stroke-width:0.5;stroke-linecap:round;stroke-linejoin:round;stroke-miterlimit:10;" points="
				268.796,205.613 266.211,186.23 281.986,184.125 283.021,191.884 274.339,193.042 275.889,204.667 			"/>
			
				<line style="fill:none;stroke:#0E1F32;stroke-width:0.5;stroke-linecap:round;stroke-linejoin:round;stroke-miterlimit:10;" x1="277.615" y1="197.87" x2="284.635" y2="196.933"/>
			
				<line style="fill:none;stroke:#0E1F32;stroke-width:0.5;stroke-linecap:round;stroke-linejoin:round;stroke-miterlimit:10;" x1="277.96" y1="200.456" x2="284.98" y2="199.52"/>
			
				<line style="fill:none;stroke:#0E1F32;stroke-width:0.5;stroke-linecap:round;stroke-linejoin:round;stroke-miterlimit:10;" x1="278.305" y1="203.042" x2="285.325" y2="202.106"/>
			
				<line style="fill:none;stroke:#0E1F32;stroke-width:0.5;stroke-linecap:round;stroke-linejoin:round;stroke-miterlimit:10;" x1="278.65" y1="205.629" x2="285.67" y2="204.692"/>
			
				<line style="fill:none;stroke:#0E1F32;stroke-width:0.5;stroke-linecap:round;stroke-linejoin:round;stroke-miterlimit:10;" x1="278.995" y1="208.215" x2="286.015" y2="207.278"/>
		</g>
		
			<path style="fill:#5E1A1E;stroke:#0E1F32;stroke-width:0.5;stroke-linecap:round;stroke-linejoin:round;stroke-miterlimit:10;" d="
			M185.255,166.889c0,0-2.139,8.203,5.492,14.46"/>
		<path style="fill:none;stroke:#0E1F32;stroke-width:0.5;stroke-linecap:round;stroke-linejoin:round;stroke-miterlimit:10;" d="
			M181.081,171.765c0,0-6.84,3.07-2.205,8.5c4.635,5.43,3.907,8.241,2.205,9.327"/>
		<path style="fill:none;stroke:#0E1F32;stroke-width:0.5;stroke-linecap:round;stroke-linejoin:round;stroke-miterlimit:10;" d="
			M180.86,175.458c0,0,4.713,8.856,3.309,13.126"/>
		<path style="fill:none;stroke:#0E1F32;stroke-width:0.5;stroke-linecap:round;stroke-linejoin:round;stroke-miterlimit:10;" d="
			M186.497,181.349c0,0,4.171,3.745,1.365,8.243"/>
		<g>
			<path style="fill:none;stroke:#0E1F32;stroke-width:0.5;stroke-linecap:round;stroke-linejoin:round;stroke-miterlimit:10;" d="
				M182.765,192.853c0,0-5.501,19.348,21.406,37.808"/>
		</g>
		<g>
			<path style="fill:#F16522;" d="M184.32,191.762c0,0,9.471,3.892,11.369,26.717c1.424,17.118-1.943,61.098-1.943,61.098
				s-18.265,8.605-24.861-3.859C167.373,208.887,158.859,197.552,184.32,191.762z"/>
			<g>
				<defs>
					<path id="SVGID_8_" d="M184.32,191.762c0,0,9.471,3.892,11.369,26.717c1.424,17.118-1.943,61.098-1.943,61.098
						s-18.265,8.605-24.861-3.859C167.373,208.887,158.859,197.552,184.32,191.762z"/>
				</defs>
				<clipPath id="SVGID_00000075862148923958508940000005156818805419141796_">
					<use xlink:href="#SVGID_8_"  style="overflow:visible;"/>
				</clipPath>
				<g style="clip-path:url(#SVGID_00000075862148923958508940000005156818805419141796_);">
					<path style="fill:none;stroke:#FFDD15;stroke-width:2;stroke-miterlimit:10;" d="M167.778,198.604
						c8.762-11.635,19-6.145,22.2,11.729c3.199,17.874-1.499,76.019-1.499,76.019"/>
					<path style="fill:none;stroke:#FFFFFF;stroke-width:5;stroke-miterlimit:10;" d="M165.636,261.639
						c0,0,10.337,9.272,30.424,3.74"/>
					<path style="fill:none;stroke:#FFFFFF;stroke-width:5;stroke-miterlimit:10;" d="M165.994,249.211
						c0,0,14.206,11.046,30.681,2.651"/>
				</g>
			</g>
			<path style="fill:#F16522;" d="M209.194,191.196c0,0,13.838,26.09,8.71,87.115c12.31-2.152-0.443,0.077,12.247-2.141
				c0,0,2.099-58.896-9.209-82.231C215.765,191.792,214.433,191.908,209.194,191.196z"/>
			<g>
				<defs>
					<path id="SVGID_6_" d="M209.194,191.196c0,0,13.838,26.09,8.71,87.115c12.31-2.152-0.443,0.077,12.247-2.141
						c0,0,2.099-58.896-9.209-82.231C215.565,191.943,215.449,191.943,209.194,191.196z"/>
				</defs>
				<clipPath id="SVGID_00000080200407703130150770000012270240674494517636_">
					<use xlink:href="#SVGID_6_"  style="overflow:visible;"/>
				</clipPath>
				<g style="clip-path:url(#SVGID_00000080200407703130150770000012270240674494517636_);">
					<path style="fill:none;stroke:#FFDD15;stroke-width:2;stroke-miterlimit:10;" d="M213.297,187.9
						c14.869,36.321,9.735,92.323,9.735,92.323"/>
					<path style="fill:none;stroke:#FFFFFF;stroke-width:5;stroke-miterlimit:10;" d="M215.447,264.44c0,0,8.76,0.145,20.3-3.389"/>
					<path style="fill:none;stroke:#FFFFFF;stroke-width:5;stroke-miterlimit:10;" d="M211.94,252.504c0,0,9.618-0.495,21.451-3.236
						"/>
				</g>
			</g>
			<path style="fill:#3545C3;" d="M185.255,222.021c0,12.262-2.236,23.123-7.048,23.123c-4.812,0-8.729-9.205-8.729-21.467
				c0-12.262,1.418-26.88,6.231-26.88S185.255,209.759,185.255,222.021z"/>
			<path style="fill:none;stroke:#272532;stroke-width:0.5;stroke-miterlimit:10;" d="M168.832,273.412
				c0,0,6.754,11.792,24.914,4.134"/>
			<path style="fill:none;stroke:#272532;stroke-width:0.5;stroke-miterlimit:10;" d="M217.904,276.004
				c0,0,8.751-0.246,12.266-2.592"/>
		</g>
		<g>
			<g>
				<path style="fill:#FFFFFF;" d="M234.782,301.209c1.424,0.577,3.746-1.837,5.186-5.392c1.44-3.555,1.452-6.905,0.028-7.482
					c-0.622-0.252-102.591-41.549-103.213-41.801c-1.425-0.577-3.747,1.837-5.187,5.392c-1.44,3.555-1.452,6.905-0.027,7.482
					C132.191,259.66,234.16,300.957,234.782,301.209z"/>
				<path style="fill:#9F95A1;" d="M234.782,301.209c-1.424-0.577-1.412-3.927,0.028-7.482c1.44-3.555,3.762-5.969,5.186-5.392
					c1.425,0.577,1.412,3.927-0.028,7.482C238.528,299.372,236.206,301.786,234.782,301.209z"/>
				<path style="fill:none;stroke:#0E1F32;stroke-width:0.5;stroke-linecap:round;stroke-linejoin:round;stroke-miterlimit:10;" d="
					M130.892,253.666l103.309,41.84c0.481-0.713,0.943-1.359,1.379-1.934c3.167-4.169,4.988-4.513,3.011,1.687
					c-2.249,7.054-3.23,2.809-1.262-1.051l-1.471-0.557"/>
				
					<line style="fill:none;stroke:#0E1F32;stroke-width:0.5;stroke-linecap:round;stroke-linejoin:round;stroke-miterlimit:10;" x1="236.527" y1="299.023" x2="233.754" y2="297.9"/>
				
					<line style="fill:none;stroke:#0E1F32;stroke-width:0.5;stroke-linecap:round;stroke-linejoin:round;stroke-miterlimit:10;" x1="239.096" y1="290.557" x2="237.399" y2="289.87"/>
			</g>
			<g>
				<path style="fill:#A4D4E5;" d="M235.064,271.105c1.35-0.213,2.014-3.117,1.483-6.487c-0.531-3.37-2.057-5.929-3.407-5.716
					c-0.589,0.093-97.246,15.331-97.835,15.424c-1.35,0.213-2.014,3.117-1.483,6.487c0.531,3.37,2.057,5.929,3.407,5.716
					C137.818,286.437,234.474,271.198,235.064,271.105z"/>
				<path style="fill:#9F95A1;" d="M235.064,271.105c-1.35,0.213-2.876-2.346-3.407-5.716c-0.531-3.37,0.133-6.274,1.483-6.487
					c1.35-0.213,2.876,2.346,3.407,5.716C237.078,267.988,236.414,270.892,235.064,271.105z"/>
				<path style="fill:none;stroke:#0E1F32;stroke-width:0.5;stroke-linecap:round;stroke-linejoin:round;stroke-miterlimit:10;" d="
					M134.081,282.462l97.927-15.439c0.04-0.764,0.096-1.469,0.165-2.106c0.504-4.629,1.734-5.726,3.068-0.093
					c1.517,6.408-1.175,3.622-1.444-0.223l-1.377,0.249"/>
				
					<line style="fill:none;stroke:#0E1F32;stroke-width:0.5;stroke-linecap:round;stroke-linejoin:round;stroke-miterlimit:10;" x1="235.392" y1="268.639" x2="232.764" y2="269.054"/>
				
					<line style="fill:none;stroke:#0E1F32;stroke-width:0.5;stroke-linecap:round;stroke-linejoin:round;stroke-miterlimit:10;" x1="233.472" y1="261.008" x2="231.863" y2="261.262"/>
			</g>
			<path style="fill:#AC290E;" d="M189.032,270.416c2.095,2.108,6.227,8.135,3.65,10.27c-1.212,1.003-1.503-3.238-1.503-3.238"/>
			<g>
				<g>
					<path style="fill:#AC290E;" d="M191.178,277.448c0,0,1.687,4.714,0.28,5.478c-1.218,0.661-1.698-1.335-1.698-1.335
						s0.841,2.155-0.729,2.061c-1.467-0.088-1.815-1.498-1.815-1.498s0.509,1.539-0.366,1.952c-0.875,0.413-2.022-1.974-2.022-1.974
						s0.968,1.195-0.181,1.737c-0.9,0.425-3.311-2.999-4.699-8.903c-1.339-5.692,5.363-8.295,9.084-4.551"/>
					
						<path style="fill:none;stroke:#0E1F32;stroke-width:0.5;stroke-linecap:round;stroke-linejoin:round;stroke-miterlimit:10;" d="
						M190.602,275.908c0,0,0.493,0.995,0.857,2.643"/>
					
						<line style="fill:none;stroke:#0E1F32;stroke-width:0.5;stroke-linecap:round;stroke-linejoin:round;stroke-miterlimit:10;" x1="189.165" y1="279.209" x2="189.958" y2="282.162"/>
					
						<line style="fill:none;stroke:#0E1F32;stroke-width:0.5;stroke-linecap:round;stroke-linejoin:round;stroke-miterlimit:10;" x1="186.708" y1="280.824" x2="187.541" y2="282.705"/>
					
						<line style="fill:none;stroke:#0E1F32;stroke-width:0.5;stroke-linecap:round;stroke-linejoin:round;stroke-miterlimit:10;" x1="184.201" y1="280.998" x2="185.196" y2="282.926"/>
				</g>
				<g>
					<polygon style="fill:#AC290E;" points="182.492,265.721 188.568,270.145 182.338,277.915 176.333,273.125 					"/>
					<path style="fill:#FFFFFF;" d="M171.176,272.753c1.316,0.932,4.947,3.415,4.947,3.415l8.956-11.661l-4.682-4.58
						C177.341,264.168,173.798,268.104,171.176,272.753z"/>
					<path style="fill:#3545C3;" d="M164.462,241.855l13.464-20.153c7.18-8.498,3.611-27.961-4.897-23.548
						c-13.991,7.257-28.2,39.811-28.12,45.707c0.08,5.895,4.796,15.096,25.426,31.053c3.442-4.254,7.872-10.409,10.928-14.651
						L164.462,241.855z"/>
				</g>
				
					<line style="fill:none;stroke:#0E1F32;stroke-width:0.5;stroke-linecap:round;stroke-linejoin:round;stroke-miterlimit:10;" x1="176.304" y1="255.316" x2="163.793" y2="269.54"/>
			</g>
		</g>
		<g>
			<path style="fill:#EBBC0E;" d="M183.956,160.923c0,0,18.835,5.598,34.29-2.602C216.975,130.804,179.409,138.992,183.956,160.923z
				"/>
			<path style="fill:#EBBC0E;" d="M183.956,160.923l-0.273,1.773c0,0,19.55,3.74,29.062,2.515c9.512-1.225,14.32-4.274,5.502-6.89
				C209.834,159.243,183.956,160.923,183.956,160.923z"/>
			<path style="fill:none;stroke:#B9722E;stroke-width:0.5;stroke-miterlimit:10;" d="M183.956,160.923
				c0,0,20.245,2.319,25.51-0.375c5.265-2.694-0.678-19.383-12.725-19.013"/>
			<path style="fill:none;stroke:#B9722E;stroke-width:0.5;stroke-miterlimit:10;" d="M204.192,141.018
				c0,0,9.94,0.351,11.884,15.471c0.598,4.425,2.17,1.832,2.17,1.832"/>
			<path style="fill:none;stroke:#B9722E;stroke-width:0.5;stroke-miterlimit:10;" d="M183.76,162.191
				c0,0,34.174,4.987,38.804-1.716"/>
		</g>
		<path style="fill:#FFFFFF;" d="M204.71,208.012l3.825-10.336l4.376-0.398c0,0-1.605-4.285-2.65-6.148l-1.799-0.148
			C208.463,190.981,204.8,204.262,204.71,208.012z"/>
		<path style="fill:none;stroke:#0E1F32;stroke-width:0.5;stroke-linecap:round;stroke-linejoin:round;stroke-miterlimit:10;" d="
			M204.71,208.012l3.825-10.336l4.376-0.398c0,0-1.605-4.285-2.65-6.148"/>
		
			<polyline style="fill:none;stroke:#0E1F32;stroke-width:0.5;stroke-linecap:round;stroke-linejoin:round;stroke-miterlimit:10;" points="
			191.835,191.736 189.753,198.137 194.292,197.076 204.71,208.012 		"/>
		
			<line style="fill:none;stroke:#272532;stroke-width:0.5;stroke-miterlimit:10;" x1="170.328" y1="233.075" x2="177.926" y2="221.702"/>
	</g>
	<g>
		<path style="fill:#FF6437;" d="M107.893,396.525l-14.201,49.074h32.897l-14.201-49.074
			C111.737,394.272,108.545,394.272,107.893,396.525z"/>
		<g>
			<defs>
				<path id="SVGID_4_" d="M107.893,396.525l-14.201,49.074h32.897l-14.201-49.074C111.737,394.272,108.545,394.272,107.893,396.525
					z"/>
			</defs>
			<clipPath id="SVGID_00000142879153445360742050000002742334006978117001_">
				<use xlink:href="#SVGID_4_"  style="overflow:visible;"/>
			</clipPath>
			<g style="clip-path:url(#SVGID_00000142879153445360742050000002742334006978117001_);">
				<rect x="89.58" y="420.217" style="fill:#FFFFFF;" width="41.121" height="7.478"/>
				<rect x="89.58" y="403.159" style="fill:#FFFFFF;" width="41.121" height="7.478"/>
			</g>
		</g>
		<path style="fill:#FF874F;" d="M129.316,449.338h-38.35c-0.765,0-1.385-0.62-1.385-1.385v-0.968c0-0.765,0.62-1.386,1.385-1.386
			h38.35c0.765,0,1.386,0.62,1.386,1.386v0.968C130.701,448.717,130.081,449.338,129.316,449.338z"/>
	</g>
	<g>
		<path style="fill:#FF6437;" d="M56.785,396.525l-14.201,49.074h32.897l-14.2-49.074C60.629,394.272,57.437,394.272,56.785,396.525
			z"/>
		<g>
			<defs>
				<path id="SVGID_2_" d="M56.785,396.525l-14.201,49.074h32.897l-14.2-49.074C60.629,394.272,57.437,394.272,56.785,396.525z"/>
			</defs>
			<clipPath id="SVGID_00000102542714576596215590000010628276927248645279_">
				<use xlink:href="#SVGID_2_"  style="overflow:visible;"/>
			</clipPath>
			<g style="clip-path:url(#SVGID_00000102542714576596215590000010628276927248645279_);">
				<rect x="38.472" y="420.217" style="fill:#FFFFFF;" width="41.121" height="7.478"/>
				<rect x="38.472" y="403.159" style="fill:#FFFFFF;" width="41.121" height="7.478"/>
			</g>
		</g>
		<path style="fill:#FF874F;" d="M78.208,449.338h-38.35c-0.765,0-1.386-0.62-1.386-1.385v-0.968c0-0.765,0.62-1.386,1.386-1.386
			h38.35c0.765,0,1.385,0.62,1.385,1.386v0.968C79.593,448.717,78.973,449.338,78.208,449.338z"/>
	</g>
	<g>
		<rect x="377.891" y="281.668" style="fill:#FFDB32;" width="33.838" height="7.377"/>
		<path style="fill:none;stroke:#FFDB32;stroke-miterlimit:10;" d="M416.98,337.249h-5.789c-2.496,0-4.52-2.023-4.52-4.52v-12.11
			c0-2.496,2.023-4.52,4.52-4.52h5.789c2.496,0,4.52,2.023,4.52,4.52v12.11C421.5,335.225,419.476,337.249,416.98,337.249z"/>
		<rect x="326.267" y="296.734" style="fill:#706C9B;" width="5.462" height="12.745"/>
		<rect x="337.638" y="310.216" style="fill:#706C9B;" width="14.217" height="12.138"/>
		<rect x="324.837" y="308.829" style="fill:#272532;" width="8.323" height="13.525"/>
		<rect x="322.452" y="353.436" style="fill:#706C9B;" width="80.892" height="9.614"/>
		<path style="fill:#FFED00;" d="M309.751,348.017h105.775V285.94h-39.882l-15.259,33.987H324.49
			c-8.14,0-14.739,6.599-14.739,14.739V348.017z"/>
		<rect x="337.163" y="325.865" style="fill:none;stroke:#FFDB32;stroke-miterlimit:10;" width="18.771" height="4.031"/>
		<rect x="337.163" y="331.848" style="fill:none;stroke:#FFDB32;stroke-miterlimit:10;" width="18.771" height="4.032"/>
		<rect x="337.163" y="337.83" style="fill:none;stroke:#FFDB32;stroke-miterlimit:10;" width="18.771" height="4.031"/>
		<polygon style="fill:#DCDFEA;" points="250.994,396.917 245.697,396.917 266.816,335.359 272.114,335.359 		"/>
		<path style="fill:#272532;" d="M250.994,396.917l0.207-0.131c14.997-9.471,25.344-21.071,29.438-33.005l5.875-17.125
			c2.14-6.239-4.307-11.296-14.402-11.296l0,0L250.994,396.917z"/>
		<polygon style="fill:#706C9B;" points="250.994,396.917 233.418,396.917 254.21,386.93 		"/>
		<path style="fill:#FFDB32;" d="M322.686,341.045l-43.048,23.979c-3.208,1.787-7.258,0.635-9.045-2.573l0,0
			c-1.787-3.208-0.635-7.258,2.573-9.045l43.048-23.979c3.208-1.787,7.258-0.635,9.045,2.573l0,0
			C327.046,335.209,325.894,339.258,322.686,341.045z"/>
		<path style="fill:none;stroke:#0E1F32;stroke-width:0.5;stroke-linecap:round;stroke-linejoin:round;stroke-miterlimit:10;" d="
			M309.877,332.957l6.337-3.53c3.208-1.787,7.258-0.635,9.045,2.573l0,0c1.787,3.208,0.635,7.258-2.573,9.045l-11.082,6.173"/>
		<path style="fill:none;stroke:#0E1F32;stroke-width:0.5;stroke-linecap:round;stroke-linejoin:round;stroke-miterlimit:10;" d="
			M280.458,356.956c1.254,2.251,0.446,5.093-1.806,6.347c-2.251,1.254-5.093,0.446-6.347-1.806
			c-1.254-2.251-0.446-5.093,1.806-6.347C276.362,353.896,279.204,354.704,280.458,356.956z"/>
		<path style="fill:none;stroke:#0E1F32;stroke-width:0.5;stroke-linecap:round;stroke-linejoin:round;stroke-miterlimit:10;" d="
			M323.88,332.769c1.254,2.251,0.446,5.093-1.806,6.347c-2.252,1.254-5.093,0.446-6.347-1.806c-1.254-2.251-0.446-5.093,1.806-6.347
			C319.784,329.709,322.626,330.517,323.88,332.769z"/>
		
			<rect x="280.322" y="343.1" transform="matrix(0.8736 -0.4866 0.4866 0.8736 -131.2167 188.9647)" style="fill:#FFED00;" width="35.697" height="7.979"/>
		<rect x="312.048" y="348.017" style="fill:#272532;" width="101.44" height="6.542"/>
		<path style="fill:#272532;" d="M377.491,291.214l-12.542,27.72c-0.725,1.603,0.447,3.421,2.207,3.421h42.098
			c1.338,0,2.422-1.084,2.422-2.422v-27.72c0-1.338-1.084-2.422-2.422-2.422h-29.556
			C378.746,289.79,377.883,290.347,377.491,291.214z M365.179,344.166h44.074c1.338,0,2.422-1.085,2.422-2.422v-13.456
			c0-1.338-1.084-2.422-2.422-2.422h-44.074c-1.338,0-2.422,1.084-2.422,2.422v13.456
			C362.757,343.082,363.842,344.166,365.179,344.166z"/>
		<g>
			<path style="fill:#272532;" d="M304.934,395.571c-9.401,0-17.05-7.649-17.05-17.049s7.649-17.049,17.05-17.049h123.082
				c9.401,0,17.049,7.648,17.049,17.049s-7.648,17.049-17.049,17.049H304.934z"/>
			<path style="fill:#272532;" d="M304.934,395.571c-9.401,0-17.05-7.649-17.05-17.049s7.649-17.049,17.05-17.049h123.082
				c9.401,0,17.049,7.648,17.049,17.049s-7.648,17.049-17.049,17.049H304.934z"/>
			<g>
				<path style="fill:#272532;" d="M295.463,391.194c0.419,0.315,0.889,0.553,1.329,0.837c0.455,0.258,0.94,0.461,1.406,0.698
					c-0.54,1.034-1.099,2.06-1.675,3.077c-0.48-0.24-0.976-0.449-1.439-0.719l-1.374-0.837
					C294.278,393.221,294.863,392.202,295.463,391.194z"/>
				<path style="fill:#272532;" d="M289.801,383.839l0.272,0.736l0.343,0.706c0.208,0.482,0.48,0.929,0.759,1.373
					c-1.036,0.542-2.082,1.068-3.139,1.577c-0.293-0.451-0.545-0.923-0.766-1.413c-0.233-0.484-0.479-0.961-0.646-1.473
					C287.677,384.825,288.736,384.323,289.801,383.839z"/>
				<path style="fill:#272532;" d="M289.369,374.577c-0.142,0.504-0.264,1.013-0.322,1.535c-0.093,0.516-0.159,1.035-0.164,1.561
					c-1.161-0.15-2.321-0.319-3.48-0.508c0.007-0.537,0.105-1.066,0.185-1.597c0.071-0.533,0.165-1.06,0.316-1.577
					C287.064,374.167,288.219,374.362,289.369,374.577z"/>
				<path style="fill:#272532;" d="M294.32,366.73c-0.79,0.689-1.531,1.437-2.173,2.265c-0.866-0.79-1.721-1.595-2.563-2.416
					c0.695-0.815,1.419-1.609,2.235-2.306C292.668,365.079,293.501,365.898,294.32,366.73z"/>
				<path style="fill:#272532;" d="M302.868,363.124c-0.521,0.051-1.035,0.154-1.554,0.223c-0.511,0.108-1.014,0.258-1.522,0.38
					c-0.258-1.137-0.497-2.28-0.717-3.428c0.521-0.129,1.037-0.282,1.563-0.387l1.591-0.244
					C302.46,360.81,302.674,361.964,302.868,363.124z"/>
				<polygon style="fill:#272532;" points="313.199,363.05 309.701,363.05 309.989,359.549 312.91,359.549 				"/>
				<polygon style="fill:#272532;" points="323.693,363.05 320.195,363.05 320.484,359.549 323.405,359.549 				"/>
				<polygon style="fill:#272532;" points="334.188,363.05 330.69,363.05 330.978,359.549 333.9,359.549 				"/>
				<polygon style="fill:#272532;" points="344.683,363.05 341.185,363.05 341.473,359.549 344.394,359.549 				"/>
				<polygon style="fill:#272532;" points="355.177,363.05 351.679,363.05 351.968,359.549 354.889,359.549 				"/>
				<polygon style="fill:#272532;" points="365.672,363.05 362.174,363.05 362.462,359.549 365.383,359.549 				"/>
				<polygon style="fill:#272532;" points="376.167,363.05 372.668,363.05 372.957,359.549 375.878,359.549 				"/>
				<polygon style="fill:#272532;" points="386.661,363.05 383.163,363.05 383.451,359.549 386.373,359.549 				"/>
				<polygon style="fill:#272532;" points="397.156,363.05 393.658,363.05 393.946,359.549 396.867,359.549 				"/>
				<polygon style="fill:#272532;" points="407.65,363.05 404.152,363.05 404.441,359.549 407.362,359.549 				"/>
				<polygon style="fill:#272532;" points="418.145,363.05 414.647,363.05 414.935,359.549 417.857,359.549 				"/>
				<polygon style="fill:#272532;" points="428.64,363.05 425.141,363.05 425.43,359.549 428.351,359.549 				"/>
				<path style="fill:#272532;" d="M437.486,365.849c-0.419-0.314-0.889-0.553-1.329-0.837c-0.455-0.258-0.94-0.461-1.406-0.698
					c0.54-1.034,1.099-2.059,1.675-3.077c0.48,0.24,0.976,0.449,1.439,0.719l1.374,0.837
					C438.671,363.822,438.087,364.842,437.486,365.849z"/>
				<path style="fill:#272532;" d="M443.148,373.204l-0.272-0.736l-0.343-0.707c-0.208-0.482-0.48-0.929-0.759-1.373
					c1.036-0.542,2.082-1.068,3.139-1.577c0.293,0.451,0.545,0.923,0.766,1.413c0.233,0.484,0.479,0.961,0.646,1.473
					C445.273,372.218,444.214,372.721,443.148,373.204z"/>
				<path style="fill:#272532;" d="M443.581,382.467c0.142-0.504,0.264-1.013,0.322-1.535c0.093-0.516,0.159-1.035,0.164-1.561
					c1.161,0.15,2.321,0.319,3.48,0.508c-0.007,0.537-0.105,1.066-0.185,1.597c-0.071,0.533-0.165,1.06-0.316,1.577
					C445.886,382.877,444.731,382.681,443.581,382.467z"/>
				<path style="fill:#272532;" d="M438.629,390.314c0.79-0.689,1.53-1.437,2.173-2.265c0.866,0.79,1.721,1.596,2.563,2.416
					c-0.695,0.816-1.418,1.609-2.235,2.306C440.282,391.965,439.448,391.146,438.629,390.314z"/>
				<path style="fill:#272532;" d="M430.081,393.92c0.521-0.051,1.035-0.154,1.554-0.223c0.512-0.108,1.014-0.258,1.523-0.38
					c0.258,1.137,0.497,2.28,0.717,3.428c-0.521,0.129-1.037,0.282-1.563,0.387l-1.591,0.243
					C430.489,396.234,430.276,395.08,430.081,393.92z"/>
				<polygon style="fill:#272532;" points="419.751,393.993 423.249,393.993 422.96,397.495 420.039,397.495 				"/>
				<polygon style="fill:#272532;" points="409.256,393.993 412.754,393.993 412.466,397.495 409.544,397.495 				"/>
				<polygon style="fill:#272532;" points="398.761,393.993 402.26,393.993 401.971,397.495 399.05,397.495 				"/>
				<polygon style="fill:#272532;" points="388.267,393.993 391.765,393.993 391.477,397.495 388.555,397.495 				"/>
				<polygon style="fill:#272532;" points="377.772,393.993 381.27,393.993 380.982,397.495 378.061,397.495 				"/>
				<polygon style="fill:#272532;" points="367.277,393.993 370.776,393.993 370.487,397.495 367.566,397.495 				"/>
				<polygon style="fill:#272532;" points="356.783,393.993 360.281,393.993 359.993,397.495 357.071,397.495 				"/>
				<polygon style="fill:#272532;" points="346.288,393.993 349.786,393.993 349.498,397.495 346.577,397.495 				"/>
				<polygon style="fill:#272532;" points="335.794,393.993 339.292,393.993 339.003,397.495 336.082,397.495 				"/>
				<polygon style="fill:#272532;" points="325.299,393.993 328.797,393.993 328.509,397.495 325.587,397.495 				"/>
				<polygon style="fill:#272532;" points="314.805,393.993 318.303,393.993 318.014,397.495 315.093,397.495 				"/>
				<polygon style="fill:#272532;" points="304.31,393.993 307.808,393.993 307.52,397.495 304.598,397.495 				"/>
			</g>
			<path style="fill:#706C9B;" d="M428.016,393.646H304.934c-8.353,0-15.124-6.771-15.124-15.124l0,0
				c0-8.353,6.771-15.124,15.124-15.124h123.082c8.353,0,15.124,6.771,15.124,15.124l0,0
				C443.14,386.875,436.369,393.646,428.016,393.646z"/>
			<rect x="304.187" y="367.878" style="fill:#272532;" width="123.054" height="21.287"/>
			
				<rect x="304.187" y="375.831" style="fill:none;stroke:#3545C3;stroke-width:0.5;stroke-linecap:round;stroke-linejoin:round;stroke-miterlimit:10;" width="123.054" height="5.381"/>
			<circle style="fill:#DCDFEA;" cx="305.405" cy="378.522" r="11.715"/>
			<path style="fill:#706C9B;" d="M313.089,378.522c0,4.244-3.44,7.684-7.684,7.684c-4.244,0-7.684-3.44-7.684-7.684
				c0-4.244,3.44-7.684,7.684-7.684C309.649,370.838,313.089,374.278,313.089,378.522z"/>
			<circle style="fill:#DCDFEA;" cx="427.241" cy="378.522" r="11.715"/>
			
				<ellipse transform="matrix(0.2191 -0.9757 0.9757 0.2191 -35.6983 712.4391)" style="fill:#706C9B;" cx="427.241" cy="378.522" rx="7.684" ry="7.684"/>
			<g>
				<defs>
					<rect id="SVGID_1_" x="304.187" y="367.878" width="123.054" height="21.287"/>
				</defs>
				<clipPath id="SVGID_00000128457269183055395460000000731734569945430406_">
					<use xlink:href="#SVGID_1_"  style="overflow:visible;"/>
				</clipPath>
				<g style="clip-path:url(#SVGID_00000128457269183055395460000000731734569945430406_);">
					<path style="fill:#DCDFEA;" d="M342.165,389.673c0,3.065-2.484,5.549-5.549,5.549c-3.065,0-5.549-2.484-5.549-5.549
						c0-3.064,2.484-5.549,5.549-5.549C339.681,384.125,342.165,386.609,342.165,389.673z"/>
					<path style="fill:#DCDFEA;" d="M354.109,389.673c0,3.065-2.484,5.549-5.549,5.549c-3.065,0-5.549-2.484-5.549-5.549
						c0-3.064,2.484-5.549,5.549-5.549C351.624,384.125,354.109,386.609,354.109,389.673z"/>
					<path style="fill:#DCDFEA;" d="M366.052,389.673c0,3.065-2.484,5.549-5.549,5.549c-3.065,0-5.549-2.484-5.549-5.549
						c0-3.064,2.484-5.549,5.549-5.549C363.568,384.125,366.052,386.609,366.052,389.673z"/>
					<path style="fill:#DCDFEA;" d="M377.995,389.673c0,3.065-2.484,5.549-5.549,5.549c-3.065,0-5.549-2.484-5.549-5.549
						c0-3.064,2.484-5.549,5.549-5.549C375.511,384.125,377.995,386.609,377.995,389.673z"/>
					<path style="fill:#DCDFEA;" d="M389.939,389.673c0,3.065-2.484,5.549-5.549,5.549c-3.064,0-5.549-2.484-5.549-5.549
						c0-3.064,2.484-5.549,5.549-5.549C387.454,384.125,389.939,386.609,389.939,389.673z"/>
					<path style="fill:#DCDFEA;" d="M401.882,389.673c0,3.065-2.484,5.549-5.549,5.549c-3.065,0-5.549-2.484-5.549-5.549
						c0-3.064,2.484-5.549,5.549-5.549C399.398,384.125,401.882,386.609,401.882,389.673z"/>
				</g>
			</g>
		</g>
		<g>
			<g>
				<path style="fill:none;stroke:#000000;stroke-miterlimit:10;" d="M334.441,373.612"/>
			</g>
		</g>
		<g>
			<g>
				<path style="fill:none;stroke:#000000;stroke-miterlimit:10;" d="M332.106,375.947"/>
			</g>
		</g>
		<g>
			<g>
				<path style="fill:none;stroke:#000000;stroke-miterlimit:10;" d="M347.284,374.487"/>
			</g>
		</g>
	</g>
</g>
</svg>
